<svg width="1200" height="100" viewBox="0 0 1200 100" fill="none" xmlns="http://www.w3.org/2000/svg">
<path d="M1.88632 70V69.124C3.35898 69.0479 4.53964 68.8447 5.42831 68.5146C6.34238 68.1592 7.14218 67.626 7.82773 66.915C8.64023 66.1025 9.18613 65.0742 9.46542 63.8301C9.74472 62.5859 9.88437 60.6562 9.88437 58.041V29.9717C9.88437 27.3564 9.74472 25.4268 9.46542 24.1826C9.18613 22.9385 8.64023 21.9102 7.82773 21.0977C7.14218 20.3613 6.34238 19.8281 5.42831 19.498C4.51425 19.168 3.33359 18.9648 1.88632 18.8887V18.0127H26.9088C29.4478 18.0127 31.1109 18.0381 31.898 18.0889C34.7926 18.3174 37.192 19.0029 39.0963 20.1455C40.7467 21.1611 42.0162 22.4941 42.9049 24.1445C43.8189 25.7949 44.276 27.6484 44.276 29.7051C44.276 33.0312 43.2477 35.7607 41.191 37.8936C40.4547 38.6807 39.6168 39.3408 38.6773 39.874C37.7379 40.3818 36.3795 40.9531 34.6021 41.5879C37.0396 41.9941 38.9312 42.4385 40.2769 42.9209C41.6227 43.4033 42.8414 44.0762 43.9332 44.9395C45.5582 46.2598 46.815 47.9102 47.7037 49.8906C48.6178 51.8457 49.0748 53.9658 49.0748 56.251C49.0748 58.5615 48.6051 60.6816 47.6656 62.6113C46.7516 64.5156 45.4693 66.0518 43.8189 67.2197C42.3209 68.2607 40.5309 68.9844 38.4488 69.3906C36.3922 69.7969 33.485 70 29.7271 70H1.88632ZM18.2252 19.1934V41.8164H21.3102C22.7574 41.8164 24.2555 41.7148 25.8043 41.5117C27.15 41.3086 28.2291 41.0674 29.0416 40.7881C29.8795 40.5088 30.6412 40.1279 31.3268 39.6455C32.6217 38.6807 33.6119 37.4492 34.2975 35.9512C35.0084 34.4277 35.3639 32.752 35.3639 30.9238C35.3639 28.9941 34.9957 27.166 34.2594 25.4395C33.5484 23.6875 32.5963 22.3291 31.4029 21.3643C30.3619 20.5264 29.1685 19.9551 27.8228 19.6504C26.5025 19.3457 24.484 19.1934 21.7672 19.1934H18.2252ZM18.2252 42.9971V58.6885C18.2252 60.5928 18.3521 62.1289 18.606 63.2969C18.8853 64.4648 19.3297 65.4551 19.9391 66.2676C21.234 67.9688 23.4557 68.8193 26.6041 68.8193C30.692 68.8193 33.9166 67.7021 36.2779 65.4678C38.6646 63.2334 39.858 60.1865 39.858 56.3271C39.858 54.1182 39.4898 52.0742 38.7535 50.1953C38.0172 48.291 37.0269 46.8311 35.7828 45.8154C33.4977 43.9365 29.9176 42.9971 25.0426 42.9971H18.2252ZM69.9276 44.5586V58.041C69.9276 60.6309 70.0673 62.5605 70.3466 63.8301C70.6512 65.0742 71.1971 66.1025 71.9843 66.915C72.6698 67.626 73.4569 68.1592 74.3456 68.5146C75.2596 68.8447 76.453 69.0479 77.9257 69.124V70H53.5887V69.124C55.0614 69.0479 56.2421 68.8447 57.1307 68.5146C58.0448 68.1592 58.8446 67.626 59.5302 66.915C60.3427 66.1025 60.8885 65.0742 61.1678 63.8301C61.4471 62.5859 61.5868 60.6562 61.5868 58.041V29.9717C61.5868 27.3564 61.4471 25.4268 61.1678 24.1826C60.8885 22.9385 60.3427 21.9102 59.5302 21.0977C58.8446 20.3613 58.0448 19.8281 57.1307 19.498C56.2167 19.168 55.036 18.9648 53.5887 18.8887V18.0127H71.9462C75.0184 18.0127 77.037 18.0254 78.0018 18.0508C81.9374 18.2285 85.0223 18.7617 87.2567 19.6504C89.7704 20.666 91.7128 22.1895 93.0839 24.2207C94.4803 26.2266 95.1786 28.5625 95.1786 31.2285C95.1786 35.1895 93.6805 38.3633 90.6844 40.75C89.7704 41.4609 88.7548 42.0449 87.6376 42.502C86.5458 42.959 85.0731 43.3906 83.2196 43.7969C84.743 44.4316 85.8729 45.0918 86.6093 45.7773C87.1932 46.3105 87.7264 46.9834 88.2089 47.7959C88.6913 48.583 89.4149 49.9922 90.3798 52.0234C92.6395 56.6699 94.3407 60.0723 95.4833 62.2305C96.6512 64.3633 97.6288 65.9121 98.4159 66.877C99.0507 67.6641 99.66 68.21 100.244 68.5146C100.853 68.8193 101.679 69.0225 102.72 69.124V70H90.0751C89.4403 68.6035 89.0341 67.7148 88.8563 67.334L86.1903 61.2783C84.5907 57.6475 82.9784 54.4355 81.3534 51.6426C79.7284 48.875 78.243 46.9834 76.8973 45.9678C76.2118 45.46 75.4755 45.1045 74.6884 44.9014C73.9012 44.6729 72.9364 44.5586 71.7938 44.5586H69.9276ZM69.9276 43.7207H71.3749C74.5233 43.7207 76.7704 43.543 78.1161 43.1875C79.4872 42.832 80.7694 42.0957 81.9628 40.9785C84.6288 38.4395 85.9618 35.291 85.9618 31.5332C85.9618 29.5273 85.5682 27.6484 84.7811 25.8965C84.0194 24.1191 82.953 22.6592 81.5819 21.5166C80.5155 20.6533 79.246 20.0566 77.7733 19.7266C76.3007 19.3711 74.2059 19.1934 71.4891 19.1934H69.9276V43.7207ZM156.326 70H131.304V69.124C133.564 68.9209 135.138 68.54 136.027 67.9814C137.601 66.9912 138.388 65.6201 138.388 63.8682C138.388 62.8271 138.032 61.4307 137.321 59.6787L136.674 58.0791L133.018 49.0908H116.26L114.279 54.3467L113.327 56.708C112.185 59.501 111.613 61.6973 111.613 63.2969C111.613 64.2363 111.817 65.1123 112.223 65.9248C112.654 66.7373 113.226 67.3975 113.937 67.9053C114.927 68.5908 116.196 68.9971 117.745 69.124V70H100.683V69.124C102.028 69.0479 103.209 68.7178 104.225 68.1338C105.24 67.5498 106.231 66.6104 107.195 65.3154C108.008 64.2744 108.795 62.9414 109.557 61.3164C110.344 59.666 111.372 57.2031 112.642 53.9277L126.581 18.0127H128.752L145.319 58.041C146.564 61.0625 147.554 63.2207 148.29 64.5156C149.027 65.8105 149.826 66.7881 150.69 67.4482C151.299 67.9053 151.997 68.2607 152.784 68.5146C153.571 68.7432 154.752 68.9463 156.326 69.124V70ZM132.408 47.5293L124.41 27.8008L116.869 47.5293H132.408ZM166.172 24.9062V58.041C166.172 60.6562 166.312 62.5859 166.591 63.8301C166.896 65.0742 167.442 66.1025 168.229 66.915C168.94 67.6514 169.74 68.1846 170.628 68.5146C171.542 68.8447 172.723 69.0479 174.17 69.124V70H156.613V69.124C158.06 69.0479 159.228 68.8447 160.117 68.5146C161.031 68.1846 161.843 67.6514 162.554 66.915C163.341 66.1025 163.874 65.0742 164.154 63.8301C164.458 62.5605 164.611 60.6309 164.611 58.041V29.9336C164.611 27.3691 164.458 25.4648 164.154 24.2207C163.874 22.9512 163.341 21.9102 162.554 21.0977C161.869 20.3613 161.069 19.8281 160.155 19.498C159.266 19.168 158.085 18.9648 156.613 18.8887V18.0127H171.276L202.202 57.4697V29.9717C202.202 27.3564 202.049 25.4268 201.745 24.1826C201.465 22.9385 200.932 21.9102 200.145 21.0977C199.434 20.3613 198.622 19.8281 197.707 19.498C196.819 19.168 195.651 18.9648 194.204 18.8887V18.0127H211.761V18.8887C209.222 18.8887 207.242 19.625 205.82 21.0977C205.033 21.9102 204.487 22.9512 204.182 24.2207C203.903 25.4648 203.763 27.3691 203.763 29.9336V70H202.049L166.172 24.9062ZM214.79 69.124C216.262 69.0479 217.443 68.8447 218.332 68.5146C219.22 68.1846 220.02 67.6514 220.731 66.915C221.518 66.1025 222.051 65.0742 222.331 63.8301C222.635 62.5605 222.788 60.6309 222.788 58.041V29.9717C222.788 27.1787 222.61 25.1348 222.255 23.8398C221.925 22.5449 221.264 21.4785 220.274 20.6406C219.03 19.5996 217.202 19.0156 214.79 18.8887V18.0127H235.737C240.384 18.0127 243.342 18.0635 244.611 18.165C249.968 18.5713 254.513 20.0947 258.246 22.7354C261.801 25.249 264.568 28.5498 266.549 32.6377C268.529 36.7002 269.519 41.1309 269.519 45.9297C269.519 49.4336 268.948 52.7471 267.805 55.8701C266.688 58.9678 265.127 61.5449 263.121 63.6016C260.302 66.4961 256.786 68.3369 252.571 69.124C249.423 69.708 246.211 70 242.935 70H214.79V69.124ZM231.129 19.1934V57.0508C231.129 59.5391 231.268 61.4307 231.548 62.7256C231.827 64.0205 232.347 65.125 233.109 66.0391C234.734 68.0195 237.375 69.0098 241.031 69.0098C244.154 69.0098 246.82 68.502 249.029 67.4863C251.263 66.4453 253.257 64.7695 255.009 62.459C256.735 60.2246 258.043 57.6729 258.931 54.8037C259.845 51.9092 260.302 48.8369 260.302 45.5869C260.302 41.9814 259.757 38.5537 258.665 35.3037C257.573 32.0537 256.011 29.21 253.98 26.7725C251.162 23.3955 247.798 21.1611 243.887 20.0693C241.755 19.4854 239.038 19.1934 235.737 19.1934H231.129ZM294.848 69.8857L294.962 54.1562H295.838C296.905 58.168 298.174 61.3291 299.647 63.6396C302.414 67.9053 305.893 70.0381 310.082 70.0381C313.002 70.0381 315.414 69.0605 317.319 67.1055C319.223 65.1504 320.175 62.6748 320.175 59.6787C320.175 58.3838 319.959 57.0635 319.528 55.7178C319.121 54.3721 318.563 53.2168 317.852 52.252C317.116 51.2617 316.074 50.3096 314.729 49.3955C313.408 48.4814 311.377 47.3262 308.635 45.9297C306.223 44.7109 304.369 43.6826 303.074 42.8447C301.805 42.0068 300.777 41.1562 299.99 40.293C297.806 37.9062 296.714 34.999 296.714 31.5713C296.714 29.4639 297.133 27.4326 297.971 25.4775C298.834 23.5225 300.028 21.8467 301.551 20.4502C304.242 17.9619 307.429 16.7178 311.111 16.7178C312.304 16.7178 313.408 16.8447 314.424 17.0986C315.44 17.3271 316.798 17.7969 318.499 18.5078C319.769 19.0156 320.632 19.3457 321.089 19.498C321.546 19.625 321.952 19.6885 322.308 19.6885C323.197 19.6885 323.793 19.041 324.098 17.7461H324.974L325.241 32.8662H324.365C323.679 30.4541 323.082 28.6133 322.574 27.3438C322.092 26.0488 321.508 24.8555 320.823 23.7637C319.578 21.7832 318.207 20.3232 316.709 19.3838C315.211 18.4189 313.485 17.9365 311.53 17.9365C308.686 17.9365 306.439 18.9014 304.788 20.8311C304.103 21.6182 303.557 22.5449 303.151 23.6113C302.77 24.6777 302.579 25.7441 302.579 26.8105C302.579 31.0508 305.309 34.4658 310.768 37.0557L316.138 39.6455C320.277 41.6006 323.26 43.7588 325.088 46.1201C327.17 48.7607 328.211 51.833 328.211 55.3369C328.211 57.6729 327.741 59.9072 326.802 62.04C325.482 65.0107 323.501 67.3086 320.861 68.9336C318.22 70.5332 315.11 71.333 311.53 71.333C308.254 71.333 305.106 70.6855 302.084 69.3906C300.51 68.7051 299.571 68.3115 299.266 68.21C298.961 68.1084 298.618 68.0576 298.238 68.0576C297.019 68.0576 296.181 68.667 295.724 69.8857H294.848ZM353.139 19.1934C351.54 19.1934 349.826 19.2441 347.998 19.3457C344.087 19.5488 341.168 20.0439 339.238 20.8311C337.334 21.6182 335.759 22.9766 334.515 24.9062C333.373 26.6836 332.497 29.0957 331.887 32.1426L331.011 32.0664L331.697 18.0127H383.227L383.913 32.0664L383.037 32.1426C382.351 28.6133 381.272 25.9473 379.799 24.1445C378.352 22.3164 376.232 21.0088 373.439 20.2217C371.078 19.5361 367.079 19.1934 361.442 19.1934V58.041C361.442 60.6309 361.582 62.5605 361.861 63.8301C362.166 65.0742 362.711 66.1025 363.499 66.915C364.21 67.6514 365.009 68.1846 365.898 68.5146C366.812 68.8447 367.993 69.0479 369.44 69.124V70H345.103V69.124C346.576 69.0479 347.756 68.8447 348.645 68.5146C349.559 68.1846 350.372 67.6514 351.083 66.915C351.87 66.1025 352.403 65.0742 352.682 63.8301C352.987 62.5859 353.139 60.6562 353.139 58.041V19.1934ZM387.132 44.3682C387.132 40.1025 388.046 36.1543 389.874 32.5234C391.702 28.8672 394.368 25.6807 397.872 22.9639C400.487 20.958 403.306 19.4219 406.327 18.3555C409.348 17.2637 412.395 16.7178 415.468 16.7178C419.378 16.7178 423.161 17.5811 426.817 19.3076C430.473 21.0088 433.673 23.4209 436.415 26.5439C440.884 31.6221 443.118 37.3984 443.118 43.873C443.118 47.123 442.534 50.2588 441.366 53.2803C440.198 56.3018 438.497 59.0566 436.263 61.5449C433.52 64.6426 430.27 67.042 426.513 68.7432C422.78 70.4443 418.87 71.2949 414.782 71.2949C410.745 71.2949 406.886 70.4697 403.204 68.8193C399.522 67.1689 396.348 64.833 393.682 61.8115C391.575 59.4502 389.95 56.7715 388.807 53.7754C387.69 50.7539 387.132 47.6182 387.132 44.3682ZM396.348 44.9395C396.348 52.3027 398.354 58.5107 402.366 63.5635C404.169 65.8232 406.073 67.4736 408.079 68.5146C410.11 69.5303 412.446 70.0381 415.087 70.0381C417.753 70.0381 420.089 69.5303 422.095 68.5146C424.126 67.499 426.056 65.8486 427.884 63.5635C431.895 58.4854 433.901 52.2266 433.901 44.7871C433.901 40.6992 433.343 36.8398 432.225 33.209C431.134 29.5527 429.585 26.4551 427.579 23.916C425.954 21.834 424.139 20.3232 422.133 19.3838C420.152 18.4189 417.804 17.9365 415.087 17.9365C412.395 17.9365 410.059 18.4062 408.079 19.3457C406.124 20.2852 404.308 21.8086 402.633 23.916C400.627 26.4297 399.078 29.5146 397.986 33.1709C396.894 36.8271 396.348 40.75 396.348 44.9395ZM464.199 44.5586V58.041C464.199 60.6309 464.339 62.5605 464.618 63.8301C464.923 65.0742 465.469 66.1025 466.256 66.915C466.942 67.626 467.729 68.1592 468.617 68.5146C469.531 68.8447 470.725 69.0479 472.197 69.124V70H447.86V69.124C449.333 69.0479 450.514 68.8447 451.402 68.5146C452.317 68.1592 453.116 67.626 453.802 66.915C454.614 66.1025 455.16 65.0742 455.44 63.8301C455.719 62.5859 455.859 60.6562 455.859 58.041V29.9717C455.859 27.3564 455.719 25.4268 455.44 24.1826C455.16 22.9385 454.614 21.9102 453.802 21.0977C453.116 20.3613 452.317 19.8281 451.402 19.498C450.488 19.168 449.308 18.9648 447.86 18.8887V18.0127H466.218C469.29 18.0127 471.309 18.0254 472.274 18.0508C476.209 18.2285 479.294 18.7617 481.528 19.6504C484.042 20.666 485.984 22.1895 487.356 24.2207C488.752 26.2266 489.45 28.5625 489.45 31.2285C489.45 35.1895 487.952 38.3633 484.956 40.75C484.042 41.4609 483.026 42.0449 481.909 42.502C480.818 42.959 479.345 43.3906 477.491 43.7969C479.015 44.4316 480.145 45.0918 480.881 45.7773C481.465 46.3105 481.998 46.9834 482.481 47.7959C482.963 48.583 483.687 49.9922 484.651 52.0234C486.911 56.6699 488.612 60.0723 489.755 62.2305C490.923 64.3633 491.901 65.9121 492.688 66.877C493.322 67.6641 493.932 68.21 494.516 68.5146C495.125 68.8193 495.95 69.0225 496.991 69.124V70H484.347C483.712 68.6035 483.306 67.7148 483.128 67.334L480.462 61.2783C478.862 57.6475 477.25 54.4355 475.625 51.6426C474 48.875 472.515 46.9834 471.169 45.9678C470.484 45.46 469.747 45.1045 468.96 44.9014C468.173 44.6729 467.208 44.5586 466.066 44.5586H464.199ZM464.199 43.7207H465.647C468.795 43.7207 471.042 43.543 472.388 43.1875C473.759 42.832 475.041 42.0957 476.234 40.9785C478.901 38.4395 480.234 35.291 480.234 31.5332C480.234 29.5273 479.84 27.6484 479.053 25.8965C478.291 24.1191 477.225 22.6592 475.854 21.5166C474.787 20.6533 473.518 20.0566 472.045 19.7266C470.572 19.3711 468.478 19.1934 465.761 19.1934H464.199V43.7207ZM509.998 70V69.124C511.446 69.0479 512.626 68.8447 513.54 68.5146C514.454 68.1846 515.267 67.6514 515.978 66.915C516.765 66.1025 517.298 65.0742 517.578 63.8301C517.857 62.5859 517.996 60.6562 517.996 58.041L518.035 50.6143C518.035 49.5479 517.819 48.3672 517.387 47.0723C516.905 45.5742 515.914 43.6953 514.416 41.4355L504.552 26.6201L502.8 23.9541C501.505 22.0244 500.236 20.7041 498.992 19.9932C498.357 19.6123 497.722 19.3457 497.087 19.1934C496.453 19.041 495.564 18.9395 494.421 18.8887V18.0127H519.253V18.8887C517.146 19.0156 515.8 19.2061 515.216 19.46C513.794 20.0693 513.083 21.1738 513.083 22.7734C513.083 23.3574 513.236 24.0176 513.54 24.7539C513.871 25.4902 514.391 26.417 515.102 27.5342L525.423 43.6826L534.259 29.8955L535.249 28.334C536.189 26.8613 536.659 25.4141 536.659 23.9922C536.659 22.3672 536.138 21.1104 535.097 20.2217C534.056 19.333 532.596 18.8887 530.717 18.8887V18.0127H548.237V18.8887C546.916 19.041 545.901 19.2695 545.19 19.5742C544.479 19.8535 543.755 20.3232 543.019 20.9834C541.292 22.6084 539.375 25.0332 537.268 28.2578L528.584 41.5117C527.543 43.0859 526.909 44.2412 526.68 44.9775C526.452 45.7139 526.337 46.958 526.337 48.71V58.041C526.337 60.7578 526.464 62.7129 526.718 63.9062C526.997 65.0742 527.543 66.0771 528.356 66.915C529.752 68.3877 531.746 69.124 534.335 69.124V70H509.998Z" fill="#3C4A3E" fill-opacity="0.6"/>
<line x1="1200" y1="50.5" x2="597" y2="50.5" stroke="#3C4A3E" stroke-opacity="0.1"/>
</svg>
