<svg width="1202" height="100" viewBox="0 0 1202 100" fill="none" xmlns="http://www.w3.org/2000/svg">
<path d="M0 18.0127H23.9561V18.8887C21.7217 18.8887 20.1982 19.0537 19.3857 19.3838C18.7002 19.6885 18.1416 20.1836 17.71 20.8691C17.2783 21.5547 17.0625 22.3291 17.0625 23.1924C17.0625 24.2588 17.4688 25.7314 18.2812 27.6104L19.2715 29.9717L31.1162 58.917L39.3809 33.9707C40.4473 30.7715 40.9805 28.3848 40.9805 26.8105C40.9805 25.6426 40.7646 24.5127 40.333 23.4209C39.9268 22.3037 39.3809 21.4023 38.6953 20.7168C38.0352 20.0566 37.2734 19.5869 36.4102 19.3076C35.5723 19.0283 34.4932 18.8887 33.1729 18.8887V18.0127H57.6621V18.8887C56.1641 18.8887 55.0723 18.9395 54.3867 19.041C53.7266 19.1426 53.1045 19.3584 52.5205 19.6885C51.7588 20.1455 51.1367 20.8057 50.6543 21.6689C50.1973 22.5068 49.9688 23.4209 49.9688 24.4111C49.9688 25.3252 50.3242 26.9121 51.0352 29.1719L60.4043 59.374L70.8779 33.666C72.5029 29.7305 73.3154 26.6836 73.3154 24.5254C73.3154 22.2656 72.5664 20.666 71.0684 19.7266C70.1543 19.168 68.7705 18.8887 66.917 18.8887V18.0127H84.5508V18.8887C82.8496 19.0664 81.5547 19.3965 80.666 19.8789C79.8027 20.3359 78.9395 21.1865 78.0762 22.4307C76.8066 24.208 75.2197 27.4199 73.3154 32.0664L57.6621 70H56.1006L42.542 29.4385L28.793 70H27.0791L10.0547 29.0195L8.91211 26.2393C8.125 24.3604 7.46484 23.002 6.93164 22.1641C6.39844 21.3262 5.75098 20.666 4.98926 20.1836C4.37988 19.7773 3.71973 19.4854 3.00879 19.3076C2.29785 19.1299 1.29492 18.9902 0 18.8887V18.0127ZM94.8538 16.4893V42.5781C95.7425 41.4863 96.5296 40.6357 97.2151 40.0264C97.9007 39.417 98.7259 38.8838 99.6907 38.4268C101.544 37.5127 103.652 37.0557 106.013 37.0557C109.009 37.0557 111.485 37.6523 113.44 38.8457C114.836 39.7344 115.788 40.8262 116.296 42.1211C116.829 43.3906 117.096 45.3076 117.096 47.8721V58.9932L117.134 61.8877C117.134 63.6143 117.236 64.8838 117.439 65.6963C117.642 66.4834 118.035 67.1436 118.619 67.6768C119.33 68.3623 120.638 68.8828 122.542 69.2383V70H105.746V69.2383C107.092 69.0605 108.044 68.8447 108.603 68.5908C109.187 68.3369 109.707 67.9053 110.164 67.2959C110.621 66.6611 110.939 65.7979 111.116 64.7061C111.294 63.6143 111.383 62.002 111.383 59.8691V47.7959C111.383 45.9678 111.243 44.5205 110.964 43.4541C110.685 42.3877 110.215 41.4609 109.555 40.6738C108.26 39.1758 106.432 38.4268 104.071 38.4268C97.9261 38.4268 94.8538 43.2764 94.8538 52.9756V59.0693L94.8919 61.8877C94.8919 63.6143 94.9934 64.8838 95.1966 65.6963C95.3997 66.4834 95.7932 67.1436 96.3772 67.6768C97.0882 68.3623 98.3958 68.8828 100.3 69.2383V70H83.5042V69.2383C85.0276 69.0352 86.1194 68.7559 86.7796 68.4004C87.4397 68.0195 87.9729 67.3848 88.3792 66.4961C88.6585 65.9121 88.8489 65.0361 88.9505 63.8682C89.0774 62.6748 89.1409 60.9609 89.1409 58.7266V28.8291C89.1409 26.2393 89.0774 24.4111 88.9505 23.3447C88.8235 22.2783 88.5442 21.415 88.1126 20.7549C87.6809 20.0439 87.1604 19.5361 86.5511 19.2314C85.9417 18.9268 85.0657 18.7363 83.9231 18.6602V17.8604L94.8538 16.4893ZM156.192 66.3057L156.839 66.6865C155.925 69.3525 153.831 70.6855 150.555 70.6855C148.753 70.6855 147.254 70.2412 146.061 69.3525C145.274 68.7686 144.461 67.7529 143.624 66.3057C141.922 67.8291 140.64 68.832 139.777 69.3145C138.127 70.2285 136.21 70.6855 134.026 70.6855C131.233 70.6855 129.011 70.0127 127.361 68.667C125.736 67.3213 124.923 65.5059 124.923 63.2207C124.923 61.1133 125.596 59.3486 126.942 57.9268C127.704 57.1396 128.58 56.5176 129.57 56.0605C130.56 55.5781 131.995 55.0957 133.874 54.6133C136.083 54.0547 137.708 53.585 138.749 53.2041C139.815 52.8232 140.704 52.3662 141.415 51.833C142.227 51.249 142.786 50.5635 143.09 49.7764C143.395 48.9893 143.547 47.8975 143.547 46.501C143.547 43.5303 142.989 41.3594 141.872 39.9883C141.364 39.3535 140.704 38.8457 139.891 38.4648C139.104 38.084 138.279 37.8936 137.416 37.8936C136.375 37.8936 135.448 38.1602 134.635 38.6934C133.823 39.2266 133.213 39.9629 132.807 40.9023L131.855 43.1113C131.347 44.3047 130.433 44.9014 129.113 44.9014C128.25 44.9014 127.526 44.6221 126.942 44.0635C126.358 43.4795 126.066 42.7559 126.066 41.8926C126.066 40.5977 126.98 39.5059 128.808 38.6172C129.798 38.1602 131.017 37.792 132.464 37.5127C133.937 37.208 135.372 37.0557 136.768 37.0557C138.342 37.0557 139.98 37.2588 141.681 37.665C143.382 38.0713 144.804 38.5918 145.947 39.2266C147.597 40.166 148.626 41.3848 149.032 42.8828C149.235 43.6445 149.336 44.9268 149.336 46.7295V60.8213C149.336 63.208 149.438 64.833 149.641 65.6963C150.073 67.499 151.114 68.4004 152.764 68.4004C153.551 68.4004 154.161 68.2607 154.592 67.9814C155.049 67.7021 155.583 67.1436 156.192 66.3057ZM143.624 51.2998C142.253 52.4424 140.742 53.4453 139.091 54.3086C137.238 55.2988 135.956 56.0479 135.245 56.5557C134.534 57.0635 133.886 57.6729 133.302 58.3838C132.109 59.8564 131.512 61.5703 131.512 63.5254C131.512 65.2012 131.969 66.585 132.883 67.6768C133.823 68.7686 135.003 69.3145 136.425 69.3145C137.669 69.3145 138.837 68.9336 139.929 68.1719C141.046 67.3848 141.884 66.3438 142.443 65.0488C143.23 63.3477 143.624 60.8848 143.624 57.6602V51.2998ZM165.962 37.627H175.674V39.0742H165.962V61.2402C165.962 63.9062 166.419 65.8105 167.333 66.9531C167.815 67.5879 168.45 68.083 169.237 68.4385C170.024 68.7939 170.875 68.9717 171.789 68.9717C172.931 68.9717 173.884 68.7432 174.645 68.2861C175.407 67.8037 176.245 66.9404 177.159 65.6963L177.73 66.1914C176.892 67.7148 175.712 68.8447 174.188 69.5811C172.69 70.3174 170.811 70.6855 168.552 70.6855C165.556 70.6855 163.372 70.1016 162.001 68.9336C161.264 68.3242 160.782 67.6006 160.554 66.7627C160.325 65.8994 160.211 64.3633 160.211 62.1543V39.0742H156.136V38.4648C157.786 37.9316 159.309 36.9033 160.706 35.3799C161.544 34.4404 162.217 33.5137 162.724 32.5996C163.232 31.6602 163.715 30.4541 164.172 28.9814L164.553 27.7246H165.962V37.627ZM207.705 16.7178L208.086 17.5176C206.411 18.1777 205.09 18.8887 204.125 19.6504C203.186 20.4121 202.361 21.4023 201.65 22.6211C200.609 24.4238 199.999 26.1885 199.822 27.915C200.533 27.6865 201.142 27.5723 201.65 27.5723C203.046 27.5723 204.176 27.9912 205.039 28.8291C205.928 29.667 206.372 30.7334 206.372 32.0283C206.372 33.3232 205.928 34.4277 205.039 35.3418C204.176 36.2305 203.122 36.6748 201.878 36.6748C200.355 36.6748 199.123 36.0654 198.184 34.8467C197.245 33.6279 196.775 32.0283 196.775 30.0479C196.775 28.0674 197.245 26.0996 198.184 24.1445C199.149 22.1895 200.406 20.5898 201.954 19.3457C203.63 18.0254 205.547 17.1494 207.705 16.7178ZM214.771 70V59.2217H215.381C216.091 61.8623 216.98 63.9697 218.047 65.5439C220.002 68.4131 222.287 69.8477 224.902 69.8477C226.502 69.8477 227.885 69.3652 229.053 68.4004C230.323 67.334 230.958 65.8232 230.958 63.8682C230.958 62.2686 230.501 60.8721 229.587 59.6787C229.079 59.0439 228.431 58.46 227.644 57.9268C226.883 57.3936 225.588 56.6445 223.759 55.6797C220.56 53.9785 218.427 52.5566 217.361 51.4141C215.838 49.7891 215.076 47.9102 215.076 45.7773C215.076 43.4922 215.838 41.5244 217.361 39.874C219.113 37.9951 221.436 37.0557 224.331 37.0557C225.626 37.0557 226.832 37.2842 227.949 37.7412L229.244 38.3125C229.65 38.4648 230.006 38.541 230.31 38.541C230.793 38.541 231.25 38.1602 231.681 37.3984H232.443L232.862 46.0439H232.062C231.783 44.8252 231.478 43.8477 231.148 43.1113C230.843 42.375 230.399 41.6641 229.815 40.9785C229.028 40.0137 228.114 39.2646 227.073 38.7314C226.032 38.1729 225.004 37.8936 223.988 37.8936C222.566 37.8936 221.347 38.4141 220.332 39.4551C219.341 40.4707 218.846 41.7275 218.846 43.2256C218.846 44.4697 219.291 45.5996 220.179 46.6152C221.093 47.6055 222.49 48.5195 224.369 49.3574L228.406 51.1855C230.818 52.2773 232.621 53.6357 233.814 55.2607C235.008 56.8857 235.604 58.8027 235.604 61.0117C235.604 63.6777 234.741 65.8867 233.014 67.6387C231.034 69.6699 228.495 70.6855 225.397 70.6855C223.721 70.6855 222.02 70.3555 220.294 69.6953C219.176 69.2637 218.504 69.0225 218.275 68.9717C218.047 68.8955 217.755 68.8574 217.399 68.8574C216.51 68.8574 215.838 69.2383 215.381 70H214.771ZM267.484 37.627H277.196V39.0742H267.484V61.2402C267.484 63.9062 267.941 65.8105 268.855 66.9531C269.337 67.5879 269.972 68.083 270.759 68.4385C271.546 68.7939 272.397 68.9717 273.311 68.9717C274.453 68.9717 275.406 68.7432 276.167 68.2861C276.929 67.8037 277.767 66.9404 278.681 65.6963L279.252 66.1914C278.414 67.7148 277.234 68.8447 275.71 69.5811C274.212 70.3174 272.333 70.6855 270.073 70.6855C267.077 70.6855 264.894 70.1016 263.523 68.9336C262.786 68.3242 262.304 67.6006 262.075 66.7627C261.847 65.8994 261.733 64.3633 261.733 62.1543V39.0742H257.657V38.4648C259.308 37.9316 260.831 36.9033 262.228 35.3799C263.066 34.4404 263.739 33.5137 264.246 32.5996C264.754 31.6602 265.237 30.4541 265.694 28.9814L266.074 27.7246H267.484V37.627ZM288.489 16.4893V42.5781C289.377 41.4863 290.165 40.6357 290.85 40.0264C291.536 39.417 292.361 38.8838 293.326 38.4268C295.179 37.5127 297.287 37.0557 299.648 37.0557C302.644 37.0557 305.12 37.6523 307.075 38.8457C308.471 39.7344 309.423 40.8262 309.931 42.1211C310.464 43.3906 310.731 45.3076 310.731 47.8721V58.9932L310.769 61.8877C310.769 63.6143 310.871 64.8838 311.074 65.6963C311.277 66.4834 311.67 67.1436 312.254 67.6768C312.965 68.3623 314.273 68.8828 316.177 69.2383V70H299.381V69.2383C300.727 69.0605 301.679 68.8447 302.238 68.5908C302.822 68.3369 303.342 67.9053 303.799 67.2959C304.256 66.6611 304.574 65.7979 304.751 64.7061C304.929 63.6143 305.018 62.002 305.018 59.8691V47.7959C305.018 45.9678 304.878 44.5205 304.599 43.4541C304.32 42.3877 303.85 41.4609 303.19 40.6738C301.895 39.1758 300.067 38.4268 297.706 38.4268C291.561 38.4268 288.489 43.2764 288.489 52.9756V59.0693L288.527 61.8877C288.527 63.6143 288.628 64.8838 288.832 65.6963C289.035 66.4834 289.428 67.1436 290.012 67.6768C290.723 68.3623 292.031 68.8828 293.935 69.2383V70H277.139V69.2383C278.663 69.0352 279.754 68.7559 280.415 68.4004C281.075 68.0195 281.608 67.3848 282.014 66.4961C282.293 65.9121 282.484 65.0361 282.585 63.8682C282.712 62.6748 282.776 60.9609 282.776 58.7266V28.8291C282.776 26.2393 282.712 24.4111 282.585 23.3447C282.459 22.2783 282.179 21.415 281.748 20.7549C281.316 20.0439 280.795 19.5361 280.186 19.2314C279.577 18.9268 278.701 18.7363 277.558 18.6602V17.8604L288.489 16.4893ZM325.3 49.2812C325.198 50.5254 325.147 51.4268 325.147 51.9854C325.147 54.1943 325.465 56.3525 326.099 58.46C326.76 60.5674 327.648 62.3193 328.765 63.7158C329.908 65.1377 331.317 66.2549 332.993 67.0674C334.694 67.8799 336.471 68.2861 338.325 68.2861C339.696 68.2861 340.991 68.0576 342.21 67.6006C343.454 67.1436 344.482 66.5088 345.295 65.6963C346.209 64.8076 346.996 63.3857 347.656 61.4307L348.418 61.6973C347.758 64.668 346.336 66.915 344.152 68.4385C341.994 69.9365 339.112 70.6855 335.507 70.6855C332.384 70.6855 329.705 70.1904 327.471 69.2002C325.236 68.21 323.345 66.6865 321.796 64.6299C319.638 61.7607 318.558 58.2314 318.558 54.042C318.558 48.3291 320.602 43.8477 324.69 40.5977C327.661 38.2363 331.051 37.0557 334.859 37.0557C336.89 37.0557 338.769 37.4238 340.496 38.1602C342.222 38.8711 343.682 39.9121 344.876 41.2832C346.729 43.416 347.656 46.082 347.656 49.2812H325.3ZM341.981 47.7959C341.804 45.2568 341.334 43.3018 340.572 41.9307C339.887 40.6865 338.972 39.709 337.83 38.998C336.687 38.2617 335.469 37.8936 334.174 37.8936C331.99 37.8936 330.073 38.833 328.423 40.7119C326.798 42.5908 325.833 44.9521 325.528 47.7959H341.981ZM424.248 70H399.226V69.124C401.486 68.9209 403.06 68.54 403.949 67.9814C405.523 66.9912 406.31 65.6201 406.31 63.8682C406.31 62.8271 405.954 61.4307 405.244 59.6787L404.596 58.0791L400.94 49.0908H384.182L382.202 54.3467L381.249 56.708C380.107 59.501 379.536 61.6973 379.536 63.2969C379.536 64.2363 379.739 65.1123 380.145 65.9248C380.577 66.7373 381.148 67.3975 381.859 67.9053C382.849 68.5908 384.119 68.9971 385.667 69.124V70H368.605V69.124C369.951 69.0479 371.131 68.7178 372.147 68.1338C373.162 67.5498 374.153 66.6104 375.118 65.3154C375.93 64.2744 376.717 62.9414 377.479 61.3164C378.266 59.666 379.294 57.2031 380.564 53.9277L394.503 18.0127H396.674L413.242 58.041C414.486 61.0625 415.476 63.2207 416.212 64.5156C416.949 65.8105 417.748 66.7881 418.612 67.4482C419.221 67.9053 419.919 68.2607 420.706 68.5146C421.494 68.7432 422.674 68.9463 424.248 69.124V70ZM400.33 47.5293L392.332 27.8008L384.791 47.5293H400.33ZM434.094 24.9062V58.041C434.094 60.6562 434.234 62.5859 434.513 63.8301C434.818 65.0742 435.364 66.1025 436.151 66.915C436.862 67.6514 437.662 68.1846 438.55 68.5146C439.464 68.8447 440.645 69.0479 442.092 69.124V70H424.535V69.124C425.982 69.0479 427.15 68.8447 428.039 68.5146C428.953 68.1846 429.765 67.6514 430.476 66.915C431.263 66.1025 431.797 65.0742 432.076 63.8301C432.38 62.5605 432.533 60.6309 432.533 58.041V29.9336C432.533 27.3691 432.38 25.4648 432.076 24.2207C431.797 22.9512 431.263 21.9102 430.476 21.0977C429.791 20.3613 428.991 19.8281 428.077 19.498C427.188 19.168 426.007 18.9648 424.535 18.8887V18.0127H439.198L470.124 57.4697V29.9717C470.124 27.3564 469.971 25.4268 469.667 24.1826C469.387 22.9385 468.854 21.9102 468.067 21.0977C467.356 20.3613 466.544 19.8281 465.63 19.498C464.741 19.168 463.573 18.9648 462.126 18.8887V18.0127H479.683V18.8887C477.144 18.8887 475.164 19.625 473.742 21.0977C472.955 21.9102 472.409 22.9512 472.104 24.2207C471.825 25.4648 471.685 27.3691 471.685 29.9336V70H469.971L434.094 24.9062ZM507.049 18.0127V18.8887C505.601 18.9648 504.421 19.168 503.507 19.498C502.618 19.8281 501.818 20.3613 501.107 21.0977C500.117 22.1133 499.508 23.5225 499.279 25.3252C499.127 26.6709 499.051 28.2197 499.051 29.9717V58.041C499.051 60.1484 499.152 61.8115 499.355 63.0303C499.559 64.249 499.889 65.2266 500.346 65.9629C501.006 66.9785 501.856 67.7402 502.897 68.248C503.938 68.7305 505.322 69.0225 507.049 69.124V70H482.712V69.124C484.184 69.0479 485.365 68.8447 486.254 68.5146C487.168 68.1592 487.968 67.626 488.653 66.915C489.466 66.1025 490.012 65.0742 490.291 63.8301C490.57 62.5859 490.71 60.6562 490.71 58.041V29.9717C490.71 27.3564 490.57 25.4268 490.291 24.1826C490.012 22.9385 489.466 21.9102 488.653 21.0977C487.968 20.3613 487.168 19.8281 486.254 19.498C485.34 19.168 484.159 18.9648 482.712 18.8887V18.0127H507.049ZM575.814 18.8887C574.366 18.9648 573.198 19.168 572.31 19.498C571.446 19.8027 570.647 20.3232 569.91 21.0596C569.352 21.5928 568.933 22.1895 568.654 22.8496C568.374 23.4844 568.184 24.2969 568.082 25.2871C567.904 26.6074 567.816 28.1689 567.816 29.9717V58.041C567.816 60.6562 567.968 62.5986 568.273 63.8682C568.577 65.1377 569.123 66.1533 569.91 66.915C571.307 68.2607 573.275 68.9971 575.814 69.124V70H551.477V69.124C552.949 69.0479 554.13 68.8447 555.019 68.5146C555.933 68.1592 556.745 67.626 557.456 66.915C558.243 66.1025 558.777 65.0742 559.056 63.8301C559.361 62.5605 559.513 60.6309 559.513 58.041V23.9922L539.899 70H539.099L519.599 24.6777V58.041C519.599 60.6562 519.738 62.5859 520.018 63.8301C520.322 65.0742 520.868 66.1025 521.655 66.915C522.366 67.6514 523.166 68.1846 524.055 68.5146C524.969 68.8447 526.15 69.0479 527.597 69.124V70H510.039V69.124C511.487 69.0479 512.654 68.8447 513.543 68.5146C514.457 68.1846 515.27 67.6514 515.981 66.915C516.768 66.1025 517.301 65.0742 517.58 63.8301C517.885 62.5605 518.037 60.6309 518.037 58.041V29.9717C518.037 28.8037 517.999 27.6992 517.923 26.6582C517.796 24.7793 517.504 23.4082 517.047 22.5449C516.412 21.3516 515.536 20.4756 514.419 19.917C513.327 19.333 511.867 18.9902 510.039 18.8887V18.0127H526.569L543.06 58.7266L560.16 18.0127H575.814V18.8887ZM580.594 44.3682C580.594 40.1025 581.508 36.1543 583.336 32.5234C585.165 28.8672 587.831 25.6807 591.334 22.9639C593.95 20.958 596.768 19.4219 599.79 18.3555C602.811 17.2637 605.858 16.7178 608.93 16.7178C612.84 16.7178 616.624 17.5811 620.28 19.3076C623.936 21.0088 627.135 23.4209 629.877 26.5439C634.346 31.6221 636.581 37.3984 636.581 43.873C636.581 47.123 635.997 50.2588 634.829 53.2803C633.661 56.3018 631.959 59.0566 629.725 61.5449C626.983 64.6426 623.733 67.042 619.975 68.7432C616.243 70.4443 612.333 71.2949 608.245 71.2949C604.208 71.2949 600.348 70.4697 596.667 68.8193C592.985 67.1689 589.811 64.833 587.145 61.8115C585.038 59.4502 583.413 56.7715 582.27 53.7754C581.153 50.7539 580.594 47.6182 580.594 44.3682ZM589.811 44.9395C589.811 52.3027 591.817 58.5107 595.829 63.5635C597.631 65.8232 599.536 67.4736 601.542 68.5146C603.573 69.5303 605.909 70.0381 608.549 70.0381C611.215 70.0381 613.551 69.5303 615.557 68.5146C617.588 67.499 619.518 65.8486 621.346 63.5635C625.358 58.4854 627.364 52.2266 627.364 44.7871C627.364 40.6992 626.805 36.8398 625.688 33.209C624.596 29.5527 623.047 26.4551 621.042 23.916C619.417 21.834 617.601 20.3232 615.595 19.3838C613.615 18.4189 611.266 17.9365 608.549 17.9365C605.858 17.9365 603.522 18.4062 601.542 19.3457C599.586 20.2852 597.771 21.8086 596.095 23.916C594.089 26.4297 592.541 29.5146 591.449 33.1709C590.357 36.8271 589.811 40.75 589.811 44.9395ZM657.662 44.5586V58.041C657.662 60.6309 657.802 62.5605 658.081 63.8301C658.385 65.0742 658.931 66.1025 659.719 66.915C660.404 67.626 661.191 68.1592 662.08 68.5146C662.994 68.8447 664.187 69.0479 665.66 69.124V70H641.323V69.124C642.796 69.0479 643.976 68.8447 644.865 68.5146C645.779 68.1592 646.579 67.626 647.264 66.915C648.077 66.1025 648.623 65.0742 648.902 63.8301C649.181 62.5859 649.321 60.6562 649.321 58.041V29.9717C649.321 27.3564 649.181 25.4268 648.902 24.1826C648.623 22.9385 648.077 21.9102 647.264 21.0977C646.579 20.3613 645.779 19.8281 644.865 19.498C643.951 19.168 642.77 18.9648 641.323 18.8887V18.0127H659.68C662.753 18.0127 664.771 18.0254 665.736 18.0508C669.672 18.2285 672.757 18.7617 674.991 19.6504C677.505 20.666 679.447 22.1895 680.818 24.2207C682.215 26.2266 682.913 28.5625 682.913 31.2285C682.913 35.1895 681.415 38.3633 678.419 40.75C677.505 41.4609 676.489 42.0449 675.372 42.502C674.28 42.959 672.807 43.3906 670.954 43.7969C672.477 44.4316 673.607 45.0918 674.344 45.7773C674.927 46.3105 675.461 46.9834 675.943 47.7959C676.426 48.583 677.149 49.9922 678.114 52.0234C680.374 56.6699 682.075 60.0723 683.218 62.2305C684.385 64.3633 685.363 65.9121 686.15 66.877C686.785 67.6641 687.394 68.21 687.978 68.5146C688.588 68.8193 689.413 69.0225 690.454 69.124V70H677.809C677.175 68.6035 676.768 67.7148 676.591 67.334L673.925 61.2783C672.325 57.6475 670.713 54.4355 669.088 51.6426C667.463 48.875 665.977 46.9834 664.632 45.9678C663.946 45.46 663.21 45.1045 662.423 44.9014C661.635 44.6729 660.671 44.5586 659.528 44.5586H657.662ZM657.662 43.7207H659.109C662.258 43.7207 664.505 43.543 665.85 43.1875C667.221 42.832 668.504 42.0957 669.697 40.9785C672.363 38.4395 673.696 35.291 673.696 31.5332C673.696 29.5273 673.302 27.6484 672.515 25.8965C671.754 24.1191 670.687 22.6592 669.316 21.5166C668.25 20.6533 666.98 20.0566 665.508 19.7266C664.035 19.3711 661.94 19.1934 659.223 19.1934H657.662V43.7207ZM744.061 70H719.038V69.124C721.298 68.9209 722.872 68.54 723.761 67.9814C725.335 66.9912 726.122 65.6201 726.122 63.8682C726.122 62.8271 725.767 61.4307 725.056 59.6787L724.408 58.0791L720.752 49.0908H703.994L702.014 54.3467L701.062 56.708C699.919 59.501 699.348 61.6973 699.348 63.2969C699.348 64.2363 699.551 65.1123 699.957 65.9248C700.389 66.7373 700.96 67.3975 701.671 67.9053C702.661 68.5908 703.931 68.9971 705.48 69.124V70H688.417V69.124C689.763 69.0479 690.943 68.7178 691.959 68.1338C692.975 67.5498 693.965 66.6104 694.93 65.3154C695.742 64.2744 696.529 62.9414 697.291 61.3164C698.078 59.666 699.107 57.2031 700.376 53.9277L714.315 18.0127H716.486L733.054 58.041C734.298 61.0625 735.288 63.2207 736.024 64.5156C736.761 65.8105 737.561 66.7881 738.424 67.4482C739.033 67.9053 739.732 68.2607 740.519 68.5146C741.306 68.7432 742.486 68.9463 744.061 69.124V70ZM720.143 47.5293L712.145 27.8008L704.604 47.5293H720.143Z" fill="#3C4A3E" fill-opacity="0.6"/>
<line x1="776.2" y1="49" x2="1201.29" y2="49" stroke="#3C4A3E" stroke-opacity="0.1" stroke-width="2"/>
</svg>
