<svg width="221" height="64" viewBox="0 0 221 64" fill="currentColor" xmlns="http://www.w3.org/2000/svg">
<path d="M3.91049 35.7998C3.13715 35.7998 2.48382 35.6398 1.95049 35.3198C1.23049 34.9198 0.870487 34.2931 0.870487 33.4398C0.870487 32.6931 1.11049 32.0265 1.59049 31.4398C2.12382 30.8265 2.73715 30.5198 3.43049 30.5198C3.93715 30.5198 4.37715 30.7065 4.75049 31.0798C5.07049 31.4531 5.23049 31.8265 5.23049 32.1998C5.23049 32.8665 4.97715 33.4131 4.47049 33.8398C4.04382 34.2398 3.56382 34.4398 3.03049 34.4398C2.52382 34.4398 2.08382 34.2531 1.71049 33.8798C1.87049 34.4665 2.41715 34.7598 3.35049 34.7598C4.76382 34.7598 6.44382 33.8131 8.39049 31.9198C9.11049 31.2265 9.88382 30.3865 10.7105 29.3998C11.5105 28.4398 12.3505 27.3198 13.2305 26.0398C13.8172 25.1865 14.3905 24.3465 14.9505 23.5198C15.5105 22.6665 16.0838 21.8131 16.6705 20.9598C14.7238 17.9731 13.7505 15.1598 13.7505 12.5198C13.7505 10.9998 14.0972 9.77312 14.7905 8.83978C15.5105 7.90645 16.4305 7.43979 17.5505 7.43979C19.6305 7.43979 21.8038 8.87978 24.0705 11.7598C26.6305 9.11978 29.2438 6.87979 31.9105 5.03978C35.4838 2.55978 38.4305 1.31978 40.7505 1.31978C41.6838 1.31978 42.1505 1.51978 42.1505 1.91978C42.1505 2.02645 42.1105 2.15978 42.0305 2.31978C36.0305 13.0665 32.6705 20.3598 31.9505 24.1998C31.8972 24.5731 31.8438 24.9198 31.7905 25.2398C31.7638 25.5598 31.7505 25.8531 31.7505 26.1198C31.7505 27.7998 32.4305 28.6398 33.7905 28.6398C35.1772 28.6398 37.1238 26.0265 39.6305 20.7998C39.7372 20.5331 39.8838 20.3731 40.0705 20.3198H40.1105C40.2172 20.3198 40.2705 20.4131 40.2705 20.5998C40.2705 20.7598 40.2038 20.9731 40.0705 21.2398C39.3238 22.7331 38.7238 23.9198 38.2705 24.7998C37.8438 25.6798 37.5505 26.2398 37.3905 26.4798C36.6438 27.6531 35.8972 28.5198 35.1505 29.0798C34.4038 29.6398 33.6705 29.9198 32.9505 29.9198C32.0438 29.9198 31.1772 29.5731 30.3505 28.8798C29.3105 27.9731 28.7372 26.7065 28.6305 25.0798C27.9105 20.7065 26.3238 16.9731 23.8705 13.8798C23.0172 14.7865 22.1105 15.8398 21.1505 17.0398C20.2172 18.2398 19.2172 19.5865 18.1505 21.0798C19.3772 23.0265 20.7772 24.8265 22.3505 26.4798C23.9505 28.1331 25.7238 29.6265 27.6705 30.9598C27.8572 31.0665 27.9505 31.1998 27.9505 31.3598C27.9505 31.5731 27.8705 31.6798 27.7105 31.6798C27.6305 31.6798 27.5105 31.6398 27.3505 31.5598C26.6038 31.1065 25.8305 30.5598 25.0305 29.9198C24.2305 29.3065 23.3905 28.5865 22.5105 27.7598C21.5238 26.8531 20.6038 25.9331 19.7505 24.9998C18.9238 24.0398 18.1505 23.0665 17.4305 22.0798C15.6172 24.6398 14.1772 26.6531 13.1105 28.1198C12.0705 29.5865 11.4038 30.5065 11.1105 30.8798C8.92382 33.5998 7.04382 35.1598 5.47049 35.5598C4.96382 35.7198 4.44382 35.7998 3.91049 35.7998ZM28.9105 22.2398C29.0705 21.5465 29.2972 20.8265 29.5905 20.0798C29.9105 19.3065 30.2972 18.5198 30.7505 17.7198C33.0438 13.6398 35.3505 9.90645 37.6705 6.51978C37.9372 6.14645 38.0705 5.81312 38.0705 5.51978C38.0705 5.17312 37.8172 4.99978 37.3105 4.99978C35.7638 4.99978 33.5638 5.98645 30.7105 7.95978C29.5638 8.75978 28.5105 9.57312 27.5505 10.3998C26.5905 11.1998 25.6972 12.0131 24.8705 12.8398C26.6838 15.5598 28.0305 18.6931 28.9105 22.2398ZM17.4305 19.8798C18.4705 18.4665 19.4438 17.1731 20.3505 15.9998C21.2838 14.8265 22.1638 13.7865 22.9905 12.8798C21.3105 11.0931 19.8172 10.1998 18.5105 10.1998C17.7105 10.1998 17.0838 10.5598 16.6305 11.2798C16.1505 12.0265 15.9105 12.9865 15.9105 14.1598C15.9105 15.9998 16.4172 17.9065 17.4305 19.8798ZM37.4083 29.5598C37.9416 28.2531 38.6083 26.6398 39.4083 24.7198C40.2083 22.7998 41.1816 20.5865 42.3283 18.0798C42.5683 17.5465 42.795 17.1065 43.0083 16.7598C43.2216 16.4131 43.4216 16.1465 43.6083 15.9598C43.9816 15.5865 44.4616 15.3998 45.0483 15.3998C45.1016 15.3998 45.195 15.3998 45.3283 15.3998C45.4616 15.3998 45.6483 15.4265 45.8883 15.4798C46.2616 15.5065 46.5416 15.5065 46.7283 15.4798C45.7416 16.0665 44.2616 18.6531 42.2883 23.2398C42.6083 22.7865 43.035 22.2931 43.5683 21.7598C44.1283 21.1998 44.7816 20.5865 45.5283 19.9198C46.0083 19.4665 46.5416 19.0398 47.1283 18.6398C47.715 18.2131 48.355 17.8131 49.0483 17.4398C50.6216 16.5598 51.7816 16.1198 52.5283 16.1198C52.715 16.1198 52.8483 16.1331 52.9283 16.1598C52.5016 16.9065 52.1016 17.6265 51.7283 18.3198C51.3816 19.0131 51.0483 19.6665 50.7283 20.2798C49.1816 23.2665 48.315 25.3331 48.1283 26.4798C48.1016 26.6665 48.075 26.8398 48.0483 26.9998C48.0483 27.1598 48.0483 27.3065 48.0483 27.4398C48.0483 28.1331 48.3016 28.4798 48.8083 28.4798C49.635 28.4798 50.6216 27.6398 51.7683 25.9598L52.3283 26.3598C50.9683 28.4131 49.595 29.4398 48.2083 29.4398C46.5283 29.4398 45.6883 28.5731 45.6883 26.8398C45.6883 25.4265 46.555 23.3331 48.2883 20.5598C48.555 20.1331 48.6883 19.7731 48.6883 19.4798C48.6883 19.1598 48.5416 18.9998 48.2483 18.9998C47.955 18.9998 47.5683 19.1598 47.0883 19.4798C46.635 19.7731 46.0883 20.2131 45.4483 20.7998C44.435 21.7331 43.4883 22.8531 42.6083 24.1598C41.7283 25.4398 40.9283 26.9065 40.2083 28.5598C40.0483 28.9598 39.635 29.1998 38.9683 29.2798C38.115 29.3598 37.595 29.4531 37.4083 29.5598ZM59.7655 13.7998C58.8588 13.7998 58.4055 13.3598 58.4055 12.4798C58.4055 11.5998 58.8322 11.1598 59.6855 11.1598C60.5922 11.1598 61.0455 11.5998 61.0455 12.4798C61.0455 13.3598 60.6188 13.7998 59.7655 13.7998ZM54.3255 29.2798C53.5522 29.2798 53.1655 28.8931 53.1655 28.1198C53.1655 27.6398 53.3255 26.9865 53.6455 26.1598C54.3388 24.4531 54.9922 22.8798 55.6055 21.4398C56.2188 19.9998 56.7922 18.6931 57.3255 17.5198C57.4055 17.3865 57.4455 17.2398 57.4455 17.0798C57.4455 16.7065 57.2722 16.3065 56.9255 15.8798L59.1255 15.8398C59.8722 15.8398 60.2455 16.0265 60.2455 16.3998C60.2455 16.5065 60.2188 16.6265 60.1655 16.7598C60.1122 16.8665 60.0455 17.0265 59.9655 17.2398L56.2855 25.7598C55.9122 26.6398 55.7255 27.3865 55.7255 27.9998C55.7255 28.6398 55.9255 29.0665 56.3255 29.2798H54.3255ZM59.4005 29.5598C59.9338 28.2531 60.6005 26.6398 61.4005 24.7198C62.2005 22.7998 63.1738 20.5865 64.3205 18.0798C64.5605 17.5465 64.7872 17.1065 65.0005 16.7598C65.2138 16.4131 65.4138 16.1465 65.6005 15.9598C65.9738 15.5865 66.4538 15.3998 67.0405 15.3998C67.0938 15.3998 67.1872 15.3998 67.3205 15.3998C67.4538 15.3998 67.6405 15.4265 67.8805 15.4798C68.2538 15.5065 68.5338 15.5065 68.7205 15.4798C67.7338 16.0665 66.2538 18.6531 64.2805 23.2398C64.5738 22.8665 64.9472 22.3998 65.4005 21.8398C65.8538 21.2531 66.4405 20.6131 67.1605 19.9198C67.9072 19.1998 68.5205 18.6398 69.0005 18.2398C69.4805 17.8398 69.8138 17.5731 70.0005 17.4398C71.1738 16.5598 72.0405 16.1198 72.6005 16.1198C73.3738 16.1198 73.7605 16.4931 73.7605 17.2398C73.7605 17.4798 73.7072 17.7065 73.6005 17.9198C73.2805 18.5331 72.8672 19.3065 72.3605 20.2398C71.8805 21.1731 71.3205 22.2665 70.6805 23.5198C71.9605 21.9198 73.0672 20.7065 74.0005 19.8798C74.4805 19.4531 75.0138 19.0398 75.6005 18.6398C76.2138 18.2398 76.8672 17.8398 77.5605 17.4398C79.0805 16.5598 80.2272 16.1198 81.0005 16.1198C81.1872 16.1198 81.3205 16.1331 81.4005 16.1598C80.9738 16.9065 80.5738 17.6265 80.2005 18.3198C79.8538 19.0131 79.5205 19.6665 79.2005 20.2798C78.4538 21.7465 77.8672 22.9998 77.4405 24.0398C77.0138 25.0798 76.7338 25.8931 76.6005 26.4798C76.5738 26.6665 76.5472 26.8398 76.5205 26.9998C76.5205 27.1598 76.5205 27.3065 76.5205 27.4398C76.5205 28.1331 76.7738 28.4798 77.2805 28.4798C78.1072 28.4798 79.0938 27.6398 80.2405 25.9598L80.8005 26.3598C79.4405 28.4131 78.0805 29.4398 76.7205 29.4398C75.0405 29.4398 74.2005 28.5731 74.2005 26.8398C74.2005 25.3998 75.0538 23.3065 76.7605 20.5598C77.0272 20.1331 77.1605 19.7731 77.1605 19.4798C77.1605 19.1598 77.0272 18.9998 76.7605 18.9998C76.4672 18.9998 76.0805 19.1598 75.6005 19.4798C75.1205 19.7731 74.5738 20.1998 73.9605 20.7598C73.4538 21.2398 72.9205 21.8131 72.3605 22.4798C71.8272 23.1465 71.2538 23.9065 70.6405 24.7598C69.3072 26.7065 68.5205 28.2131 68.2805 29.2798C67.8272 29.2798 67.4805 29.0665 67.2405 28.6398C67.0538 28.2665 66.9605 27.8931 66.9605 27.5198C66.9605 26.9865 67.1472 26.2798 67.5205 25.3998C67.8938 24.5198 68.4138 23.4531 69.0805 22.1998C69.8538 20.8131 70.2405 19.8131 70.2405 19.1998C70.2405 18.9331 70.1338 18.7998 69.9205 18.7998C69.4938 18.7998 68.5472 19.4665 67.0805 20.7998C66.7072 21.1465 66.3072 21.5865 65.8805 22.1198C65.4805 22.6265 65.0538 23.2265 64.6005 23.9198C63.5605 25.4665 62.7605 27.0131 62.2005 28.5598C62.0405 28.9598 61.6272 29.1998 60.9605 29.2798C60.1072 29.3598 59.5872 29.4531 59.4005 29.5598ZM85.0021 29.2798C83.0554 29.2798 82.0821 28.0931 82.0821 25.7198C82.0821 24.5465 82.3621 23.3065 82.9221 21.9998C83.7221 20.1065 84.8554 18.5065 86.3221 17.1998C87.7621 15.9198 89.1221 15.2798 90.4021 15.2798C92.3754 15.2798 93.3621 16.4398 93.3621 18.7598C93.3621 19.9598 93.0687 21.2265 92.4821 22.5598C91.7887 24.1598 90.7887 25.6131 89.4821 26.9198C87.8554 28.4931 86.3621 29.2798 85.0021 29.2798ZM85.6421 28.3998C86.2554 28.3998 86.9087 28.1465 87.6021 27.6398C88.4821 26.9998 89.4821 25.6665 90.6021 23.6398C91.8287 21.4531 92.4421 19.6931 92.4421 18.3598C92.4421 17.1598 91.9354 16.5598 90.9221 16.5598C90.1221 16.5598 89.2154 17.0665 88.2021 18.0798C87.2154 19.0665 86.3754 20.3198 85.6821 21.8398C84.7487 23.8398 84.2821 25.4398 84.2821 26.6398C84.2821 27.8131 84.7354 28.3998 85.6421 28.3998ZM92.5646 29.5598C93.0712 28.2798 93.7379 26.6798 94.5646 24.7598C95.4179 22.8398 96.3779 20.6531 97.4446 18.1998C97.6579 17.6665 97.8579 17.2398 98.0446 16.9198C98.2579 16.5998 98.4446 16.3465 98.6046 16.1598C98.9512 15.7598 99.4179 15.5998 100.005 15.6798L100.845 15.7998C101.031 15.8265 101.191 15.8531 101.325 15.8798C101.485 15.8798 101.618 15.8665 101.725 15.8398C101.191 16.1065 100.565 16.8665 99.8446 18.1198C99.1512 19.3465 98.3779 21.0265 97.5246 23.1598C97.8179 22.7865 98.1912 22.2931 98.6446 21.6798C99.0979 21.0398 99.6712 20.3065 100.365 19.4798C101.138 18.5731 101.938 17.7331 102.765 16.9598C103.591 16.1865 104.391 15.7998 105.165 15.7998C105.778 15.7998 106.218 15.9998 106.485 16.3998C106.751 16.7998 106.885 17.2531 106.885 17.7598C106.885 18.3731 106.645 18.9198 106.165 19.3998C105.685 19.8798 105.218 20.1198 104.765 20.1198C104.578 20.1198 104.378 20.0798 104.165 19.9998C103.978 19.9198 103.885 19.7998 103.885 19.6398C103.885 19.5065 103.911 19.3865 103.965 19.2798C104.018 19.1465 104.045 18.9998 104.045 18.8398C104.045 18.4398 103.858 18.2398 103.485 18.2398C103.351 18.2398 103.165 18.2798 102.925 18.3598C102.711 18.4131 102.418 18.6265 102.045 18.9998C101.298 19.6931 100.485 20.5331 99.6046 21.5198C98.7512 22.4798 97.9379 23.5598 97.1646 24.7598C96.4179 25.9598 95.8046 27.2798 95.3246 28.7198C95.1912 29.1198 94.7912 29.3331 94.1246 29.3598C93.2179 29.4131 92.6979 29.4798 92.5646 29.5598ZM114.881 29.3598C114.295 29.3598 113.815 29.1865 113.441 28.8398C112.908 28.3865 112.641 27.6265 112.641 26.5598C112.641 25.8665 112.761 25.0798 113.001 24.1998C112.095 25.7198 111.148 26.9598 110.161 27.9198C109.148 28.8531 108.241 29.3198 107.441 29.3198C106.748 29.3198 106.201 29.0131 105.801 28.3998C105.375 27.8131 105.161 26.9998 105.161 25.9598C105.161 23.4265 106.295 20.8131 108.561 18.1198C108.935 17.6665 109.361 17.2531 109.841 16.8798C110.321 16.5065 110.841 16.1731 111.401 15.8798C112.548 15.2931 113.655 14.9998 114.721 14.9998C116.028 14.9998 117.068 15.4265 117.841 16.2798C118.028 16.4665 118.121 16.6798 118.121 16.9198C118.121 17.3731 117.881 17.5465 117.401 17.4398C117.135 16.4798 116.508 15.9998 115.521 15.9998C114.401 15.9998 113.081 16.7865 111.561 18.3598C111.028 18.9465 110.521 19.5598 110.041 20.1998C109.561 20.8131 109.108 21.4665 108.681 22.1598C107.535 24.0798 106.961 25.6398 106.961 26.8398C106.961 27.7465 107.308 28.1998 108.001 28.1998C108.775 28.1998 109.668 27.6131 110.681 26.4398C111.241 25.7998 111.815 25.0131 112.401 24.0798C112.988 23.1465 113.601 22.0665 114.241 20.8398C114.508 20.3331 114.748 19.9198 114.961 19.5998C115.175 19.2798 115.348 19.0398 115.481 18.8798C115.908 18.4531 116.415 18.2531 117.001 18.2798L117.801 18.3998C118.148 18.4798 118.441 18.4931 118.681 18.4398C118.441 18.6798 118.148 19.0665 117.801 19.5998C117.481 20.1065 117.108 20.7731 116.681 21.5998C116.228 22.4798 115.855 23.2798 115.561 23.9998C115.268 24.7198 115.068 25.3598 114.961 25.9198C114.908 26.1865 114.868 26.4398 114.841 26.6798C114.815 26.8931 114.801 27.0931 114.801 27.2798C114.801 27.9731 114.988 28.3198 115.361 28.3198C115.895 28.3198 116.628 27.7331 117.561 26.5598L117.721 26.3598L118.281 26.7198L118.121 26.9598C117.028 28.5598 115.948 29.3598 114.881 29.3598ZM129.667 31.5998C127.454 31.5998 126.32 30.7198 126.267 28.9598C126.267 28.2131 126.507 27.5465 126.987 26.9598C127.467 26.3465 128.054 26.0398 128.747 26.0398C129.254 26.0398 129.68 26.2531 130.027 26.6798C130.32 26.9998 130.467 27.3998 130.467 27.8798C130.467 29.1865 129.854 29.8398 128.627 29.8398C127.987 29.8398 127.534 29.5865 127.267 29.0798C127.4 30.0398 128.174 30.5198 129.587 30.5198C129.907 30.5198 130.2 30.4798 130.467 30.3998C133.587 29.5998 136.4 27.1465 138.907 23.0398L139.707 21.7198C138.24 19.6131 137.507 17.7598 137.507 16.1598C137.507 15.1198 137.814 14.3198 138.427 13.7598C139.014 13.1731 139.827 12.8798 140.867 12.8798C141.8 12.8798 142.867 13.1465 144.067 13.6798L146.107 9.71978C147.2 7.55978 148.254 5.89312 149.267 4.71978C150.494 3.25312 151.894 2.23978 153.467 1.67978C152.8 1.57312 152.094 1.50645 151.347 1.47978C150.627 1.42645 149.854 1.39978 149.027 1.39978C144.147 1.39978 140.68 1.99978 138.627 3.19978C137.96 3.59978 137.36 4.02645 136.827 4.47978C136.294 4.90645 135.84 5.34645 135.467 5.79978C134.72 6.73312 134.347 7.59978 134.347 8.39978C134.347 9.33312 134.894 9.90645 135.987 10.1198C136.36 10.1998 136.734 10.2398 137.107 10.2398C139.694 10.2398 142.094 9.17312 144.307 7.03978C144.414 6.93312 144.534 6.90645 144.667 6.95978C144.774 6.98645 144.827 7.06645 144.827 7.19978C144.827 7.27978 144.814 7.33312 144.787 7.35978C144.36 7.89312 143.84 8.38645 143.227 8.83978C142.614 9.29312 141.907 9.70645 141.107 10.0798C139.507 10.8265 137.96 11.1998 136.467 11.1998C135.294 11.1998 134.28 10.9331 133.427 10.3998C132.414 9.78645 131.907 8.93312 131.907 7.83978C131.907 6.85312 132.32 5.89312 133.147 4.95978C135.574 2.13312 140.44 0.719783 147.747 0.719783C148.92 0.719783 150.054 0.759784 151.147 0.839784C152.267 0.919785 153.36 1.05312 154.427 1.23978C155.36 0.999784 156.174 0.879784 156.867 0.879784C158.227 0.879784 158.907 1.21312 158.907 1.87978C158.907 2.19978 158.72 2.46645 158.347 2.67978C157.974 2.89312 157.534 2.99978 157.027 2.99978C156.734 2.99978 156.374 2.91978 155.947 2.75978C155.547 2.59978 155.067 2.34645 154.507 1.99978C153.227 2.47978 152.174 3.30645 151.347 4.47978C151.054 4.90645 150.734 5.50645 150.387 6.27978C150.04 7.05312 149.667 7.98645 149.267 9.07979C148.76 10.4398 148.294 11.6665 147.867 12.7598C147.467 13.8265 147.094 14.7465 146.747 15.5198C147.76 16.3465 148.68 17.3465 149.507 18.5198C150.174 19.4265 150.787 20.3465 151.347 21.2798C151.907 22.2131 152.44 23.1731 152.947 24.1598C153 21.4665 153.774 18.2931 155.267 14.6398C155.934 13.0398 156.654 11.5198 157.427 10.0798C158.227 8.63978 159.08 7.27978 159.987 5.99978C162.6 2.31978 165.147 0.319784 167.627 -0.000216961H167.827C168.014 -0.000216961 168.107 0.0664496 168.107 0.199783C168.107 0.38645 168.027 0.479784 167.867 0.479784C166.054 0.693118 164.16 2.39978 162.187 5.59978C161.307 7.01312 160.48 8.58645 159.707 10.3198C158.934 12.0531 158.227 13.9331 157.587 15.9598C156.307 19.9065 155.667 23.1331 155.667 25.6398C155.667 27.9065 156.214 29.0398 157.307 29.0398C158.027 29.0398 158.907 28.3731 159.947 27.0398C160.96 25.7598 162.16 23.6798 163.547 20.7998C163.654 20.5331 163.787 20.3731 163.947 20.3198H163.987C164.094 20.3198 164.147 20.4131 164.147 20.5998C164.147 20.7598 164.08 20.9731 163.947 21.2398C162.48 24.2265 161.587 25.9731 161.267 26.4798C159.96 28.5865 158.64 29.7198 157.307 29.8798C157.2 29.9065 157.107 29.9198 157.027 29.9198C156.947 29.9198 156.854 29.9198 156.747 29.9198C155.067 29.9198 153.907 28.9198 153.267 26.9198C153.16 26.5731 152.974 26.1465 152.707 25.6398C152.44 25.1065 152.08 24.4665 151.627 23.7198C151.12 22.8665 150.6 22.0798 150.067 21.3598C149.56 20.6131 149.04 19.9465 148.507 19.3598C148.107 18.9065 147.707 18.4931 147.307 18.1198C146.907 17.7198 146.494 17.3465 146.067 16.9998C145.48 18.2265 144.867 19.3865 144.227 20.4798C143.614 21.5465 142.96 22.5465 142.267 23.4798C143.654 25.0265 145.227 26.2798 146.987 27.2398C147.12 27.2931 147.147 27.3865 147.067 27.5198C146.987 27.5998 146.88 27.6265 146.747 27.5998C144.934 26.7998 143.254 25.6531 141.707 24.1598C140.667 25.4665 139.494 26.7198 138.187 27.9198C136.88 29.1198 135.52 30.0265 134.107 30.6398C132.694 31.2798 131.214 31.5998 129.667 31.5998ZM140.267 20.7198C140.72 19.9465 141.187 19.1065 141.667 18.1998C142.174 17.2931 142.694 16.3331 143.227 15.3198C142.587 15.0531 141.96 14.9198 141.347 14.9198C139.854 14.9198 139.107 15.6798 139.107 17.1998C139.107 18.1598 139.494 19.3331 140.267 20.7198ZM164.768 29.2798C162.821 29.2798 161.848 28.0931 161.848 25.7198C161.848 24.5465 162.128 23.3065 162.688 21.9998C163.488 20.1065 164.621 18.5065 166.088 17.1998C167.528 15.9198 168.888 15.2798 170.168 15.2798C172.141 15.2798 173.128 16.4398 173.128 18.7598C173.128 19.9598 172.834 21.2265 172.248 22.5598C171.554 24.1598 170.554 25.6131 169.248 26.9198C167.621 28.4931 166.128 29.2798 164.768 29.2798ZM165.408 28.3998C166.021 28.3998 166.674 28.1465 167.368 27.6398C168.248 26.9998 169.248 25.6665 170.368 23.6398C171.594 21.4531 172.208 19.6931 172.208 18.3598C172.208 17.1598 171.701 16.5598 170.688 16.5598C169.888 16.5598 168.981 17.0665 167.968 18.0798C166.981 19.0665 166.141 20.3198 165.448 21.8398C164.514 23.8398 164.048 25.4398 164.048 26.6398C164.048 27.8131 164.501 28.3998 165.408 28.3998ZM176.73 29.2798C174.997 29.2798 174.13 28.3331 174.13 26.4398C174.13 26.0665 174.157 25.6798 174.21 25.2798C174.29 24.8798 174.41 24.4798 174.57 24.0798C175.984 20.3465 177.184 17.3065 178.17 14.9598H175.57L176.05 14.0798H178.53L179.49 11.2798C179.837 10.2931 180.13 9.70645 180.37 9.51978C180.557 9.38645 180.984 9.31978 181.65 9.31978L183.37 9.35978C182.837 9.81312 182.437 10.3598 182.17 10.9998L180.85 14.0798H183.89L183.41 14.9598H180.49C180.304 15.3865 180.117 15.8131 179.93 16.2398C179.77 16.6665 179.584 17.1065 179.37 17.5598C178.81 18.7865 178.33 19.9465 177.93 21.0398C177.45 22.2931 177.064 23.3731 176.77 24.2798C176.504 25.1865 176.344 25.9065 176.29 26.4398C176.184 27.7465 176.53 28.3998 177.33 28.3998C178.077 28.3998 178.984 27.5998 180.05 25.9998L180.53 26.5598C179.25 28.3731 177.984 29.2798 176.73 29.2798ZM183.12 29.2798C182.347 29.2798 181.96 28.8931 181.96 28.1198C181.96 27.6398 182.12 26.9865 182.44 26.1598L190.2 6.31979C190.254 6.23978 190.28 6.15978 190.28 6.07978C190.28 5.99978 190.28 5.93312 190.28 5.87978C190.28 5.47978 190.12 5.06645 189.8 4.63978H191.96C192.707 4.63978 193.08 4.81312 193.08 5.15978C193.08 5.31978 193 5.59978 192.84 5.99978L185.08 25.7598C184.734 26.6131 184.56 27.3731 184.56 28.0398C184.56 28.6531 184.747 29.0665 185.12 29.2798H183.12ZM192.672 29.4398C191.632 29.4398 190.739 29.1065 189.992 28.4398C189.592 28.0665 189.299 27.6398 189.112 27.1598C188.952 26.6531 188.872 26.0798 188.872 25.4398C188.872 22.9865 189.886 20.5465 191.912 18.1198C193.619 16.0665 195.392 15.0398 197.232 15.0398C197.846 15.0398 198.366 15.1998 198.792 15.5198C199.246 15.8931 199.472 16.3731 199.472 16.9598C199.472 18.4265 198.499 19.8931 196.552 21.3598C195.939 21.8131 195.126 22.2131 194.112 22.5598C192.992 22.9331 192.179 23.1198 191.672 23.1198C191.299 24.0265 191.112 24.9865 191.112 25.9998C191.112 27.7331 191.752 28.5998 193.032 28.5998C194.712 28.5998 196.286 27.5065 197.752 25.3198L197.912 25.0798L198.592 25.3598L198.472 25.5998C197.806 26.9331 196.966 27.9065 195.952 28.5198C194.939 29.1331 193.846 29.4398 192.672 29.4398ZM191.912 22.4398C192.366 22.4398 192.992 22.2931 193.792 21.9998C194.246 21.8131 194.672 21.6131 195.072 21.3998C195.499 21.1865 195.872 20.9465 196.192 20.6798C197.659 19.4531 198.392 18.1598 198.392 16.7998C198.392 16.2131 198.179 15.9198 197.752 15.9198C197.006 15.9198 195.872 16.8398 194.352 18.6798C193.579 19.6131 192.766 20.8665 191.912 22.4398ZM202.818 29.4398C201.485 29.4398 200.458 29.0398 199.738 28.2398C199.152 27.5731 198.858 26.7731 198.858 25.8398C198.858 24.4798 199.285 23.7998 200.138 23.7998C200.458 23.7998 200.752 23.9198 201.018 24.1598C201.285 24.4265 201.418 24.7331 201.418 25.0798C201.418 25.2931 201.365 25.4665 201.258 25.5998C200.912 26.0265 200.738 26.4931 200.738 26.9998C200.738 27.5065 200.898 27.9198 201.218 28.2398C201.565 28.5865 202.005 28.7598 202.538 28.7598C203.098 28.7598 203.605 28.5731 204.058 28.1998C204.672 27.6398 204.978 26.8665 204.978 25.8798C204.978 25.0265 204.752 24.0665 204.298 22.9998C204.112 22.7331 203.885 22.3865 203.618 21.9598C203.378 21.5331 203.098 21.0265 202.778 20.4398C202.592 20.1198 202.458 19.7998 202.378 19.4798C202.325 19.1331 202.298 18.7998 202.298 18.4798C202.298 17.3598 202.712 16.4665 203.538 15.7998C204.392 15.1065 205.485 14.7598 206.818 14.7598C207.192 14.7598 207.552 14.7998 207.898 14.8798C208.272 14.9598 208.605 15.1065 208.898 15.3198C209.512 15.7731 209.818 16.3331 209.818 16.9998C209.818 17.2931 209.765 17.5598 209.658 17.7998C209.418 18.4931 208.898 18.8398 208.098 18.8398C207.218 18.8398 206.778 18.3865 206.778 17.4798C206.778 17.2131 206.818 16.9865 206.898 16.7998C206.978 16.5331 207.272 16.2665 207.778 15.9998C207.592 15.6531 207.245 15.4798 206.738 15.4798C206.285 15.4798 205.952 15.5865 205.738 15.7998C205.098 16.3598 204.778 17.0665 204.778 17.9198C204.778 18.5065 204.938 19.1465 205.258 19.8398C205.312 19.9465 205.832 20.7865 206.818 22.3598C207.485 23.4265 207.818 24.3198 207.818 25.0398C207.818 26.1865 207.285 27.1998 206.218 28.0798C205.152 28.9865 204.018 29.4398 202.818 29.4398ZM1.78018 58.4398C0.686842 58.4398 0.100176 57.9998 0.0201758 57.1198C0.00684242 56.7465 0.106842 56.4131 0.320176 56.1198C0.546842 55.8131 0.833509 55.6598 1.18018 55.6598C1.43351 55.6598 1.65351 55.7665 1.84018 55.9798C2.01351 56.1798 2.10018 56.3931 2.10018 56.6198C2.10018 57.2465 1.80684 57.5598 1.22018 57.5598C1.07351 57.5598 0.933509 57.5265 0.800176 57.4598C0.680176 57.4065 0.586842 57.3131 0.520176 57.1798C0.600176 57.6598 1.00018 57.8998 1.72018 57.8998C1.88018 57.8998 2.02684 57.8798 2.16018 57.8398C3.30684 57.5331 4.27351 56.8731 5.06018 55.8598C5.40684 55.4198 5.79351 54.7931 6.22018 53.9798C6.64684 53.1665 7.12018 52.1798 7.64018 51.0198L10.2802 45.1598C10.4135 44.8665 10.5602 44.6065 10.7202 44.3798C10.8935 44.1398 11.0735 43.9131 11.2602 43.6998C9.63351 43.6465 7.97351 43.8998 6.28018 44.4598C4.49351 45.0598 3.18684 45.8731 2.36018 46.8998C1.97351 47.3931 1.78018 47.8465 1.78018 48.2598C1.78018 49.0998 2.38684 49.5198 3.60018 49.5198C5.09351 49.5198 6.30684 48.9331 7.24018 47.7598C7.46684 47.4798 7.68018 47.1465 7.88018 46.7598C8.09351 46.3598 8.28684 45.8931 8.46018 45.3598C8.50018 45.2665 8.55351 45.2198 8.62018 45.2198C8.72684 45.2198 8.76018 45.2931 8.72018 45.4398C8.66684 45.6131 8.61351 45.7865 8.56018 45.9598C8.52018 46.1331 8.46684 46.2998 8.40018 46.4598C8.29351 46.7798 8.16684 47.0798 8.02018 47.3598C7.87351 47.6265 7.71351 47.8731 7.54018 48.0998C6.64684 49.3531 5.38018 49.9798 3.74018 49.9798C2.98018 49.9798 2.38684 49.7798 1.96018 49.3798C1.52018 48.9798 1.30018 48.4798 1.30018 47.8798C1.30018 47.3465 1.48684 46.7998 1.86018 46.2398C2.48684 45.2931 3.71351 44.5398 5.54018 43.9798C6.34018 43.7398 7.16684 43.5598 8.02018 43.4398C8.88684 43.3065 9.78018 43.2398 10.7002 43.2398C10.8735 43.2398 11.0402 43.2398 11.2002 43.2398C11.3735 43.2398 11.5402 43.2465 11.7002 43.2598C12.5135 42.5531 13.3602 42.1998 14.2402 42.1998C14.5868 42.1998 14.9402 42.2731 15.3002 42.4198C15.3668 42.4465 15.4002 42.4998 15.4002 42.5798C15.4002 42.7398 15.3535 42.7998 15.2602 42.7598C15.0202 42.6398 14.7535 42.5798 14.4602 42.5798C13.8068 42.5798 13.1868 42.8398 12.6002 43.3598C13.6935 43.3731 14.5468 43.6065 15.1602 44.0598C16.0268 44.6998 16.4202 45.4531 16.3402 46.3198C16.2202 47.6798 15.3735 48.7865 13.8002 49.6398C12.6002 50.3065 11.3602 50.6398 10.0802 50.6398C9.98684 50.6398 9.88684 50.6398 9.78018 50.6398C9.68684 50.6398 9.58684 50.6331 9.48018 50.6198C9.38684 50.9131 9.25351 51.2665 9.08018 51.6798C8.90684 52.0798 8.70018 52.5331 8.46018 53.0398C7.91351 54.1998 7.09351 55.3131 6.00018 56.3798C4.58684 57.7531 3.18018 58.4398 1.78018 58.4398ZM10.0602 50.1998C10.9668 50.1998 11.8268 49.9198 12.6402 49.3598C13.4002 48.8398 14.0202 48.1331 14.5002 47.2398C14.7135 46.8398 14.8202 46.4531 14.8202 46.0798C14.8202 45.4131 14.5535 44.8598 14.0202 44.4198C13.4868 43.9931 12.8535 43.8065 12.1202 43.8598C11.8935 44.1531 11.6468 44.5931 11.3802 45.1798C11.1135 45.7531 10.8335 46.4731 10.5402 47.3398C10.3802 47.8065 10.2268 48.2798 10.0802 48.7598C9.93351 49.2398 9.78684 49.7131 9.64018 50.1798C9.70684 50.1931 9.77351 50.1998 9.84018 50.1998C9.92018 50.1998 9.99351 50.1998 10.0602 50.1998ZM14.6497 57.4198C14.903 56.7798 15.2364 55.9798 15.6497 55.0198C16.0764 54.0598 16.5564 52.9665 17.0897 51.7398C17.1964 51.4731 17.2964 51.2598 17.3897 51.0998C17.4964 50.9398 17.5897 50.8131 17.6697 50.7198C17.843 50.5198 18.0764 50.4398 18.3697 50.4798L18.7897 50.5398C18.883 50.5531 18.963 50.5665 19.0297 50.5798C19.1097 50.5798 19.1764 50.5731 19.2297 50.5598C18.963 50.6931 18.6497 51.0731 18.2897 51.6998C17.943 52.3131 17.5564 53.1531 17.1297 54.2198C17.2764 54.0331 17.463 53.7865 17.6897 53.4798C17.9164 53.1598 18.203 52.7931 18.5497 52.3798C18.9364 51.9265 19.3364 51.5065 19.7497 51.1198C20.163 50.7331 20.563 50.5398 20.9497 50.5398C21.2564 50.5398 21.4764 50.6398 21.6097 50.8398C21.743 51.0398 21.8097 51.2665 21.8097 51.5198C21.8097 51.8265 21.6897 52.0998 21.4497 52.3398C21.2097 52.5798 20.9764 52.6998 20.7497 52.6998C20.6564 52.6998 20.5564 52.6798 20.4497 52.6398C20.3564 52.5998 20.3097 52.5398 20.3097 52.4598C20.3097 52.3931 20.323 52.3331 20.3497 52.2798C20.3764 52.2131 20.3897 52.1398 20.3897 52.0598C20.3897 51.8598 20.2964 51.7598 20.1097 51.7598C20.043 51.7598 19.9497 51.7798 19.8297 51.8198C19.723 51.8465 19.5764 51.9531 19.3897 52.1398C19.0164 52.4865 18.6097 52.9065 18.1697 53.3998C17.743 53.8798 17.3364 54.4198 16.9497 55.0198C16.5764 55.6198 16.2697 56.2798 16.0297 56.9998C15.963 57.1998 15.763 57.3065 15.4297 57.3198C14.9764 57.3465 14.7164 57.3798 14.6497 57.4198ZM22.8481 57.3598C22.3281 57.3598 21.8815 57.1931 21.5081 56.8598C21.3081 56.6731 21.1615 56.4598 21.0681 56.2198C20.9881 55.9665 20.9481 55.6798 20.9481 55.3598C20.9481 54.1331 21.4548 52.9131 22.4681 51.6998C23.3215 50.6731 24.2081 50.1598 25.1281 50.1598C25.4348 50.1598 25.6948 50.2398 25.9081 50.3998C26.1348 50.5865 26.2481 50.8265 26.2481 51.1198C26.2481 51.8531 25.7615 52.5865 24.7881 53.3198C24.4815 53.5465 24.0748 53.7465 23.5681 53.9198C23.0081 54.1065 22.6015 54.1998 22.3481 54.1998C22.1615 54.6531 22.0681 55.1331 22.0681 55.6398C22.0681 56.5065 22.3881 56.9398 23.0281 56.9398C23.8681 56.9398 24.6548 56.3931 25.3881 55.2998L25.4681 55.1798L25.8081 55.3198L25.7481 55.4398C25.4148 56.1065 24.9948 56.5931 24.4881 56.8998C23.9815 57.2065 23.4348 57.3598 22.8481 57.3598ZM22.4681 53.8598C22.6948 53.8598 23.0081 53.7865 23.4081 53.6398C23.6348 53.5465 23.8481 53.4465 24.0481 53.3398C24.2615 53.2331 24.4481 53.1131 24.6081 52.9798C25.3415 52.3665 25.7081 51.7198 25.7081 51.0398C25.7081 50.7465 25.6015 50.5998 25.3881 50.5998C25.0148 50.5998 24.4481 51.0598 23.6881 51.9798C23.3015 52.4465 22.8948 53.0731 22.4681 53.8598ZM25.8411 57.4198C26.1078 56.7665 26.4411 55.9598 26.8411 54.9998C27.2411 54.0398 27.7278 52.9331 28.3011 51.6798C28.4211 51.4131 28.5344 51.1931 28.6411 51.0198C28.7478 50.8465 28.8478 50.7131 28.9411 50.6198C29.1278 50.4331 29.3678 50.3398 29.6611 50.3398C29.6878 50.3398 29.7344 50.3398 29.8011 50.3398C29.8678 50.3398 29.9611 50.3531 30.0811 50.3798C30.2678 50.3931 30.4078 50.3931 30.5011 50.3798C30.0078 50.6731 29.2678 51.9665 28.2811 54.2598C28.4278 54.0731 28.6144 53.8398 28.8411 53.5598C29.0678 53.2665 29.3611 52.9465 29.7211 52.5998C30.0944 52.2398 30.4011 51.9598 30.6411 51.7598C30.8811 51.5598 31.0478 51.4265 31.1411 51.3598C31.7278 50.9198 32.1611 50.6998 32.4411 50.6998C32.8278 50.6998 33.0211 50.8865 33.0211 51.2598C33.0211 51.3798 32.9944 51.4931 32.9411 51.5998C32.7811 51.9065 32.5744 52.2931 32.3211 52.7598C32.0811 53.2265 31.8011 53.7731 31.4811 54.3998C32.1211 53.5998 32.6744 52.9931 33.1411 52.5798C33.3811 52.3665 33.6478 52.1598 33.9411 51.9598C34.2478 51.7598 34.5744 51.5598 34.9211 51.3598C35.6811 50.9198 36.2544 50.6998 36.6411 50.6998C36.7344 50.6998 36.8011 50.7065 36.8411 50.7198C36.6278 51.0931 36.4278 51.4531 36.2411 51.7998C36.0678 52.1465 35.9011 52.4731 35.7411 52.7798C35.3678 53.5131 35.0744 54.1398 34.8611 54.6598C34.6478 55.1798 34.5078 55.5865 34.4411 55.8798C34.4278 55.9731 34.4144 56.0598 34.4011 56.1398C34.4011 56.2198 34.4011 56.2931 34.4011 56.3598C34.4011 56.7065 34.5278 56.8798 34.7811 56.8798C35.1944 56.8798 35.6878 56.4598 36.2611 55.6198L36.5411 55.8198C35.8611 56.8465 35.1811 57.3598 34.5011 57.3598C33.6611 57.3598 33.2411 56.9265 33.2411 56.0598C33.2411 55.3398 33.6678 54.2931 34.5211 52.9198C34.6544 52.7065 34.7211 52.5265 34.7211 52.3798C34.7211 52.2198 34.6544 52.1398 34.5211 52.1398C34.3744 52.1398 34.1811 52.2198 33.9411 52.3798C33.7011 52.5265 33.4278 52.7398 33.1211 53.0198C32.8678 53.2598 32.6011 53.5465 32.3211 53.8798C32.0544 54.2131 31.7678 54.5931 31.4611 55.0198C30.7944 55.9931 30.4011 56.7465 30.2811 57.2798C30.0544 57.2798 29.8811 57.1731 29.7611 56.9598C29.6678 56.7731 29.6211 56.5865 29.6211 56.3998C29.6211 56.1331 29.7144 55.7798 29.9011 55.3398C30.0878 54.8998 30.3478 54.3665 30.6811 53.7398C31.0678 53.0465 31.2611 52.5465 31.2611 52.2398C31.2611 52.1065 31.2078 52.0398 31.1011 52.0398C30.8878 52.0398 30.4144 52.3731 29.6811 53.0398C29.4944 53.2131 29.2944 53.4331 29.0811 53.6998C28.8811 53.9531 28.6678 54.2531 28.4411 54.5998C27.9211 55.3731 27.5211 56.1465 27.2411 56.9198C27.1611 57.1198 26.9544 57.2398 26.6211 57.2798C26.1944 57.3198 25.9344 57.3665 25.8411 57.4198ZM40.2619 49.5398C39.8086 49.5398 39.5819 49.3198 39.5819 48.8798C39.5819 48.4398 39.7952 48.2198 40.2219 48.2198C40.6752 48.2198 40.9019 48.4398 40.9019 48.8798C40.9019 49.3198 40.6886 49.5398 40.2619 49.5398ZM37.5419 57.2798C37.1552 57.2798 36.9619 57.0865 36.9619 56.6998C36.9619 56.4598 37.0419 56.1331 37.2019 55.7198C37.5486 54.8665 37.8752 54.0798 38.1819 53.3598C38.4886 52.6398 38.7752 51.9865 39.0419 51.3998C39.0819 51.3331 39.1019 51.2598 39.1019 51.1798C39.1019 50.9931 39.0152 50.7931 38.8419 50.5798L39.9419 50.5598C40.3152 50.5598 40.5019 50.6531 40.5019 50.8398C40.5019 50.8931 40.4886 50.9531 40.4619 51.0198C40.4352 51.0731 40.4019 51.1531 40.3619 51.2598L38.5219 55.5198C38.3352 55.9598 38.2419 56.3331 38.2419 56.6398C38.2419 56.9598 38.3419 57.1731 38.5419 57.2798H37.5419ZM41.8394 57.2598C40.9861 57.2598 40.5594 56.8598 40.5594 56.0598C40.5594 55.7798 40.6394 55.4065 40.7994 54.9398C40.9594 54.4598 41.1861 53.8931 41.4794 53.2398L42.5794 50.8198C42.6994 50.5398 42.9594 50.3998 43.3594 50.3998H44.5594C44.0927 50.7465 43.6661 51.3065 43.2794 52.0798C43.1327 52.3731 42.9527 52.7398 42.7394 53.1798C42.5394 53.6065 42.3061 54.0998 42.0394 54.6598C41.7861 55.1798 41.6594 55.6465 41.6594 56.0598C41.6594 56.4865 41.8061 56.6998 42.0994 56.6998C42.4194 56.6998 42.7994 56.4465 43.2394 55.9398C43.9727 55.0865 44.9594 53.3798 46.1994 50.8198C46.3461 50.5398 46.5994 50.3998 46.9594 50.3998H48.0394C47.5994 50.7598 47.1394 51.4198 46.6594 52.3798C45.9927 53.7265 45.5927 54.7531 45.4594 55.4598C45.4461 55.5398 45.4327 55.6131 45.4194 55.6798C45.4194 55.7465 45.4194 55.8131 45.4194 55.8798C45.4194 56.3998 45.5994 56.6598 45.9594 56.6598C46.3461 56.6598 46.7994 56.2798 47.3194 55.5198L47.6194 55.6598C46.8994 56.7265 46.1861 57.2598 45.4794 57.2598C44.7327 57.2598 44.3594 56.7865 44.3594 55.8398C44.3594 55.4798 44.4261 55.0998 44.5594 54.6998C43.5727 56.4065 42.6661 57.2598 41.8394 57.2598ZM47.5599 57.4198C47.8265 56.7665 48.1599 55.9598 48.5599 54.9998C48.9599 54.0398 49.4465 52.9331 50.0199 51.6798C50.1399 51.4131 50.2532 51.1931 50.3599 51.0198C50.4665 50.8465 50.5665 50.7131 50.6599 50.6198C50.8465 50.4331 51.0865 50.3398 51.3799 50.3398C51.4065 50.3398 51.4532 50.3398 51.5199 50.3398C51.5865 50.3398 51.6799 50.3531 51.7999 50.3798C51.9865 50.3931 52.1265 50.3931 52.2199 50.3798C51.7265 50.6731 50.9865 51.9665 49.9999 54.2598C50.1465 54.0731 50.3332 53.8398 50.5599 53.5598C50.7865 53.2665 51.0799 52.9465 51.4399 52.5998C51.8132 52.2398 52.1199 51.9598 52.3599 51.7598C52.5999 51.5598 52.7665 51.4265 52.8599 51.3598C53.4465 50.9198 53.8799 50.6998 54.1599 50.6998C54.5465 50.6998 54.7399 50.8865 54.7399 51.2598C54.7399 51.3798 54.7132 51.4931 54.6599 51.5998C54.4999 51.9065 54.2932 52.2931 54.0399 52.7598C53.7999 53.2265 53.5199 53.7731 53.1999 54.3998C53.8399 53.5998 54.3932 52.9931 54.8599 52.5798C55.0999 52.3665 55.3665 52.1598 55.6599 51.9598C55.9665 51.7598 56.2932 51.5598 56.6399 51.3598C57.3999 50.9198 57.9732 50.6998 58.3599 50.6998C58.4532 50.6998 58.5199 50.7065 58.5599 50.7198C58.3465 51.0931 58.1465 51.4531 57.9599 51.7998C57.7865 52.1465 57.6199 52.4731 57.4599 52.7798C57.0865 53.5131 56.7932 54.1398 56.5799 54.6598C56.3665 55.1798 56.2265 55.5865 56.1599 55.8798C56.1465 55.9731 56.1332 56.0598 56.1199 56.1398C56.1199 56.2198 56.1199 56.2931 56.1199 56.3598C56.1199 56.7065 56.2465 56.8798 56.4999 56.8798C56.9132 56.8798 57.4065 56.4598 57.9799 55.6198L58.2599 55.8198C57.5799 56.8465 56.8999 57.3598 56.2199 57.3598C55.3799 57.3598 54.9599 56.9265 54.9599 56.0598C54.9599 55.3398 55.3865 54.2931 56.2399 52.9198C56.3732 52.7065 56.4399 52.5265 56.4399 52.3798C56.4399 52.2198 56.3732 52.1398 56.2399 52.1398C56.0932 52.1398 55.8999 52.2198 55.6599 52.3798C55.4199 52.5265 55.1465 52.7398 54.8399 53.0198C54.5865 53.2598 54.3199 53.5465 54.0399 53.8798C53.7732 54.2131 53.4865 54.5931 53.1799 55.0198C52.5132 55.9931 52.1199 56.7465 51.9999 57.2798C51.7732 57.2798 51.5999 57.1731 51.4799 56.9598C51.3865 56.7731 51.3399 56.5865 51.3399 56.3998C51.3399 56.1331 51.4332 55.7798 51.6199 55.3398C51.8065 54.8998 52.0665 54.3665 52.3999 53.7398C52.7865 53.0465 52.9799 52.5465 52.9799 52.2398C52.9799 52.1065 52.9265 52.0398 52.8199 52.0398C52.6065 52.0398 52.1332 52.3731 51.3999 53.0398C51.2132 53.2131 51.0132 53.4331 50.7999 53.6998C50.5999 53.9531 50.3865 54.2531 50.1599 54.5998C49.6399 55.3731 49.2399 56.1465 48.9599 56.9198C48.8799 57.1198 48.6732 57.2398 48.3399 57.2798C47.9132 57.3198 47.6532 57.3665 47.5599 57.4198ZM62.0255 63.7598C61.9322 63.6931 61.8322 63.6065 61.7255 63.4998C61.6188 63.4065 61.4922 63.2931 61.3455 63.1598C61.0655 62.8798 60.9255 62.5465 60.9255 62.1598C60.9255 61.8798 61.0055 61.4931 61.1655 60.9998C61.2988 60.6131 61.5188 60.0331 61.8255 59.2598C62.1188 58.4865 62.5122 57.5198 63.0055 56.3598C63.1522 56.0131 63.3188 55.6065 63.5055 55.1398C63.6922 54.6598 63.8922 54.1131 64.1055 53.4998C64.1588 53.3531 64.2122 53.1865 64.2655 52.9998C64.3188 52.7998 64.3722 52.5731 64.4255 52.3198C64.4522 52.1731 64.4722 52.0398 64.4855 51.9198C64.5122 51.7865 64.5255 51.6731 64.5255 51.5798C64.5255 51.1131 64.3788 50.7798 64.0855 50.5798L65.0655 50.4198C65.1722 50.4065 65.2588 50.3998 65.3255 50.3998C65.3922 50.3998 65.4322 50.3998 65.4455 50.3998C65.6722 50.3998 65.7855 50.6331 65.7855 51.0998C65.7855 51.7531 65.5988 52.5998 65.2255 53.6398C66.6122 51.3731 67.7188 50.2398 68.5455 50.2398C68.9455 50.2398 69.2655 50.4065 69.5055 50.7398C69.7055 51.0198 69.8055 51.3731 69.8055 51.7998C69.8055 52.3865 69.6455 53.0531 69.3255 53.7998C68.9788 54.5598 68.5788 55.2131 68.1255 55.7598C67.2588 56.7865 66.2855 57.2998 65.2055 57.2998C64.7122 57.2998 64.2588 57.1731 63.8455 56.9198C63.5922 57.5598 63.3588 58.2065 63.1455 58.8598C62.9455 59.5265 62.7522 60.2065 62.5655 60.8998C62.1788 62.2865 61.9988 63.2398 62.0255 63.7598ZM64.6455 56.8598C65.4722 56.8598 66.3922 56.1531 67.4055 54.7398C68.3922 53.3665 68.8855 52.2665 68.8855 51.4398C68.8855 51.0131 68.7055 50.7998 68.3455 50.7998C67.8388 50.7998 67.2788 51.2265 66.6655 52.0798C66.3322 52.5598 65.9388 53.1798 65.4855 53.9398C65.0455 54.6998 64.5522 55.5931 64.0055 56.6198C64.1655 56.7798 64.3788 56.8598 64.6455 56.8598ZM71.6958 57.3598C71.1758 57.3598 70.7291 57.1931 70.3558 56.8598C70.1558 56.6731 70.0091 56.4598 69.9158 56.2198C69.8358 55.9665 69.7958 55.6798 69.7958 55.3598C69.7958 54.1331 70.3025 52.9131 71.3158 51.6998C72.1691 50.6731 73.0558 50.1598 73.9758 50.1598C74.2825 50.1598 74.5425 50.2398 74.7558 50.3998C74.9825 50.5865 75.0958 50.8265 75.0958 51.1198C75.0958 51.8531 74.6091 52.5865 73.6358 53.3198C73.3291 53.5465 72.9225 53.7465 72.4158 53.9198C71.8558 54.1065 71.4491 54.1998 71.1958 54.1998C71.0091 54.6531 70.9158 55.1331 70.9158 55.6398C70.9158 56.5065 71.2358 56.9398 71.8758 56.9398C72.7158 56.9398 73.5025 56.3931 74.2358 55.2998L74.3158 55.1798L74.6558 55.3198L74.5958 55.4398C74.2625 56.1065 73.8425 56.5931 73.3358 56.8998C72.8291 57.2065 72.2825 57.3598 71.6958 57.3598ZM71.3158 53.8598C71.5425 53.8598 71.8558 53.7865 72.2558 53.6398C72.4825 53.5465 72.6958 53.4465 72.8958 53.3398C73.1091 53.2331 73.2958 53.1131 73.4558 52.9798C74.1891 52.3665 74.5558 51.7198 74.5558 51.0398C74.5558 50.7465 74.4491 50.5998 74.2358 50.5998C73.8625 50.5998 73.2958 51.0598 72.5358 51.9798C72.1491 52.4465 71.7425 53.0731 71.3158 53.8598ZM76.8888 57.2798C76.0221 57.2798 75.5888 56.8065 75.5888 55.8598C75.5888 55.6731 75.6021 55.4798 75.6288 55.2798C75.6688 55.0798 75.7288 54.8798 75.8088 54.6798C76.5154 52.8131 77.1154 51.2931 77.6088 50.1198H76.3088L76.5488 49.6798H77.7888L78.2688 48.2798C78.4421 47.7865 78.5888 47.4931 78.7088 47.3998C78.8021 47.3331 79.0154 47.2998 79.3488 47.2998L80.2088 47.3198C79.9421 47.5465 79.7421 47.8198 79.6088 48.1398L78.9488 49.6798H80.4688L80.2288 50.1198H78.7688C78.6754 50.3331 78.5821 50.5465 78.4888 50.7598C78.4088 50.9731 78.3154 51.1931 78.2088 51.4198C77.9288 52.0331 77.6888 52.6131 77.4888 53.1598C77.2488 53.7865 77.0554 54.3265 76.9088 54.7798C76.7754 55.2331 76.6954 55.5931 76.6688 55.8598C76.6154 56.5131 76.7888 56.8398 77.1888 56.8398C77.5621 56.8398 78.0154 56.4398 78.5488 55.6398L78.7888 55.9198C78.1488 56.8265 77.5154 57.2798 76.8888 57.2798ZM81.6038 57.3598C80.2704 57.3598 79.6038 56.6931 79.6038 55.3598C79.6038 54.2398 79.9904 53.1331 80.7638 52.0398C81.6038 50.8398 82.5704 50.2398 83.6638 50.2398C84.6771 50.2398 85.1304 50.6998 85.0238 51.6198C85.0104 51.8598 84.8838 52.1198 84.6438 52.3998C84.4171 52.6665 84.1971 52.7998 83.9838 52.7998C83.8638 52.7998 83.7638 52.7598 83.6838 52.6798C84.0171 52.3465 84.2238 52.0065 84.3038 51.6598C84.3304 51.5665 84.3504 51.4865 84.3638 51.4198C84.3771 51.3398 84.3838 51.2665 84.3838 51.1998C84.3838 50.8531 84.2238 50.6798 83.9038 50.6798C83.4371 50.6798 82.7838 51.2465 81.9438 52.3798C81.1438 53.4598 80.7438 54.5131 80.7438 55.5398C80.7438 56.5131 81.1171 56.9998 81.8638 56.9998C82.5838 56.9998 83.2838 56.5465 83.9638 55.6398L84.0838 55.4798L84.3638 55.6398L84.2238 55.8398C83.5171 56.8531 82.6438 57.3598 81.6038 57.3598ZM89.7144 57.3198C89.4211 57.3198 89.1811 57.2331 88.9944 57.0598C88.7277 56.8331 88.5944 56.4531 88.5944 55.9198C88.5944 55.5731 88.6544 55.1798 88.7744 54.7398C88.3211 55.4998 87.8477 56.1198 87.3544 56.5998C86.8477 57.0665 86.3944 57.2998 85.9944 57.2998C85.6477 57.2998 85.3744 57.1465 85.1744 56.8398C84.9611 56.5465 84.8544 56.1398 84.8544 55.6198C84.8544 54.3531 85.4211 53.0465 86.5544 51.6998C86.7411 51.4731 86.9544 51.2665 87.1944 51.0798C87.4344 50.8931 87.6944 50.7265 87.9744 50.5798C88.5477 50.2865 89.1011 50.1398 89.6344 50.1398C90.2877 50.1398 90.8077 50.3531 91.1944 50.7798C91.2877 50.8731 91.3344 50.9798 91.3344 51.0998C91.3344 51.3265 91.2144 51.4131 90.9744 51.3598C90.8411 50.8798 90.5277 50.6398 90.0344 50.6398C89.4744 50.6398 88.8144 51.0331 88.0544 51.8198C87.7877 52.1131 87.5344 52.4198 87.2944 52.7398C87.0544 53.0465 86.8277 53.3731 86.6144 53.7198C86.0411 54.6798 85.7544 55.4598 85.7544 56.0598C85.7544 56.5131 85.9277 56.7398 86.2744 56.7398C86.6611 56.7398 87.1077 56.4465 87.6144 55.8598C87.8944 55.5398 88.1811 55.1465 88.4744 54.6798C88.7677 54.2131 89.0744 53.6731 89.3944 53.0598C89.5277 52.8065 89.6477 52.5998 89.7544 52.4398C89.8611 52.2798 89.9477 52.1598 90.0144 52.0798C90.2277 51.8665 90.4811 51.7665 90.7744 51.7798L91.1744 51.8398C91.3477 51.8798 91.4944 51.8865 91.6144 51.8598C91.4944 51.9798 91.3477 52.1731 91.1744 52.4398C91.0144 52.6931 90.8277 53.0265 90.6144 53.4398C90.3877 53.8798 90.2011 54.2798 90.0544 54.6398C89.9077 54.9998 89.8077 55.3198 89.7544 55.5998C89.7277 55.7331 89.7077 55.8598 89.6944 55.9798C89.6811 56.0865 89.6744 56.1865 89.6744 56.2798C89.6744 56.6265 89.7677 56.7998 89.9544 56.7998C90.2211 56.7998 90.5877 56.5065 91.0544 55.9198L91.1344 55.8198L91.4144 55.9998L91.3344 56.1198C90.7877 56.9198 90.2477 57.3198 89.7144 57.3198ZM91.6224 57.4198C91.8757 56.7798 92.209 55.9798 92.6224 55.0198C93.049 54.0598 93.529 52.9665 94.0624 51.7398C94.169 51.4731 94.269 51.2598 94.3624 51.0998C94.469 50.9398 94.5624 50.8131 94.6424 50.7198C94.8157 50.5198 95.049 50.4398 95.3424 50.4798L95.7624 50.5398C95.8557 50.5531 95.9357 50.5665 96.0024 50.5798C96.0824 50.5798 96.149 50.5731 96.2024 50.5598C95.9357 50.6931 95.6224 51.0731 95.2624 51.6998C94.9157 52.3131 94.529 53.1531 94.1024 54.2198C94.249 54.0331 94.4357 53.7865 94.6624 53.4798C94.889 53.1598 95.1757 52.7931 95.5224 52.3798C95.909 51.9265 96.309 51.5065 96.7224 51.1198C97.1357 50.7331 97.5357 50.5398 97.9224 50.5398C98.229 50.5398 98.449 50.6398 98.5824 50.8398C98.7157 51.0398 98.7824 51.2665 98.7824 51.5198C98.7824 51.8265 98.6624 52.0998 98.4224 52.3398C98.1824 52.5798 97.949 52.6998 97.7224 52.6998C97.629 52.6998 97.529 52.6798 97.4224 52.6398C97.329 52.5998 97.2824 52.5398 97.2824 52.4598C97.2824 52.3931 97.2957 52.3331 97.3224 52.2798C97.349 52.2131 97.3624 52.1398 97.3624 52.0598C97.3624 51.8598 97.269 51.7598 97.0824 51.7598C97.0157 51.7598 96.9224 51.7798 96.8024 51.8198C96.6957 51.8465 96.549 51.9531 96.3624 52.1398C95.989 52.4865 95.5824 52.9065 95.1424 53.3998C94.7157 53.8798 94.309 54.4198 93.9224 55.0198C93.549 55.6198 93.2424 56.2798 93.0024 56.9998C92.9357 57.1998 92.7357 57.3065 92.4024 57.3198C91.949 57.3465 91.689 57.3798 91.6224 57.4198ZM99.8208 57.3598C99.3008 57.3598 98.8541 57.1931 98.4808 56.8598C98.2808 56.6731 98.1341 56.4598 98.0408 56.2198C97.9608 55.9665 97.9208 55.6798 97.9208 55.3598C97.9208 54.1331 98.4275 52.9131 99.4408 51.6998C100.294 50.6731 101.181 50.1598 102.101 50.1598C102.407 50.1598 102.667 50.2398 102.881 50.3998C103.107 50.5865 103.221 50.8265 103.221 51.1198C103.221 51.8531 102.734 52.5865 101.761 53.3198C101.454 53.5465 101.047 53.7465 100.541 53.9198C99.9808 54.1065 99.5741 54.1998 99.3208 54.1998C99.1341 54.6531 99.0408 55.1331 99.0408 55.6398C99.0408 56.5065 99.3608 56.9398 100.001 56.9398C100.841 56.9398 101.627 56.3931 102.361 55.2998L102.441 55.1798L102.781 55.3198L102.721 55.4398C102.387 56.1065 101.967 56.5931 101.461 56.8998C100.954 57.2065 100.407 57.3598 99.8208 57.3598ZM99.4408 53.8598C99.6675 53.8598 99.9808 53.7865 100.381 53.6398C100.607 53.5465 100.821 53.4465 101.021 53.3398C101.234 53.2331 101.421 53.1131 101.581 52.9798C102.314 52.3665 102.681 51.7198 102.681 51.0398C102.681 50.7465 102.574 50.5998 102.361 50.5998C101.987 50.5998 101.421 51.0598 100.661 51.9798C100.274 52.4465 99.8675 53.0731 99.4408 53.8598ZM106.779 57.4198C107.232 56.3798 107.879 54.8931 108.719 52.9598C109.572 51.0131 110.625 48.6265 111.879 45.7998C111.892 45.7598 111.899 45.7198 111.899 45.6798C111.912 45.6398 111.919 45.5998 111.919 45.5598C111.919 45.3731 111.839 45.1731 111.679 44.9598H112.759C113.132 44.9598 113.319 45.0465 113.319 45.2198C113.319 45.3131 113.279 45.4531 113.199 45.6398C112.785 46.5331 112.252 47.7065 111.599 49.1598C110.945 50.6131 110.165 52.3465 109.259 54.3598C109.459 54.0798 109.699 53.7931 109.979 53.4998C110.259 53.2065 110.572 52.9065 110.919 52.5998C111.159 52.3731 111.425 52.1598 111.719 51.9598C112.012 51.7465 112.332 51.5465 112.679 51.3598C113.465 50.9198 114.045 50.6998 114.419 50.6998C114.512 50.6998 114.579 50.7065 114.619 50.7198C114.405 51.0931 114.205 51.4531 114.019 51.7998C113.845 52.1465 113.679 52.4731 113.519 52.7798C112.745 54.2731 112.312 55.3065 112.219 55.8798C112.179 56.0798 112.159 56.2531 112.159 56.3998C112.159 56.7598 112.292 56.9398 112.559 56.9398C112.919 56.9398 113.405 56.4931 114.019 55.5998L114.319 55.7798C113.625 56.8331 112.939 57.3598 112.259 57.3598C111.419 57.3598 110.999 56.9265 110.999 56.0598C110.999 55.3531 111.432 54.3065 112.299 52.9198C112.432 52.7065 112.499 52.5265 112.499 52.3798C112.499 52.2198 112.425 52.1398 112.279 52.1398C112.132 52.1398 111.939 52.2198 111.699 52.3798C111.472 52.5265 111.199 52.7465 110.879 53.0398C110.372 53.5065 109.892 54.0731 109.439 54.7398C108.999 55.3931 108.585 56.1465 108.199 56.9998C108.105 57.1998 107.892 57.3065 107.559 57.3198C107.119 57.3465 106.859 57.3798 106.779 57.4198ZM116.415 57.2798C115.442 57.2798 114.955 56.6865 114.955 55.4998C114.955 54.9131 115.095 54.2931 115.375 53.6398C115.775 52.6931 116.342 51.8931 117.075 51.2398C117.795 50.5998 118.475 50.2798 119.115 50.2798C120.102 50.2798 120.595 50.8598 120.595 52.0198C120.595 52.6198 120.449 53.2531 120.155 53.9198C119.809 54.7198 119.309 55.4465 118.655 56.0998C117.842 56.8865 117.095 57.2798 116.415 57.2798ZM116.735 56.8398C117.042 56.8398 117.369 56.7131 117.715 56.4598C118.155 56.1398 118.655 55.4731 119.215 54.4598C119.829 53.3665 120.135 52.4865 120.135 51.8198C120.135 51.2198 119.882 50.9198 119.375 50.9198C118.975 50.9198 118.522 51.1731 118.015 51.6798C117.522 52.1731 117.102 52.7998 116.755 53.5598C116.289 54.5598 116.055 55.3598 116.055 55.9598C116.055 56.5465 116.282 56.8398 116.735 56.8398ZM122.397 57.2798C121.53 57.2798 121.097 56.8065 121.097 55.8598C121.097 55.6731 121.11 55.4798 121.137 55.2798C121.177 55.0798 121.237 54.8798 121.317 54.6798C122.023 52.8131 122.623 51.2931 123.117 50.1198H121.817L122.057 49.6798H123.297L123.777 48.2798C123.95 47.7865 124.097 47.4931 124.217 47.3998C124.31 47.3331 124.523 47.2998 124.857 47.2998L125.717 47.3198C125.45 47.5465 125.25 47.8198 125.117 48.1398L124.457 49.6798H125.977L125.737 50.1198H124.277C124.183 50.3331 124.09 50.5465 123.997 50.7598C123.917 50.9731 123.823 51.1931 123.717 51.4198C123.437 52.0331 123.197 52.6131 122.997 53.1598C122.757 53.7865 122.563 54.3265 122.417 54.7798C122.283 55.2331 122.203 55.5931 122.177 55.8598C122.123 56.5131 122.297 56.8398 122.697 56.8398C123.07 56.8398 123.523 56.4398 124.057 55.6398L124.297 55.9198C123.657 56.8265 123.023 57.2798 122.397 57.2798ZM126.872 57.3598C126.352 57.3598 125.905 57.1931 125.532 56.8598C125.332 56.6731 125.185 56.4598 125.092 56.2198C125.012 55.9665 124.972 55.6798 124.972 55.3598C124.972 54.1331 125.478 52.9131 126.492 51.6998C127.345 50.6731 128.232 50.1598 129.152 50.1598C129.458 50.1598 129.718 50.2398 129.932 50.3998C130.158 50.5865 130.272 50.8265 130.272 51.1198C130.272 51.8531 129.785 52.5865 128.812 53.3198C128.505 53.5465 128.098 53.7465 127.592 53.9198C127.032 54.1065 126.625 54.1998 126.372 54.1998C126.185 54.6531 126.092 55.1331 126.092 55.6398C126.092 56.5065 126.412 56.9398 127.052 56.9398C127.892 56.9398 128.678 56.3931 129.412 55.2998L129.492 55.1798L129.832 55.3198L129.772 55.4398C129.438 56.1065 129.018 56.5931 128.512 56.8998C128.005 57.2065 127.458 57.3598 126.872 57.3598ZM126.492 53.8598C126.718 53.8598 127.032 53.7865 127.432 53.6398C127.658 53.5465 127.872 53.4465 128.072 53.3398C128.285 53.2331 128.472 53.1131 128.632 52.9798C129.365 52.3665 129.732 51.7198 129.732 51.0398C129.732 50.7465 129.625 50.5998 129.412 50.5998C129.038 50.5998 128.472 51.0598 127.712 51.9798C127.325 52.4465 126.918 53.0731 126.492 53.8598ZM130.885 57.2798C130.498 57.2798 130.305 57.0865 130.305 56.6998C130.305 56.4598 130.385 56.1331 130.545 55.7198L134.425 45.7998C134.451 45.7598 134.465 45.7198 134.465 45.6798C134.465 45.6398 134.465 45.6065 134.465 45.5798C134.465 45.3798 134.385 45.1731 134.225 44.9598H135.305C135.678 44.9598 135.865 45.0465 135.865 45.2198C135.865 45.2998 135.825 45.4398 135.745 45.6398L131.865 55.5198C131.691 55.9465 131.605 56.3265 131.605 56.6598C131.605 56.9665 131.698 57.1731 131.885 57.2798H130.885ZM135.441 57.3598C134.774 57.3598 134.261 57.1598 133.901 56.7598C133.607 56.4265 133.461 56.0265 133.461 55.5598C133.461 54.8798 133.674 54.5398 134.101 54.5398C134.261 54.5398 134.407 54.5998 134.541 54.7198C134.674 54.8531 134.741 55.0065 134.741 55.1798C134.741 55.2865 134.714 55.3731 134.661 55.4398C134.487 55.6531 134.401 55.8865 134.401 56.1398C134.401 56.3931 134.481 56.5998 134.641 56.7598C134.814 56.9331 135.034 57.0198 135.301 57.0198C135.581 57.0198 135.834 56.9265 136.061 56.7398C136.367 56.4598 136.521 56.0731 136.521 55.5798C136.521 55.1531 136.407 54.6731 136.181 54.1398C136.087 54.0065 135.974 53.8331 135.841 53.6198C135.721 53.4065 135.581 53.1531 135.421 52.8598C135.327 52.6998 135.261 52.5398 135.221 52.3798C135.194 52.2065 135.181 52.0398 135.181 51.8798C135.181 51.3198 135.387 50.8731 135.801 50.5398C136.227 50.1931 136.774 50.0198 137.441 50.0198C137.627 50.0198 137.807 50.0398 137.981 50.0798C138.167 50.1198 138.334 50.1931 138.481 50.2998C138.787 50.5265 138.941 50.8065 138.941 51.1398C138.941 51.2865 138.914 51.4198 138.861 51.5398C138.741 51.8865 138.481 52.0598 138.081 52.0598C137.641 52.0598 137.421 51.8331 137.421 51.3798C137.421 51.2465 137.441 51.1331 137.481 51.0398C137.521 50.9065 137.667 50.7731 137.921 50.6398C137.827 50.4665 137.654 50.3798 137.401 50.3798C137.174 50.3798 137.007 50.4331 136.901 50.5398C136.581 50.8198 136.421 51.1731 136.421 51.5998C136.421 51.8931 136.501 52.2131 136.661 52.5598C136.687 52.6131 136.947 53.0331 137.441 53.8198C137.774 54.3531 137.941 54.7998 137.941 55.1598C137.941 55.7331 137.674 56.2398 137.141 56.6798C136.607 57.1331 136.041 57.3598 135.441 57.3598ZM147.326 58.1798C145.726 58.1798 144.473 57.7998 143.566 57.0398C142.739 56.3331 142.326 55.4598 142.326 54.4198C142.326 53.2331 142.819 52.1665 143.806 51.2198C144.913 50.1665 146.353 49.5531 148.126 49.3798C147.753 48.8865 147.566 48.3198 147.566 47.6798C147.566 46.3198 148.279 45.1998 149.706 44.3198C150.879 43.5865 152.153 43.2198 153.526 43.2198C153.886 43.2198 154.213 43.2465 154.506 43.2998C154.799 43.3531 155.053 43.4531 155.266 43.5998C155.786 43.8931 156.046 44.3531 156.046 44.9798C156.046 45.3531 155.926 45.6931 155.686 45.9998C155.446 46.3065 155.159 46.4598 154.826 46.4598C154.573 46.4598 154.353 46.3665 154.166 46.1798C153.979 45.9931 153.886 45.7665 153.886 45.4998C153.899 44.8998 154.219 44.5998 154.846 44.5998C155.206 44.5998 155.426 44.7198 155.506 44.9598C155.519 44.9198 155.526 44.8798 155.526 44.8398C155.526 44.7998 155.526 44.7598 155.526 44.7198C155.526 44.0798 155.046 43.7598 154.086 43.7598C152.793 43.7598 151.519 44.3065 150.266 45.3998C150.053 45.5731 149.853 45.7798 149.666 46.0198C149.493 46.2598 149.326 46.5131 149.166 46.7798C148.806 47.3931 148.626 47.9731 148.626 48.5198C148.626 48.8131 148.686 49.0798 148.806 49.3198C149.153 49.3065 149.446 49.2998 149.686 49.2998C149.926 49.2865 150.113 49.2798 150.246 49.2798C151.019 49.2798 151.406 49.5065 151.406 49.9598C151.406 50.3465 151.073 50.5398 150.406 50.5398C149.673 50.5398 148.999 50.2465 148.386 49.6598C147.133 49.8465 146.119 50.4665 145.346 51.5198C144.639 52.4665 144.286 53.5198 144.286 54.6798C144.286 55.5865 144.533 56.3398 145.026 56.9398C145.599 57.5931 146.366 57.9198 147.326 57.9198C148.633 57.9198 149.779 57.4665 150.766 56.5598C151.179 56.1865 151.519 55.7798 151.786 55.3398C152.053 54.8865 152.186 54.4598 152.186 54.0598C152.186 53.8065 152.119 53.5731 151.986 53.3598C151.866 53.1331 151.666 52.9465 151.386 52.7998C150.893 52.5198 150.279 52.3798 149.546 52.3798C149.026 52.3798 148.526 52.4598 148.046 52.6198C147.566 52.7665 147.173 52.9865 146.866 53.2798C146.559 53.5598 146.406 53.9131 146.406 54.3398C146.406 54.9531 146.853 55.4931 147.746 55.9598C147.866 56.0131 147.926 56.1198 147.926 56.2798C147.926 56.3598 147.893 56.3998 147.826 56.3998C147.786 56.3998 147.759 56.3931 147.746 56.3798C146.333 55.6198 145.626 54.7598 145.626 53.7998C145.626 53.0131 146.006 52.4198 146.766 52.0198C147.526 51.6198 148.493 51.4198 149.666 51.4198C149.973 51.4198 150.346 51.4331 150.786 51.4598C151.239 51.4865 151.713 51.4998 152.206 51.4998C152.713 51.4998 153.219 51.4731 153.726 51.4198C154.233 51.3665 154.693 51.2531 155.106 51.0798C156.159 50.6398 156.686 50.1465 156.686 49.5998C156.686 49.3998 156.626 49.2131 156.506 49.0398C156.386 48.8665 156.406 48.7798 156.566 48.7798C156.633 48.7798 156.686 48.8131 156.726 48.8798C156.926 49.1731 157.026 49.4665 157.026 49.7598C157.026 50.4398 156.553 51.0331 155.606 51.5398C154.659 52.0465 153.613 52.2865 152.466 52.2598C152.959 52.6731 153.206 53.1931 153.206 53.8198C153.206 54.8465 152.653 55.8131 151.546 56.7198C150.359 57.6931 148.953 58.1798 147.326 58.1798ZM150.406 50.1998C150.846 50.1998 151.066 50.1198 151.066 49.9598C151.066 49.7465 150.859 49.6331 150.446 49.6198C150.299 49.6065 150.153 49.5998 150.006 49.5998C149.859 49.5865 149.713 49.5798 149.566 49.5798C149.473 49.5798 149.373 49.5865 149.266 49.5998C149.173 49.5998 149.073 49.5998 148.966 49.5998C149.313 49.9998 149.793 50.1998 150.406 50.1998ZM160.38 57.4198C159.486 57.4198 159.04 56.8665 159.04 55.7598C159.04 55.1331 159.18 54.4731 159.46 53.7798C159.673 53.2598 159.886 52.7531 160.1 52.2598C160.326 51.7665 160.546 51.2931 160.76 50.8398C160.906 50.5598 161.166 50.4198 161.54 50.4198H162.76C162.52 50.5931 162.293 50.8198 162.08 51.0998C161.866 51.3798 161.666 51.7131 161.48 52.0998C160.613 53.8598 160.18 55.1198 160.18 55.8798C160.18 56.4665 160.413 56.7598 160.88 56.7598C161.68 56.7598 162.52 55.6598 163.4 53.4598C163.226 53.0998 163.14 52.6731 163.14 52.1798C163.14 51.9398 163.173 51.6998 163.24 51.4598C163.386 50.9665 163.606 50.5931 163.9 50.3398C164.166 50.0998 164.413 49.9798 164.64 49.9798C164.88 49.9798 165 50.0865 165 50.2998L164.9 50.6598C164.606 51.5665 164.326 52.3665 164.06 53.0598C163.806 53.7398 163.56 54.3131 163.32 54.7798C162.4 56.5398 161.42 57.4198 160.38 57.4198ZM167.82 49.5398C167.367 49.5398 167.14 49.3198 167.14 48.8798C167.14 48.4398 167.354 48.2198 167.78 48.2198C168.234 48.2198 168.46 48.4398 168.46 48.8798C168.46 49.3198 168.247 49.5398 167.82 49.5398ZM165.1 57.2798C164.714 57.2798 164.52 57.0865 164.52 56.6998C164.52 56.4598 164.6 56.1331 164.76 55.7198C165.107 54.8665 165.434 54.0798 165.74 53.3598C166.047 52.6398 166.334 51.9865 166.6 51.3998C166.64 51.3331 166.66 51.2598 166.66 51.1798C166.66 50.9931 166.574 50.7931 166.4 50.5798L167.5 50.5598C167.874 50.5598 168.06 50.6531 168.06 50.8398C168.06 50.8931 168.047 50.9531 168.02 51.0198C167.994 51.0731 167.96 51.1531 167.92 51.2598L166.08 55.5198C165.894 55.9598 165.8 56.3331 165.8 56.6398C165.8 56.9598 165.9 57.1731 166.1 57.2798H165.1ZM169.718 57.3598C169.051 57.3598 168.538 57.1598 168.178 56.7598C167.885 56.4265 167.738 56.0265 167.738 55.5598C167.738 54.8798 167.951 54.5398 168.378 54.5398C168.538 54.5398 168.685 54.5998 168.818 54.7198C168.951 54.8531 169.018 55.0065 169.018 55.1798C169.018 55.2865 168.991 55.3731 168.938 55.4398C168.765 55.6531 168.678 55.8865 168.678 56.1398C168.678 56.3931 168.758 56.5998 168.918 56.7598C169.091 56.9331 169.311 57.0198 169.578 57.0198C169.858 57.0198 170.111 56.9265 170.338 56.7398C170.645 56.4598 170.798 56.0731 170.798 55.5798C170.798 55.1531 170.685 54.6731 170.458 54.1398C170.365 54.0065 170.251 53.8331 170.118 53.6198C169.998 53.4065 169.858 53.1531 169.698 52.8598C169.605 52.6998 169.538 52.5398 169.498 52.3798C169.471 52.2065 169.458 52.0398 169.458 51.8798C169.458 51.3198 169.665 50.8731 170.078 50.5398C170.505 50.1931 171.051 50.0198 171.718 50.0198C171.905 50.0198 172.085 50.0398 172.258 50.0798C172.445 50.1198 172.611 50.1931 172.758 50.2998C173.065 50.5265 173.218 50.8065 173.218 51.1398C173.218 51.2865 173.191 51.4198 173.138 51.5398C173.018 51.8865 172.758 52.0598 172.358 52.0598C171.918 52.0598 171.698 51.8331 171.698 51.3798C171.698 51.2465 171.718 51.1331 171.758 51.0398C171.798 50.9065 171.945 50.7731 172.198 50.6398C172.105 50.4665 171.931 50.3798 171.678 50.3798C171.451 50.3798 171.285 50.4331 171.178 50.5398C170.858 50.8198 170.698 51.1731 170.698 51.5998C170.698 51.8931 170.778 52.2131 170.938 52.5598C170.965 52.6131 171.225 53.0331 171.718 53.8198C172.051 54.3531 172.218 54.7998 172.218 55.1598C172.218 55.7331 171.951 56.2398 171.418 56.6798C170.885 57.1331 170.318 57.3598 169.718 57.3598ZM176.238 49.5398C175.785 49.5398 175.558 49.3198 175.558 48.8798C175.558 48.4398 175.772 48.2198 176.198 48.2198C176.652 48.2198 176.878 48.4398 176.878 48.8798C176.878 49.3198 176.665 49.5398 176.238 49.5398ZM173.518 57.2798C173.132 57.2798 172.938 57.0865 172.938 56.6998C172.938 56.4598 173.018 56.1331 173.178 55.7198C173.525 54.8665 173.852 54.0798 174.158 53.3598C174.465 52.6398 174.752 51.9865 175.018 51.3998C175.058 51.3331 175.078 51.2598 175.078 51.1798C175.078 50.9931 174.992 50.7931 174.818 50.5798L175.918 50.5598C176.292 50.5598 176.478 50.6531 176.478 50.8398C176.478 50.8931 176.465 50.9531 176.438 51.0198C176.412 51.0731 176.378 51.1531 176.338 51.2598L174.498 55.5198C174.312 55.9598 174.218 56.3331 174.218 56.6398C174.218 56.9598 174.318 57.1731 174.518 57.2798H173.518ZM178.256 57.2798C177.389 57.2798 176.956 56.8065 176.956 55.8598C176.956 55.6731 176.969 55.4798 176.996 55.2798C177.036 55.0798 177.096 54.8798 177.176 54.6798C177.883 52.8131 178.483 51.2931 178.976 50.1198H177.676L177.916 49.6798H179.156L179.636 48.2798C179.809 47.7865 179.956 47.4931 180.076 47.3998C180.169 47.3331 180.383 47.2998 180.716 47.2998L181.576 47.3198C181.309 47.5465 181.109 47.8198 180.976 48.1398L180.316 49.6798H181.836L181.596 50.1198H180.136C180.043 50.3331 179.949 50.5465 179.856 50.7598C179.776 50.9731 179.683 51.1931 179.576 51.4198C179.296 52.0331 179.056 52.6131 178.856 53.1598C178.616 53.7865 178.423 54.3265 178.276 54.7798C178.143 55.2331 178.063 55.5931 178.036 55.8598C177.983 56.5131 178.156 56.8398 178.556 56.8398C178.929 56.8398 179.383 56.4398 179.916 55.6398L180.156 55.9198C179.516 56.8265 178.883 57.2798 178.256 57.2798ZM186.476 57.3598C185.809 57.3598 185.296 57.1598 184.936 56.7598C184.642 56.4265 184.496 56.0265 184.496 55.5598C184.496 54.8798 184.709 54.5398 185.136 54.5398C185.296 54.5398 185.442 54.5998 185.576 54.7198C185.709 54.8531 185.776 55.0065 185.776 55.1798C185.776 55.2865 185.749 55.3731 185.696 55.4398C185.522 55.6531 185.436 55.8865 185.436 56.1398C185.436 56.3931 185.516 56.5998 185.676 56.7598C185.849 56.9331 186.069 57.0198 186.336 57.0198C186.616 57.0198 186.869 56.9265 187.096 56.7398C187.402 56.4598 187.556 56.0731 187.556 55.5798C187.556 55.1531 187.442 54.6731 187.216 54.1398C187.122 54.0065 187.009 53.8331 186.876 53.6198C186.756 53.4065 186.616 53.1531 186.456 52.8598C186.362 52.6998 186.296 52.5398 186.256 52.3798C186.229 52.2065 186.216 52.0398 186.216 51.8798C186.216 51.3198 186.422 50.8731 186.836 50.5398C187.262 50.1931 187.809 50.0198 188.476 50.0198C188.662 50.0198 188.842 50.0398 189.016 50.0798C189.202 50.1198 189.369 50.1931 189.516 50.2998C189.822 50.5265 189.976 50.8065 189.976 51.1398C189.976 51.2865 189.949 51.4198 189.896 51.5398C189.776 51.8865 189.516 52.0598 189.116 52.0598C188.676 52.0598 188.456 51.8331 188.456 51.3798C188.456 51.2465 188.476 51.1331 188.516 51.0398C188.556 50.9065 188.702 50.7731 188.956 50.6398C188.862 50.4665 188.689 50.3798 188.436 50.3798C188.209 50.3798 188.042 50.4331 187.936 50.5398C187.616 50.8198 187.456 51.1731 187.456 51.5998C187.456 51.8931 187.536 52.2131 187.696 52.5598C187.722 52.6131 187.982 53.0331 188.476 53.8198C188.809 54.3531 188.976 54.7998 188.976 55.1598C188.976 55.7331 188.709 56.2398 188.176 56.6798C187.642 57.1331 187.076 57.3598 186.476 57.3598ZM191.676 57.3598C191.156 57.3598 190.71 57.1931 190.336 56.8598C190.136 56.6731 189.99 56.4598 189.896 56.2198C189.816 55.9665 189.776 55.6798 189.776 55.3598C189.776 54.1331 190.283 52.9131 191.296 51.6998C192.15 50.6731 193.036 50.1598 193.956 50.1598C194.263 50.1598 194.523 50.2398 194.736 50.3998C194.963 50.5865 195.076 50.8265 195.076 51.1198C195.076 51.8531 194.59 52.5865 193.616 53.3198C193.31 53.5465 192.903 53.7465 192.396 53.9198C191.836 54.1065 191.43 54.1998 191.176 54.1998C190.99 54.6531 190.896 55.1331 190.896 55.6398C190.896 56.5065 191.216 56.9398 191.856 56.9398C192.696 56.9398 193.483 56.3931 194.216 55.2998L194.296 55.1798L194.636 55.3198L194.576 55.4398C194.243 56.1065 193.823 56.5931 193.316 56.8998C192.81 57.2065 192.263 57.3598 191.676 57.3598ZM191.296 53.8598C191.523 53.8598 191.836 53.7865 192.236 53.6398C192.463 53.5465 192.676 53.4465 192.876 53.3398C193.09 53.2331 193.276 53.1131 193.436 52.9798C194.17 52.3665 194.536 51.7198 194.536 51.0398C194.536 50.7465 194.43 50.5998 194.216 50.5998C193.843 50.5998 193.276 51.0598 192.516 51.9798C192.13 52.4465 191.723 53.0731 191.296 53.8598ZM194.669 57.4198C194.923 56.7798 195.256 55.9798 195.669 55.0198C196.096 54.0598 196.576 52.9665 197.109 51.7398C197.216 51.4731 197.316 51.2598 197.409 51.0998C197.516 50.9398 197.609 50.8131 197.689 50.7198C197.863 50.5198 198.096 50.4398 198.389 50.4798L198.809 50.5398C198.903 50.5531 198.983 50.5665 199.049 50.5798C199.129 50.5798 199.196 50.5731 199.249 50.5598C198.983 50.6931 198.669 51.0731 198.309 51.6998C197.963 52.3131 197.576 53.1531 197.149 54.2198C197.296 54.0331 197.483 53.7865 197.709 53.4798C197.936 53.1598 198.223 52.7931 198.569 52.3798C198.956 51.9265 199.356 51.5065 199.769 51.1198C200.183 50.7331 200.583 50.5398 200.969 50.5398C201.276 50.5398 201.496 50.6398 201.629 50.8398C201.763 51.0398 201.829 51.2665 201.829 51.5198C201.829 51.8265 201.709 52.0998 201.469 52.3398C201.229 52.5798 200.996 52.6998 200.769 52.6998C200.676 52.6998 200.576 52.6798 200.469 52.6398C200.376 52.5998 200.329 52.5398 200.329 52.4598C200.329 52.3931 200.343 52.3331 200.369 52.2798C200.396 52.2131 200.409 52.1398 200.409 52.0598C200.409 51.8598 200.316 51.7598 200.129 51.7598C200.063 51.7598 199.969 51.7798 199.849 51.8198C199.743 51.8465 199.596 51.9531 199.409 52.1398C199.036 52.4865 198.629 52.9065 198.189 53.3998C197.763 53.8798 197.356 54.4198 196.969 55.0198C196.596 55.6198 196.289 56.2798 196.049 56.9998C195.983 57.1998 195.783 57.3065 195.449 57.3198C194.996 57.3465 194.736 57.3798 194.669 57.4198ZM202.548 57.4198C201.654 57.4198 201.208 56.8665 201.208 55.7598C201.208 55.1331 201.348 54.4731 201.628 53.7798C201.841 53.2598 202.054 52.7531 202.268 52.2598C202.494 51.7665 202.714 51.2931 202.928 50.8398C203.074 50.5598 203.334 50.4198 203.708 50.4198H204.928C204.688 50.5931 204.461 50.8198 204.248 51.0998C204.034 51.3798 203.834 51.7131 203.648 52.0998C202.781 53.8598 202.348 55.1198 202.348 55.8798C202.348 56.4665 202.581 56.7598 203.048 56.7598C203.848 56.7598 204.688 55.6598 205.568 53.4598C205.394 53.0998 205.308 52.6731 205.308 52.1798C205.308 51.9398 205.341 51.6998 205.408 51.4598C205.554 50.9665 205.774 50.5931 206.068 50.3398C206.334 50.0998 206.581 49.9798 206.808 49.9798C207.048 49.9798 207.168 50.0865 207.168 50.2998L207.068 50.6598C206.774 51.5665 206.494 52.3665 206.228 53.0598C205.974 53.7398 205.728 54.3131 205.488 54.7798C204.568 56.5398 203.588 57.4198 202.548 57.4198ZM209.988 49.5398C209.535 49.5398 209.308 49.3198 209.308 48.8798C209.308 48.4398 209.522 48.2198 209.948 48.2198C210.402 48.2198 210.628 48.4398 210.628 48.8798C210.628 49.3198 210.415 49.5398 209.988 49.5398ZM207.268 57.2798C206.882 57.2798 206.688 57.0865 206.688 56.6998C206.688 56.4598 206.768 56.1331 206.928 55.7198C207.275 54.8665 207.602 54.0798 207.908 53.3598C208.215 52.6398 208.502 51.9865 208.768 51.3998C208.808 51.3331 208.828 51.2598 208.828 51.1798C208.828 50.9931 208.742 50.7931 208.568 50.5798L209.668 50.5598C210.042 50.5598 210.228 50.6531 210.228 50.8398C210.228 50.8931 210.215 50.9531 210.188 51.0198C210.162 51.0731 210.128 51.1531 210.088 51.2598L208.248 55.5198C208.062 55.9598 207.968 56.3331 207.968 56.6398C207.968 56.9598 208.068 57.1731 208.268 57.2798H207.268ZM212.346 57.3598C211.013 57.3598 210.346 56.6931 210.346 55.3598C210.346 54.2398 210.733 53.1331 211.506 52.0398C212.346 50.8398 213.313 50.2398 214.406 50.2398C215.419 50.2398 215.873 50.6998 215.766 51.6198C215.753 51.8598 215.626 52.1198 215.386 52.3998C215.159 52.6665 214.939 52.7998 214.726 52.7998C214.606 52.7998 214.506 52.7598 214.426 52.6798C214.759 52.3465 214.966 52.0065 215.046 51.6598C215.073 51.5665 215.093 51.4865 215.106 51.4198C215.119 51.3398 215.126 51.2665 215.126 51.1998C215.126 50.8531 214.966 50.6798 214.646 50.6798C214.179 50.6798 213.526 51.2465 212.686 52.3798C211.886 53.4598 211.486 54.5131 211.486 55.5398C211.486 56.5131 211.859 56.9998 212.606 56.9998C213.326 56.9998 214.026 56.5465 214.706 55.6398L214.826 55.4798L215.106 55.6398L214.966 55.8398C214.259 56.8531 213.386 57.3598 212.346 57.3598ZM217.497 57.3598C216.977 57.3598 216.53 57.1931 216.157 56.8598C215.957 56.6731 215.81 56.4598 215.717 56.2198C215.637 55.9665 215.597 55.6798 215.597 55.3598C215.597 54.1331 216.103 52.9131 217.117 51.6998C217.97 50.6731 218.857 50.1598 219.777 50.1598C220.083 50.1598 220.343 50.2398 220.557 50.3998C220.783 50.5865 220.897 50.8265 220.897 51.1198C220.897 51.8531 220.41 52.5865 219.437 53.3198C219.13 53.5465 218.723 53.7465 218.217 53.9198C217.657 54.1065 217.25 54.1998 216.997 54.1998C216.81 54.6531 216.717 55.1331 216.717 55.6398C216.717 56.5065 217.037 56.9398 217.677 56.9398C218.517 56.9398 219.303 56.3931 220.037 55.2998L220.117 55.1798L220.457 55.3198L220.397 55.4398C220.063 56.1065 219.643 56.5931 219.137 56.8998C218.63 57.2065 218.083 57.3598 217.497 57.3598ZM217.117 53.8598C217.343 53.8598 217.657 53.7865 218.057 53.6398C218.283 53.5465 218.497 53.4465 218.697 53.3398C218.91 53.2331 219.097 53.1131 219.257 52.9798C219.99 52.3665 220.357 51.7198 220.357 51.0398C220.357 50.7465 220.25 50.5998 220.037 50.5998C219.663 50.5998 219.097 51.0598 218.337 51.9798C217.95 52.4465 217.543 53.0731 217.117 53.8598Z" fill="currentColor"/>
</svg>
