<svg width="871" height="72" viewBox="0 0 871 72" fill="currentColor" xmlns="http://www.w3.org/2000/svg">
<path d="M6.08001 71.6001C4.53334 71.6001 3.22668 71.2801 2.16001 70.6401C0.720008 69.8401 8.10623e-06 68.5867 8.10623e-06 66.8801C8.10623e-06 65.3867 0.480008 64.0534 1.44001 62.8801C2.50668 61.6534 3.73334 61.0401 5.12001 61.0401C6.13334 61.0401 7.01334 61.4134 7.76001 62.1601C8.40001 62.9067 8.72001 63.6534 8.72001 64.4001C8.72001 65.7334 8.21334 66.8267 7.20001 67.6801C6.34668 68.4801 5.38668 68.8801 4.32001 68.8801C3.30667 68.8801 2.42667 68.5067 1.68001 67.7601C2.00001 68.9334 3.09334 69.5201 4.96001 69.5201C7.78668 69.5201 11.1467 67.6267 15.04 63.8401C16.48 62.4534 18.0267 60.7734 19.68 58.8001C21.28 56.8801 22.96 54.6401 24.72 52.0801C25.8933 50.3734 27.04 48.6934 28.16 47.0401C29.28 45.3334 30.4267 43.6267 31.6 41.9201C27.7067 35.9467 25.76 30.3201 25.76 25.0401C25.76 22.0001 26.4533 19.5467 27.84 17.6801C29.28 15.8134 31.12 14.8801 33.36 14.8801C37.52 14.8801 41.8667 17.7601 46.4 23.5201C51.52 18.2401 56.7467 13.7601 62.08 10.0801C69.2267 5.12006 75.12 2.64005 79.76 2.64005C81.6267 2.64005 82.56 3.04005 82.56 3.84006C82.56 4.05339 82.48 4.32006 82.32 4.64006C70.32 26.1334 63.6 40.7201 62.16 48.4001C62.0533 49.1467 61.9467 49.8401 61.84 50.4801C61.7867 51.1201 61.76 51.7067 61.76 52.2401C61.76 55.6001 63.12 57.2801 65.84 57.2801C68.6133 57.2801 72.5067 52.0534 77.52 41.6001C77.7333 41.0667 78.0267 40.7467 78.4 40.6401H78.48C78.6933 40.6401 78.8 40.8267 78.8 41.2001C78.8 41.5201 78.6667 41.9467 78.4 42.4801C76.9067 45.4667 75.7067 47.8401 74.8 49.6001C73.9467 51.3601 73.36 52.4801 73.04 52.9601C71.5467 55.3067 70.0533 57.0401 68.56 58.1601C67.0667 59.2801 65.6 59.8401 64.16 59.8401C62.3467 59.8401 60.6133 59.1467 58.96 57.7601C56.88 55.9467 55.7333 53.4134 55.52 50.1601C54.08 41.4134 50.9067 33.9467 46 27.7601C44.2933 29.5734 42.48 31.6801 40.56 34.0801C38.6933 36.4801 36.6933 39.1734 34.56 42.1601C37.0133 46.0534 39.8133 49.6534 42.96 52.9601C46.16 56.2667 49.7067 59.2534 53.6 61.9201C53.9733 62.1334 54.16 62.4001 54.16 62.7201C54.16 63.1467 54 63.3601 53.68 63.3601C53.52 63.3601 53.28 63.2801 52.96 63.1201C51.4667 62.2134 49.92 61.1201 48.32 59.8401C46.72 58.6134 45.04 57.1734 43.28 55.5201C41.3067 53.7067 39.4667 51.8667 37.76 50.0001C36.1067 48.0801 34.56 46.1334 33.12 44.1601C29.4933 49.2801 26.6133 53.3067 24.48 56.2401C22.4 59.1734 21.0667 61.0134 20.48 61.7601C16.1067 67.2001 12.3467 70.3201 9.20001 71.1201C8.18668 71.4401 7.14668 71.6001 6.08001 71.6001ZM56.08 44.4801C56.4 43.0934 56.8533 41.6534 57.44 40.1601C58.08 38.6134 58.8533 37.0401 59.76 35.4401C64.3467 27.2801 68.96 19.8134 73.6 13.0401C74.1333 12.2934 74.4 11.6267 74.4 11.0401C74.4 10.3467 73.8933 10.0001 72.88 10.0001C69.7867 10.0001 65.3867 11.9734 59.68 15.9201C57.3867 17.5201 55.28 19.1467 53.36 20.8001C51.44 22.4001 49.6533 24.0267 48 25.6801C51.6267 31.1201 54.32 37.3867 56.08 44.4801ZM33.12 39.7601C35.2 36.9334 37.1467 34.3467 38.96 32.0001C40.8267 29.6534 42.5867 27.5734 44.24 25.7601C40.88 22.1867 37.8933 20.4001 35.28 20.4001C33.68 20.4001 32.4267 21.1201 31.52 22.5601C30.56 24.0534 30.08 25.9734 30.08 28.3201C30.08 32.0001 31.0933 35.8134 33.12 39.7601ZM73.0756 59.1201C74.1423 56.5067 75.4756 53.2801 77.0756 49.4401C78.6756 45.6001 80.6223 41.1734 82.9156 36.1601C83.3956 35.0934 83.849 34.2134 84.2756 33.5201C84.7023 32.8267 85.1023 32.2934 85.4756 31.9201C86.2223 31.1734 87.1823 30.8001 88.3556 30.8001C88.4623 30.8001 88.649 30.8001 88.9156 30.8001C89.1823 30.8001 89.5556 30.8534 90.0356 30.9601C90.7823 31.0134 91.3423 31.0134 91.7156 30.9601C89.7423 32.1334 86.7823 37.3067 82.8356 46.4801C83.4756 45.5734 84.329 44.5867 85.3956 43.5201C86.5156 42.4001 87.8223 41.1734 89.3156 39.8401C90.2756 38.9334 91.3423 38.0801 92.5156 37.2801C93.689 36.4267 94.969 35.6267 96.3556 34.8801C99.5023 33.1201 101.822 32.2401 103.316 32.2401C103.689 32.2401 103.956 32.2667 104.116 32.3201C103.262 33.8134 102.462 35.2534 101.716 36.6401C101.022 38.0267 100.356 39.3334 99.7156 40.5601C96.6223 46.5334 94.889 50.6667 94.5156 52.9601C94.4623 53.3334 94.409 53.6801 94.3556 54.0001C94.3556 54.3201 94.3556 54.6134 94.3556 54.8801C94.3556 56.2667 94.8623 56.9601 95.8756 56.9601C97.529 56.9601 99.5023 55.2801 101.796 51.9201L102.916 52.7201C100.196 56.8267 97.449 58.8801 94.6756 58.8801C91.3156 58.8801 89.6356 57.1467 89.6356 53.6801C89.6356 50.8534 91.369 46.6667 94.8356 41.1201C95.369 40.2667 95.6356 39.5467 95.6356 38.9601C95.6356 38.3201 95.3423 38.0001 94.7556 38.0001C94.169 38.0001 93.3956 38.3201 92.4356 38.9601C91.529 39.5467 90.4356 40.4267 89.1556 41.6001C87.129 43.4667 85.2356 45.7067 83.4756 48.3201C81.7156 50.8801 80.1156 53.8134 78.6756 57.1201C78.3556 57.9201 77.529 58.4001 76.1956 58.5601C74.489 58.7201 73.449 58.9067 73.0756 59.1201ZM117.79 27.6001C115.977 27.6001 115.07 26.7201 115.07 24.9601C115.07 23.2001 115.923 22.3201 117.63 22.3201C119.443 22.3201 120.35 23.2001 120.35 24.9601C120.35 26.7201 119.497 27.6001 117.79 27.6001ZM106.91 58.5601C105.363 58.5601 104.59 57.7867 104.59 56.2401C104.59 55.2801 104.91 53.9734 105.55 52.3201C106.937 48.9067 108.243 45.7601 109.47 42.8801C110.697 40.0001 111.843 37.3867 112.91 35.0401C113.07 34.7734 113.15 34.4801 113.15 34.1601C113.15 33.4134 112.803 32.6134 112.11 31.7601L116.51 31.6801C118.003 31.6801 118.75 32.0534 118.75 32.8001C118.75 33.0134 118.697 33.2534 118.59 33.5201C118.483 33.7334 118.35 34.0534 118.19 34.4801L110.83 51.5201C110.083 53.2801 109.71 54.7734 109.71 56.0001C109.71 57.2801 110.11 58.1334 110.91 58.5601H106.91ZM117.06 59.1201C118.127 56.5067 119.46 53.2801 121.06 49.4401C122.66 45.6001 124.607 41.1734 126.9 36.1601C127.38 35.0934 127.833 34.2134 128.26 33.5201C128.687 32.8267 129.087 32.2934 129.46 31.9201C130.207 31.1734 131.167 30.8001 132.34 30.8001C132.447 30.8001 132.633 30.8001 132.9 30.8001C133.167 30.8001 133.54 30.8534 134.02 30.9601C134.767 31.0134 135.327 31.0134 135.7 30.9601C133.727 32.1334 130.767 37.3067 126.82 46.4801C127.407 45.7334 128.153 44.8001 129.06 43.6801C129.967 42.5067 131.14 41.2267 132.58 39.8401C134.073 38.4001 135.3 37.2801 136.26 36.4801C137.22 35.6801 137.887 35.1467 138.26 34.8801C140.607 33.1201 142.34 32.2401 143.46 32.2401C145.007 32.2401 145.78 32.9867 145.78 34.4801C145.78 34.9601 145.673 35.4134 145.46 35.8401C144.82 37.0667 143.993 38.6134 142.98 40.4801C142.02 42.3467 140.9 44.5334 139.62 47.0401C142.18 43.8401 144.393 41.4134 146.26 39.7601C147.22 38.9067 148.287 38.0801 149.46 37.2801C150.687 36.4801 151.993 35.6801 153.38 34.8801C156.42 33.1201 158.713 32.2401 160.26 32.2401C160.633 32.2401 160.9 32.2667 161.06 32.3201C160.207 33.8134 159.407 35.2534 158.66 36.6401C157.967 38.0267 157.3 39.3334 156.66 40.5601C155.167 43.4934 153.993 46.0001 153.14 48.0801C152.287 50.1601 151.727 51.7867 151.46 52.9601C151.407 53.3334 151.353 53.6801 151.3 54.0001C151.3 54.3201 151.3 54.6134 151.3 54.8801C151.3 56.2667 151.807 56.9601 152.82 56.9601C154.473 56.9601 156.447 55.2801 158.74 51.9201L159.86 52.7201C157.14 56.8267 154.42 58.8801 151.7 58.8801C148.34 58.8801 146.66 57.1467 146.66 53.6801C146.66 50.8001 148.367 46.6134 151.78 41.1201C152.313 40.2667 152.58 39.5467 152.58 38.9601C152.58 38.3201 152.313 38.0001 151.78 38.0001C151.193 38.0001 150.42 38.3201 149.46 38.9601C148.5 39.5467 147.407 40.4001 146.18 41.5201C145.167 42.4801 144.1 43.6267 142.98 44.9601C141.913 46.2934 140.767 47.8134 139.54 49.5201C136.873 53.4134 135.3 56.4267 134.82 58.5601C133.913 58.5601 133.22 58.1334 132.74 57.2801C132.367 56.5334 132.18 55.7867 132.18 55.0401C132.18 53.9734 132.553 52.5601 133.3 50.8001C134.047 49.0401 135.087 46.9067 136.42 44.4001C137.967 41.6267 138.74 39.6267 138.74 38.4001C138.74 37.8667 138.527 37.6001 138.1 37.6001C137.247 37.6001 135.353 38.9334 132.42 41.6001C131.673 42.2934 130.873 43.1734 130.02 44.2401C129.22 45.2534 128.367 46.4534 127.46 47.8401C125.38 50.9334 123.78 54.0267 122.66 57.1201C122.34 57.9201 121.513 58.4001 120.18 58.5601C118.473 58.7201 117.433 58.9067 117.06 59.1201ZM168.263 58.5601C164.37 58.5601 162.423 56.1867 162.423 51.4401C162.423 49.0934 162.983 46.6134 164.103 44.0001C165.703 40.2134 167.97 37.0134 170.903 34.4001C173.783 31.8401 176.503 30.5601 179.063 30.5601C183.01 30.5601 184.983 32.8801 184.983 37.5201C184.983 39.9201 184.396 42.4534 183.223 45.1201C181.836 48.3201 179.836 51.2267 177.223 53.8401C173.97 56.9867 170.983 58.5601 168.263 58.5601ZM169.543 56.8001C170.77 56.8001 172.076 56.2934 173.463 55.2801C175.223 54.0001 177.223 51.3334 179.463 47.2801C181.916 42.9067 183.143 39.3867 183.143 36.7201C183.143 34.3201 182.13 33.1201 180.103 33.1201C178.503 33.1201 176.69 34.1334 174.663 36.1601C172.69 38.1334 171.01 40.6401 169.623 43.6801C167.756 47.6801 166.823 50.8801 166.823 53.2801C166.823 55.6267 167.73 56.8001 169.543 56.8001ZM183.388 59.1201C184.401 56.5601 185.735 53.3601 187.388 49.5201C189.095 45.6801 191.015 41.3067 193.148 36.4001C193.575 35.3334 193.975 34.4801 194.348 33.8401C194.775 33.2001 195.148 32.6934 195.468 32.3201C196.161 31.5201 197.095 31.2001 198.268 31.3601L199.948 31.6001C200.321 31.6534 200.641 31.7067 200.908 31.7601C201.228 31.7601 201.495 31.7334 201.708 31.6801C200.641 32.2134 199.388 33.7334 197.948 36.2401C196.561 38.6934 195.015 42.0534 193.308 46.3201C193.895 45.5734 194.641 44.5867 195.548 43.3601C196.455 42.0801 197.601 40.6134 198.988 38.9601C200.535 37.1467 202.135 35.4667 203.788 33.9201C205.441 32.3734 207.041 31.6001 208.588 31.6001C209.815 31.6001 210.695 32.0001 211.228 32.8001C211.761 33.6001 212.028 34.5067 212.028 35.5201C212.028 36.7467 211.548 37.8401 210.588 38.8001C209.628 39.7601 208.695 40.2401 207.788 40.2401C207.415 40.2401 207.015 40.1601 206.588 40.0001C206.215 39.8401 206.028 39.6001 206.028 39.2801C206.028 39.0134 206.081 38.7734 206.188 38.5601C206.295 38.2934 206.348 38.0001 206.348 37.6801C206.348 36.8801 205.975 36.4801 205.228 36.4801C204.961 36.4801 204.588 36.5601 204.108 36.7201C203.681 36.8267 203.095 37.2534 202.348 38.0001C200.855 39.3867 199.228 41.0667 197.468 43.0401C195.761 44.9601 194.135 47.1201 192.588 49.5201C191.095 51.9201 189.868 54.5601 188.908 57.4401C188.641 58.2401 187.841 58.6667 186.508 58.7201C184.695 58.8267 183.655 58.9601 183.388 59.1201ZM228.022 58.7201C226.849 58.7201 225.889 58.3734 225.142 57.6801C224.075 56.7734 223.542 55.2534 223.542 53.1201C223.542 51.7334 223.782 50.1601 224.262 48.4001C222.449 51.4401 220.555 53.9201 218.582 55.8401C216.555 57.7067 214.742 58.6401 213.142 58.6401C211.755 58.6401 210.662 58.0267 209.862 56.8001C209.009 55.6267 208.582 54.0001 208.582 51.9201C208.582 46.8534 210.849 41.6267 215.382 36.2401C216.129 35.3334 216.982 34.5067 217.942 33.7601C218.902 33.0134 219.942 32.3467 221.062 31.7601C223.355 30.5867 225.569 30.0001 227.702 30.0001C230.315 30.0001 232.395 30.8534 233.942 32.5601C234.315 32.9334 234.502 33.3601 234.502 33.8401C234.502 34.7467 234.022 35.0934 233.062 34.8801C232.529 32.9601 231.275 32.0001 229.302 32.0001C227.062 32.0001 224.422 33.5734 221.382 36.7201C220.315 37.8934 219.302 39.1201 218.342 40.4001C217.382 41.6267 216.475 42.9334 215.622 44.3201C213.329 48.1601 212.182 51.2801 212.182 53.6801C212.182 55.4934 212.875 56.4001 214.262 56.4001C215.809 56.4001 217.595 55.2267 219.622 52.8801C220.742 51.6001 221.889 50.0267 223.062 48.1601C224.235 46.2934 225.462 44.1334 226.742 41.6801C227.275 40.6667 227.755 39.8401 228.182 39.2001C228.609 38.5601 228.955 38.0801 229.222 37.7601C230.075 36.9067 231.089 36.5067 232.262 36.5601L233.862 36.8001C234.555 36.9601 235.142 36.9867 235.622 36.8801C235.142 37.3601 234.555 38.1334 233.862 39.2001C233.222 40.2134 232.475 41.5467 231.622 43.2001C230.715 44.9601 229.969 46.5601 229.382 48.0001C228.795 49.4401 228.395 50.7201 228.182 51.8401C228.075 52.3734 227.995 52.8801 227.942 53.3601C227.889 53.7867 227.862 54.1867 227.862 54.5601C227.862 55.9467 228.235 56.6401 228.982 56.6401C230.049 56.6401 231.515 55.4667 233.382 53.1201L233.702 52.7201L234.822 53.4401L234.502 53.9201C232.315 57.1201 230.155 58.7201 228.022 58.7201ZM257.593 63.2001C253.166 63.2001 250.9 61.4401 250.793 57.9201C250.793 56.4267 251.273 55.0934 252.233 53.9201C253.193 52.6934 254.366 52.0801 255.753 52.0801C256.766 52.0801 257.62 52.5067 258.313 53.3601C258.9 54.0001 259.193 54.8001 259.193 55.7601C259.193 58.3734 257.966 59.6801 255.513 59.6801C254.233 59.6801 253.326 59.1734 252.793 58.1601C253.06 60.0801 254.606 61.0401 257.433 61.0401C258.073 61.0401 258.66 60.9601 259.193 60.8001C265.433 59.2001 271.06 54.2934 276.073 46.0801L277.673 43.4401C274.74 39.2267 273.273 35.5201 273.273 32.3201C273.273 30.2401 273.886 28.6401 275.113 27.5201C276.286 26.3467 277.913 25.7601 279.993 25.7601C281.86 25.7601 283.993 26.2934 286.393 27.3601L290.473 19.4401C292.66 15.1201 294.766 11.7867 296.793 9.44006C299.246 6.50672 302.046 4.48006 305.193 3.36005C303.86 3.14672 302.446 3.01339 300.953 2.96005C299.513 2.85339 297.966 2.80006 296.313 2.80006C286.553 2.80006 279.62 4.00006 275.513 6.40006C274.18 7.20006 272.98 8.05339 271.913 8.96006C270.846 9.81339 269.94 10.6934 269.193 11.6001C267.7 13.4667 266.953 15.2001 266.953 16.8001C266.953 18.6667 268.046 19.8134 270.233 20.2401C270.98 20.4001 271.726 20.4801 272.473 20.4801C277.646 20.4801 282.446 18.3467 286.873 14.0801C287.086 13.8667 287.326 13.8134 287.593 13.9201C287.806 13.9734 287.913 14.1334 287.913 14.4001C287.913 14.5601 287.886 14.6667 287.833 14.7201C286.98 15.7867 285.94 16.7734 284.713 17.6801C283.486 18.5867 282.073 19.4134 280.473 20.1601C277.273 21.6534 274.18 22.4001 271.193 22.4001C268.846 22.4001 266.82 21.8667 265.113 20.8001C263.086 19.5734 262.073 17.8667 262.073 15.6801C262.073 13.7067 262.9 11.7867 264.553 9.92006C269.406 4.26672 279.14 1.44005 293.753 1.44005C296.1 1.44005 298.366 1.52006 300.553 1.68006C302.793 1.84006 304.98 2.10672 307.113 2.48006C308.98 2.00006 310.606 1.76006 311.993 1.76006C314.713 1.76006 316.073 2.42672 316.073 3.76005C316.073 4.40005 315.7 4.93339 314.953 5.36006C314.206 5.78672 313.326 6.00006 312.313 6.00006C311.726 6.00006 311.006 5.84006 310.153 5.52005C309.353 5.20006 308.393 4.69339 307.273 4.00006C304.713 4.96006 302.606 6.61339 300.953 8.96006C300.366 9.81339 299.726 11.0134 299.033 12.5601C298.34 14.1067 297.593 15.9734 296.793 18.1601C295.78 20.8801 294.846 23.3334 293.993 25.5201C293.193 27.6534 292.446 29.4934 291.753 31.0401C293.78 32.6934 295.62 34.6934 297.273 37.0401C298.606 38.8534 299.833 40.6934 300.953 42.5601C302.073 44.4267 303.14 46.3467 304.153 48.3201C304.26 42.9334 305.806 36.5867 308.793 29.2801C310.126 26.0801 311.566 23.0401 313.113 20.1601C314.713 17.2801 316.42 14.5601 318.233 12.0001C323.46 4.64006 328.553 0.640056 333.513 5.43594e-05H333.913C334.286 5.43594e-05 334.473 0.133388 334.473 0.400054C334.473 0.773389 334.313 0.960056 333.993 0.960056C330.366 1.38672 326.58 4.80006 322.633 11.2001C320.873 14.0267 319.22 17.1734 317.673 20.6401C316.126 24.1067 314.713 27.8667 313.433 31.9201C310.873 39.8134 309.593 46.2667 309.593 51.2801C309.593 55.8134 310.686 58.0801 312.873 58.0801C314.313 58.0801 316.073 56.7467 318.153 54.0801C320.18 51.5201 322.58 47.3601 325.353 41.6001C325.566 41.0667 325.833 40.7467 326.153 40.6401H326.233C326.446 40.6401 326.553 40.8267 326.553 41.2001C326.553 41.5201 326.42 41.9467 326.153 42.4801C323.22 48.4534 321.433 51.9467 320.793 52.9601C318.18 57.1734 315.54 59.4401 312.873 59.7601C312.66 59.8134 312.473 59.8401 312.313 59.8401C312.153 59.8401 311.966 59.8401 311.753 59.8401C308.393 59.8401 306.073 57.8401 304.793 53.8401C304.58 53.1467 304.206 52.2934 303.673 51.2801C303.14 50.2134 302.42 48.9334 301.513 47.4401C300.5 45.7334 299.46 44.1601 298.393 42.7201C297.38 41.2267 296.34 39.8934 295.273 38.7201C294.473 37.8134 293.673 36.9867 292.873 36.2401C292.073 35.4401 291.246 34.6934 290.393 34.0001C289.22 36.4534 287.993 38.7734 286.713 40.9601C285.486 43.0934 284.18 45.0934 282.793 46.9601C285.566 50.0534 288.713 52.5601 292.233 54.4801C292.5 54.5867 292.553 54.7734 292.393 55.0401C292.233 55.2001 292.02 55.2534 291.753 55.2001C288.126 53.6001 284.766 51.3067 281.673 48.3201C279.593 50.9334 277.246 53.4401 274.633 55.8401C272.02 58.2401 269.3 60.0534 266.473 61.2801C263.646 62.5601 260.686 63.2001 257.593 63.2001ZM278.793 41.4401C279.7 39.8934 280.633 38.2134 281.593 36.4001C282.606 34.5867 283.646 32.6667 284.713 30.6401C283.433 30.1067 282.18 29.8401 280.953 29.8401C277.966 29.8401 276.473 31.3601 276.473 34.4001C276.473 36.3201 277.246 38.6667 278.793 41.4401ZM327.794 58.5601C323.901 58.5601 321.954 56.1867 321.954 51.4401C321.954 49.0934 322.514 46.6134 323.634 44.0001C325.234 40.2134 327.501 37.0134 330.434 34.4001C333.314 31.8401 336.034 30.5601 338.594 30.5601C342.541 30.5601 344.514 32.8801 344.514 37.5201C344.514 39.9201 343.928 42.4534 342.754 45.1201C341.368 48.3201 339.368 51.2267 336.754 53.8401C333.501 56.9867 330.514 58.5601 327.794 58.5601ZM329.074 56.8001C330.301 56.8001 331.608 56.2934 332.994 55.2801C334.754 54.0001 336.754 51.3334 338.994 47.2801C341.448 42.9067 342.674 39.3867 342.674 36.7201C342.674 34.3201 341.661 33.1201 339.634 33.1201C338.034 33.1201 336.221 34.1334 334.194 36.1601C332.221 38.1334 330.541 40.6401 329.154 43.6801C327.288 47.6801 326.354 50.8801 326.354 53.2801C326.354 55.6267 327.261 56.8001 329.074 56.8001ZM351.719 58.5601C348.253 58.5601 346.519 56.6667 346.519 52.8801C346.519 52.1334 346.573 51.3601 346.679 50.5601C346.839 49.7601 347.079 48.9601 347.399 48.1601C350.226 40.6934 352.626 34.6134 354.599 29.9201H349.399L350.359 28.1601H355.319L357.239 22.5601C357.933 20.5867 358.519 19.4134 358.999 19.0401C359.373 18.7734 360.226 18.6401 361.559 18.6401L364.999 18.7201C363.933 19.6267 363.133 20.7201 362.599 22.0001L359.959 28.1601H366.039L365.079 29.9201H359.239C358.866 30.7734 358.493 31.6267 358.119 32.4801C357.799 33.3334 357.426 34.2134 356.999 35.1201C355.879 37.5734 354.919 39.8934 354.119 42.0801C353.159 44.5867 352.386 46.7467 351.799 48.5601C351.266 50.3734 350.946 51.8134 350.839 52.8801C350.626 55.4934 351.319 56.8001 352.919 56.8001C354.413 56.8001 356.226 55.2001 358.359 52.0001L359.319 53.1201C356.759 56.7467 354.226 58.5601 351.719 58.5601ZM364.499 58.5601C362.953 58.5601 362.179 57.7867 362.179 56.2401C362.179 55.2801 362.499 53.9734 363.139 52.3201L378.659 12.6401C378.766 12.4801 378.819 12.3201 378.819 12.1601C378.819 12.0001 378.819 11.8667 378.819 11.7601C378.819 10.9601 378.499 10.1334 377.859 9.28005H382.179C383.673 9.28005 384.419 9.62672 384.419 10.3201C384.419 10.6401 384.259 11.2001 383.939 12.0001L368.419 51.5201C367.726 53.2267 367.379 54.7467 367.379 56.0801C367.379 57.3067 367.753 58.1334 368.499 58.5601H364.499ZM383.604 58.8801C381.524 58.8801 379.737 58.2134 378.244 56.8801C377.444 56.1334 376.857 55.2801 376.484 54.3201C376.164 53.3067 376.004 52.1601 376.004 50.8801C376.004 45.9734 378.03 41.0934 382.084 36.2401C385.497 32.1334 389.044 30.0801 392.724 30.0801C393.95 30.0801 394.99 30.4001 395.844 31.0401C396.75 31.7867 397.204 32.7467 397.204 33.9201C397.204 36.8534 395.257 39.7867 391.364 42.7201C390.137 43.6267 388.51 44.4267 386.484 45.1201C384.244 45.8667 382.617 46.2401 381.604 46.2401C380.857 48.0534 380.484 49.9734 380.484 52.0001C380.484 55.4667 381.764 57.2001 384.324 57.2001C387.684 57.2001 390.83 55.0134 393.764 50.6401L394.084 50.1601L395.444 50.7201L395.204 51.2001C393.87 53.8667 392.19 55.8134 390.164 57.0401C388.137 58.2667 385.95 58.8801 383.604 58.8801ZM382.084 44.8801C382.99 44.8801 384.244 44.5867 385.844 44.0001C386.75 43.6267 387.604 43.2267 388.404 42.8001C389.257 42.3734 390.004 41.8934 390.644 41.3601C393.577 38.9067 395.044 36.3201 395.044 33.6001C395.044 32.4267 394.617 31.8401 393.764 31.8401C392.27 31.8401 390.004 33.6801 386.964 37.3601C385.417 39.2267 383.79 41.7334 382.084 44.8801ZM403.896 58.8801C401.229 58.8801 399.176 58.0801 397.736 56.4801C396.562 55.1467 395.976 53.5467 395.976 51.6801C395.976 48.9601 396.829 47.6001 398.536 47.6001C399.176 47.6001 399.762 47.8401 400.296 48.3201C400.829 48.8534 401.096 49.4667 401.096 50.1601C401.096 50.5867 400.989 50.9334 400.776 51.2001C400.082 52.0534 399.736 52.9867 399.736 54.0001C399.736 55.0134 400.056 55.8401 400.696 56.4801C401.389 57.1734 402.269 57.5201 403.336 57.5201C404.456 57.5201 405.469 57.1467 406.376 56.4001C407.602 55.2801 408.216 53.7334 408.216 51.7601C408.216 50.0534 407.762 48.1334 406.856 46.0001C406.482 45.4667 406.029 44.7734 405.496 43.9201C405.016 43.0667 404.456 42.0534 403.816 40.8801C403.442 40.2401 403.176 39.6001 403.016 38.9601C402.909 38.2667 402.856 37.6001 402.856 36.9601C402.856 34.7201 403.682 32.9334 405.336 31.6001C407.042 30.2134 409.229 29.5201 411.896 29.5201C412.642 29.5201 413.362 29.6001 414.056 29.7601C414.802 29.9201 415.469 30.2134 416.056 30.6401C417.282 31.5467 417.896 32.6667 417.896 34.0001C417.896 34.5867 417.789 35.1201 417.576 35.6001C417.096 36.9867 416.056 37.6801 414.456 37.6801C412.696 37.6801 411.816 36.7734 411.816 34.9601C411.816 34.4267 411.896 33.9734 412.056 33.6001C412.216 33.0667 412.802 32.5334 413.816 32.0001C413.442 31.3067 412.749 30.9601 411.736 30.9601C410.829 30.9601 410.162 31.1734 409.736 31.6001C408.456 32.7201 407.816 34.1334 407.816 35.8401C407.816 37.0134 408.136 38.2934 408.776 39.6801C408.882 39.8934 409.922 41.5734 411.896 44.7201C413.229 46.8534 413.896 48.6401 413.896 50.0801C413.896 52.3734 412.829 54.4001 410.696 56.1601C408.562 57.9734 406.296 58.8801 403.896 58.8801ZM432.757 60.8801C430.57 60.8801 429.397 60.0001 429.237 58.2401C429.21 57.4934 429.41 56.8267 429.837 56.2401C430.29 55.6267 430.864 55.3201 431.557 55.3201C432.064 55.3201 432.504 55.5334 432.877 55.9601C433.224 56.3601 433.397 56.7867 433.397 57.2401C433.397 58.4934 432.81 59.1201 431.637 59.1201C431.344 59.1201 431.064 59.0534 430.797 58.9201C430.557 58.8134 430.37 58.6267 430.237 58.3601C430.397 59.3201 431.197 59.8001 432.637 59.8001C432.957 59.8001 433.25 59.7601 433.517 59.6801C435.81 59.0667 437.744 57.7467 439.317 55.7201C440.01 54.8401 440.784 53.5867 441.637 51.9601C442.49 50.3334 443.437 48.3601 444.477 46.0401L449.757 34.3201C450.024 33.7334 450.317 33.2134 450.637 32.7601C450.984 32.2801 451.344 31.8267 451.717 31.4001C448.464 31.2934 445.144 31.8001 441.757 32.9201C438.184 34.1201 435.57 35.7467 433.917 37.8001C433.144 38.7867 432.757 39.6934 432.757 40.5201C432.757 42.2001 433.97 43.0401 436.397 43.0401C439.384 43.0401 441.81 41.8667 443.677 39.5201C444.13 38.9601 444.557 38.2934 444.957 37.5201C445.384 36.7201 445.77 35.7867 446.117 34.7201C446.197 34.5334 446.304 34.4401 446.437 34.4401C446.65 34.4401 446.717 34.5867 446.637 34.8801C446.53 35.2267 446.424 35.5734 446.317 35.9201C446.237 36.2667 446.13 36.6001 445.997 36.9201C445.784 37.5601 445.53 38.1601 445.237 38.7201C444.944 39.2534 444.624 39.7467 444.277 40.2001C442.49 42.7067 439.957 43.9601 436.677 43.9601C435.157 43.9601 433.97 43.5601 433.117 42.7601C432.237 41.9601 431.797 40.9601 431.797 39.7601C431.797 38.6934 432.17 37.6001 432.917 36.4801C434.17 34.5867 436.624 33.0801 440.277 31.9601C441.877 31.4801 443.53 31.1201 445.237 30.8801C446.97 30.6134 448.757 30.4801 450.597 30.4801C450.944 30.4801 451.277 30.4801 451.597 30.4801C451.944 30.4801 452.277 30.4934 452.597 30.5201C454.224 29.1067 455.917 28.4001 457.677 28.4001C458.37 28.4001 459.077 28.5467 459.797 28.8401C459.93 28.8934 459.997 29.0001 459.997 29.1601C459.997 29.4801 459.904 29.6001 459.717 29.5201C459.237 29.2801 458.704 29.1601 458.117 29.1601C456.81 29.1601 455.57 29.6801 454.397 30.7201C456.584 30.7467 458.29 31.2134 459.517 32.1201C461.25 33.4001 462.037 34.9067 461.877 36.6401C461.637 39.3601 459.944 41.5734 456.797 43.2801C454.397 44.6134 451.917 45.2801 449.357 45.2801C449.17 45.2801 448.97 45.2801 448.757 45.2801C448.57 45.2801 448.37 45.2667 448.157 45.2401C447.97 45.8267 447.704 46.5334 447.357 47.3601C447.01 48.1601 446.597 49.0667 446.117 50.0801C445.024 52.4001 443.384 54.6267 441.197 56.7601C438.37 59.5067 435.557 60.8801 432.757 60.8801ZM449.317 44.4001C451.13 44.4001 452.85 43.8401 454.477 42.7201C455.997 41.6801 457.237 40.2667 458.197 38.4801C458.624 37.6801 458.837 36.9067 458.837 36.1601C458.837 34.8267 458.304 33.7201 457.237 32.8401C456.17 31.9867 454.904 31.6134 453.437 31.7201C452.984 32.3067 452.49 33.1867 451.957 34.3601C451.424 35.5067 450.864 36.9467 450.277 38.6801C449.957 39.6134 449.65 40.5601 449.357 41.5201C449.064 42.4801 448.77 43.4267 448.477 44.3601C448.61 44.3867 448.744 44.4001 448.877 44.4001C449.037 44.4001 449.184 44.4001 449.317 44.4001ZM458.496 58.8401C459.003 57.5601 459.669 55.9601 460.496 54.0401C461.349 52.1201 462.309 49.9334 463.376 47.4801C463.589 46.9467 463.789 46.5201 463.976 46.2001C464.189 45.8801 464.376 45.6267 464.536 45.4401C464.883 45.0401 465.349 44.8801 465.936 44.9601L466.776 45.0801C466.963 45.1067 467.123 45.1334 467.256 45.1601C467.416 45.1601 467.549 45.1467 467.656 45.1201C467.123 45.3867 466.496 46.1467 465.776 47.4001C465.083 48.6267 464.309 50.3067 463.456 52.4401C463.749 52.0667 464.123 51.5734 464.576 50.9601C465.029 50.3201 465.603 49.5867 466.296 48.7601C467.069 47.8534 467.869 47.0134 468.696 46.2401C469.523 45.4667 470.323 45.0801 471.096 45.0801C471.709 45.0801 472.149 45.2801 472.416 45.6801C472.683 46.0801 472.816 46.5334 472.816 47.0401C472.816 47.6534 472.576 48.2001 472.096 48.6801C471.616 49.1601 471.149 49.4001 470.696 49.4001C470.509 49.4001 470.309 49.3601 470.096 49.2801C469.909 49.2001 469.816 49.0801 469.816 48.9201C469.816 48.7867 469.843 48.6667 469.896 48.5601C469.949 48.4267 469.976 48.2801 469.976 48.1201C469.976 47.7201 469.789 47.5201 469.416 47.5201C469.283 47.5201 469.096 47.5601 468.856 47.6401C468.643 47.6934 468.349 47.9067 467.976 48.2801C467.229 48.9734 466.416 49.8134 465.536 50.8001C464.683 51.7601 463.869 52.8401 463.096 54.0401C462.349 55.2401 461.736 56.5601 461.256 58.0001C461.123 58.4001 460.723 58.6134 460.056 58.6401C459.149 58.6934 458.629 58.7601 458.496 58.8401ZM474.893 58.7201C473.853 58.7201 472.959 58.3867 472.213 57.7201C471.813 57.3467 471.519 56.9201 471.333 56.4401C471.173 55.9334 471.093 55.3601 471.093 54.7201C471.093 52.2667 472.106 49.8267 474.133 47.4001C475.839 45.3467 477.613 44.3201 479.453 44.3201C480.066 44.3201 480.586 44.4801 481.013 44.8001C481.466 45.1734 481.693 45.6534 481.693 46.2401C481.693 47.7067 480.719 49.1734 478.773 50.6401C478.159 51.0934 477.346 51.4934 476.333 51.8401C475.213 52.2134 474.399 52.4001 473.893 52.4001C473.519 53.3067 473.333 54.2667 473.333 55.2801C473.333 57.0134 473.973 57.8801 475.253 57.8801C476.933 57.8801 478.506 56.7867 479.973 54.6001L480.133 54.3601L480.813 54.6401L480.693 54.8801C480.026 56.2134 479.186 57.1867 478.173 57.8001C477.159 58.4134 476.066 58.7201 474.893 58.7201ZM474.133 51.7201C474.586 51.7201 475.213 51.5734 476.013 51.2801C476.466 51.0934 476.893 50.8934 477.293 50.6801C477.719 50.4667 478.093 50.2267 478.413 49.9601C479.879 48.7334 480.613 47.4401 480.613 46.0801C480.613 45.4934 480.399 45.2001 479.973 45.2001C479.226 45.2001 478.093 46.1201 476.573 47.9601C475.799 48.8934 474.986 50.1467 474.133 51.7201ZM480.879 58.8401C481.412 57.5334 482.079 55.9201 482.879 54.0001C483.679 52.0801 484.652 49.8667 485.799 47.3601C486.039 46.8267 486.265 46.3867 486.479 46.0401C486.692 45.6934 486.892 45.4267 487.079 45.2401C487.452 44.8667 487.932 44.6801 488.519 44.6801C488.572 44.6801 488.665 44.6801 488.799 44.6801C488.932 44.6801 489.119 44.7067 489.359 44.7601C489.732 44.7867 490.012 44.7867 490.199 44.7601C489.212 45.3467 487.732 47.9334 485.759 52.5201C486.052 52.1467 486.425 51.6801 486.879 51.1201C487.332 50.5334 487.919 49.8934 488.639 49.2001C489.385 48.4801 489.999 47.9201 490.479 47.5201C490.959 47.1201 491.292 46.8534 491.479 46.7201C492.652 45.8401 493.519 45.4001 494.079 45.4001C494.852 45.4001 495.239 45.7734 495.239 46.5201C495.239 46.7601 495.185 46.9867 495.079 47.2001C494.759 47.8134 494.345 48.5867 493.839 49.5201C493.359 50.4534 492.799 51.5467 492.159 52.8001C493.439 51.2001 494.545 49.9867 495.479 49.1601C495.959 48.7334 496.492 48.3201 497.079 47.9201C497.692 47.5201 498.345 47.1201 499.039 46.7201C500.559 45.8401 501.705 45.4001 502.479 45.4001C502.665 45.4001 502.799 45.4134 502.879 45.4401C502.452 46.1867 502.052 46.9067 501.679 47.6001C501.332 48.2934 500.999 48.9467 500.679 49.5601C499.932 51.0267 499.345 52.2801 498.919 53.3201C498.492 54.3601 498.212 55.1734 498.079 55.7601C498.052 55.9467 498.025 56.1201 497.999 56.2801C497.999 56.4401 497.999 56.5867 497.999 56.7201C497.999 57.4134 498.252 57.7601 498.759 57.7601C499.585 57.7601 500.572 56.9201 501.719 55.2401L502.279 55.6401C500.919 57.6934 499.559 58.7201 498.199 58.7201C496.519 58.7201 495.679 57.8534 495.679 56.1201C495.679 54.6801 496.532 52.5867 498.239 49.8401C498.505 49.4134 498.639 49.0534 498.639 48.7601C498.639 48.4401 498.505 48.2801 498.239 48.2801C497.945 48.2801 497.559 48.4401 497.079 48.7601C496.599 49.0534 496.052 49.4801 495.439 50.0401C494.932 50.5201 494.399 51.0934 493.839 51.7601C493.305 52.4267 492.732 53.1867 492.119 54.0401C490.785 55.9867 489.999 57.4934 489.759 58.5601C489.305 58.5601 488.959 58.3467 488.719 57.9201C488.532 57.5467 488.439 57.1734 488.439 56.8001C488.439 56.2667 488.625 55.5601 488.999 54.6801C489.372 53.8001 489.892 52.7334 490.559 51.4801C491.332 50.0934 491.719 49.0934 491.719 48.4801C491.719 48.2134 491.612 48.0801 491.399 48.0801C490.972 48.0801 490.025 48.7467 488.559 50.0801C488.185 50.4267 487.785 50.8667 487.359 51.4001C486.959 51.9067 486.532 52.5067 486.079 53.2001C485.039 54.7467 484.239 56.2934 483.679 57.8401C483.519 58.2401 483.105 58.4801 482.439 58.5601C481.585 58.6401 481.065 58.7334 480.879 58.8401ZM509.72 43.0801C508.814 43.0801 508.36 42.6401 508.36 41.7601C508.36 40.8801 508.787 40.4401 509.64 40.4401C510.547 40.4401 511 40.8801 511 41.7601C511 42.6401 510.574 43.0801 509.72 43.0801ZM504.28 58.5601C503.507 58.5601 503.12 58.1734 503.12 57.4001C503.12 56.9201 503.28 56.2667 503.6 55.4401C504.294 53.7334 504.947 52.1601 505.56 50.7201C506.174 49.2801 506.747 47.9734 507.28 46.8001C507.36 46.6667 507.4 46.5201 507.4 46.3601C507.4 45.9867 507.227 45.5867 506.88 45.1601L509.08 45.1201C509.827 45.1201 510.2 45.3067 510.2 45.6801C510.2 45.7867 510.174 45.9067 510.12 46.0401C510.067 46.1467 510 46.3067 509.92 46.5201L506.24 55.0401C505.867 55.9201 505.68 56.6667 505.68 57.2801C505.68 57.9201 505.88 58.3467 506.28 58.5601H504.28ZM512.875 58.5201C511.169 58.5201 510.315 57.7201 510.315 56.1201C510.315 55.5601 510.475 54.8134 510.795 53.8801C511.115 52.9201 511.569 51.7867 512.155 50.4801L514.355 45.6401C514.595 45.0801 515.115 44.8001 515.915 44.8001H518.315C517.382 45.4934 516.529 46.6134 515.755 48.1601C515.462 48.7467 515.102 49.4801 514.675 50.3601C514.275 51.2134 513.809 52.2001 513.275 53.3201C512.769 54.3601 512.515 55.2934 512.515 56.1201C512.515 56.9734 512.809 57.4001 513.395 57.4001C514.035 57.4001 514.795 56.8934 515.675 55.8801C517.142 54.1734 519.115 50.7601 521.595 45.6401C521.889 45.0801 522.395 44.8001 523.115 44.8001H525.275C524.395 45.5201 523.475 46.8401 522.515 48.7601C521.182 51.4534 520.382 53.5067 520.115 54.9201C520.089 55.0801 520.062 55.2267 520.035 55.3601C520.035 55.4934 520.035 55.6267 520.035 55.7601C520.035 56.8001 520.395 57.3201 521.115 57.3201C521.889 57.3201 522.795 56.5601 523.835 55.0401L524.435 55.3201C522.995 57.4534 521.569 58.5201 520.155 58.5201C518.662 58.5201 517.915 57.5734 517.915 55.6801C517.915 54.9601 518.049 54.2001 518.315 53.4001C516.342 56.8134 514.529 58.5201 512.875 58.5201ZM524.316 58.8401C524.85 57.5334 525.516 55.9201 526.316 54.0001C527.116 52.0801 528.09 49.8667 529.236 47.3601C529.476 46.8267 529.703 46.3867 529.916 46.0401C530.13 45.6934 530.33 45.4267 530.516 45.2401C530.89 44.8667 531.37 44.6801 531.956 44.6801C532.01 44.6801 532.103 44.6801 532.236 44.6801C532.37 44.6801 532.556 44.7067 532.796 44.7601C533.17 44.7867 533.45 44.7867 533.636 44.7601C532.65 45.3467 531.17 47.9334 529.196 52.5201C529.49 52.1467 529.863 51.6801 530.316 51.1201C530.77 50.5334 531.356 49.8934 532.076 49.2001C532.823 48.4801 533.436 47.9201 533.916 47.5201C534.396 47.1201 534.73 46.8534 534.916 46.7201C536.09 45.8401 536.956 45.4001 537.516 45.4001C538.29 45.4001 538.676 45.7734 538.676 46.5201C538.676 46.7601 538.623 46.9867 538.516 47.2001C538.196 47.8134 537.783 48.5867 537.276 49.5201C536.796 50.4534 536.236 51.5467 535.596 52.8001C536.876 51.2001 537.983 49.9867 538.916 49.1601C539.396 48.7334 539.93 48.3201 540.516 47.9201C541.13 47.5201 541.783 47.1201 542.476 46.7201C543.996 45.8401 545.143 45.4001 545.916 45.4001C546.103 45.4001 546.236 45.4134 546.316 45.4401C545.89 46.1867 545.49 46.9067 545.116 47.6001C544.77 48.2934 544.436 48.9467 544.116 49.5601C543.37 51.0267 542.783 52.2801 542.356 53.3201C541.93 54.3601 541.65 55.1734 541.516 55.7601C541.49 55.9467 541.463 56.1201 541.436 56.2801C541.436 56.4401 541.436 56.5867 541.436 56.7201C541.436 57.4134 541.69 57.7601 542.196 57.7601C543.023 57.7601 544.01 56.9201 545.156 55.2401L545.716 55.6401C544.356 57.6934 542.996 58.7201 541.636 58.7201C539.956 58.7201 539.116 57.8534 539.116 56.1201C539.116 54.6801 539.97 52.5867 541.676 49.8401C541.943 49.4134 542.076 49.0534 542.076 48.7601C542.076 48.4401 541.943 48.2801 541.676 48.2801C541.383 48.2801 540.996 48.4401 540.516 48.7601C540.036 49.0534 539.49 49.4801 538.876 50.0401C538.37 50.5201 537.836 51.0934 537.276 51.7601C536.743 52.4267 536.17 53.1867 535.556 54.0401C534.223 55.9867 533.436 57.4934 533.196 58.5601C532.743 58.5601 532.396 58.3467 532.156 57.9201C531.97 57.5467 531.876 57.1734 531.876 56.8001C531.876 56.2667 532.063 55.5601 532.436 54.6801C532.81 53.8001 533.33 52.7334 533.996 51.4801C534.77 50.0934 535.156 49.0934 535.156 48.4801C535.156 48.2134 535.05 48.0801 534.836 48.0801C534.41 48.0801 533.463 48.7467 531.996 50.0801C531.623 50.4267 531.223 50.8667 530.796 51.4001C530.396 51.9067 529.97 52.5067 529.516 53.2001C528.476 54.7467 527.676 56.2934 527.116 57.8401C526.956 58.2401 526.543 58.4801 525.876 58.5601C525.023 58.6401 524.503 58.7334 524.316 58.8401ZM553.248 71.5201C553.061 71.3867 552.861 71.2134 552.648 71.0001C552.434 70.8134 552.181 70.5867 551.888 70.3201C551.328 69.7601 551.048 69.0934 551.048 68.3201C551.048 67.7601 551.208 66.9867 551.528 66.0001C551.794 65.2267 552.234 64.0667 552.848 62.5201C553.434 60.9734 554.221 59.0401 555.208 56.7201C555.501 56.0267 555.834 55.2134 556.208 54.2801C556.581 53.3201 556.981 52.2267 557.408 51.0001C557.514 50.7067 557.621 50.3734 557.728 50.0001C557.834 49.6001 557.941 49.1467 558.048 48.6401C558.101 48.3467 558.141 48.0801 558.168 47.8401C558.221 47.5734 558.248 47.3467 558.248 47.1601C558.248 46.2267 557.954 45.5601 557.368 45.1601L559.328 44.8401C559.541 44.8134 559.714 44.8001 559.848 44.8001C559.981 44.8001 560.061 44.8001 560.088 44.8001C560.541 44.8001 560.768 45.2667 560.768 46.2001C560.768 47.5067 560.394 49.2001 559.648 51.2801C562.421 46.7467 564.634 44.4801 566.288 44.4801C567.088 44.4801 567.728 44.8134 568.208 45.4801C568.608 46.0401 568.808 46.7467 568.808 47.6001C568.808 48.7734 568.488 50.1067 567.848 51.6001C567.154 53.1201 566.354 54.4267 565.448 55.5201C563.714 57.5734 561.768 58.6001 559.608 58.6001C558.621 58.6001 557.714 58.3467 556.888 57.8401C556.381 59.1201 555.914 60.4134 555.488 61.7201C555.088 63.0534 554.701 64.4134 554.328 65.8001C553.554 68.5734 553.194 70.4801 553.248 71.5201ZM558.488 57.7201C560.141 57.7201 561.981 56.3067 564.008 53.4801C565.981 50.7334 566.968 48.5334 566.968 46.8801C566.968 46.0267 566.608 45.6001 565.888 45.6001C564.874 45.6001 563.754 46.4534 562.528 48.1601C561.861 49.1201 561.074 50.3601 560.168 51.8801C559.288 53.4001 558.301 55.1867 557.208 57.2401C557.528 57.5601 557.954 57.7201 558.488 57.7201ZM572.588 58.7201C571.548 58.7201 570.655 58.3867 569.908 57.7201C569.508 57.3467 569.215 56.9201 569.028 56.4401C568.868 55.9334 568.788 55.3601 568.788 54.7201C568.788 52.2667 569.801 49.8267 571.828 47.4001C573.535 45.3467 575.308 44.3201 577.148 44.3201C577.761 44.3201 578.281 44.4801 578.708 44.8001C579.161 45.1734 579.388 45.6534 579.388 46.2401C579.388 47.7067 578.415 49.1734 576.468 50.6401C575.855 51.0934 575.041 51.4934 574.028 51.8401C572.908 52.2134 572.095 52.4001 571.588 52.4001C571.215 53.3067 571.028 54.2667 571.028 55.2801C571.028 57.0134 571.668 57.8801 572.948 57.8801C574.628 57.8801 576.201 56.7867 577.668 54.6001L577.828 54.3601L578.508 54.6401L578.388 54.8801C577.721 56.2134 576.881 57.1867 575.868 57.8001C574.855 58.4134 573.761 58.7201 572.588 58.7201ZM571.828 51.7201C572.281 51.7201 572.908 51.5734 573.708 51.2801C574.161 51.0934 574.588 50.8934 574.988 50.6801C575.415 50.4667 575.788 50.2267 576.108 49.9601C577.575 48.7334 578.308 47.4401 578.308 46.0801C578.308 45.4934 578.095 45.2001 577.668 45.2001C576.921 45.2001 575.788 46.1201 574.268 47.9601C573.495 48.8934 572.681 50.1467 571.828 51.7201ZM582.974 58.5601C581.241 58.5601 580.374 57.6134 580.374 55.7201C580.374 55.3467 580.401 54.9601 580.454 54.5601C580.534 54.1601 580.654 53.7601 580.814 53.3601C582.227 49.6267 583.427 46.5867 584.414 44.2401H581.814L582.294 43.3601H584.774L585.734 40.5601C586.081 39.5734 586.374 38.9867 586.614 38.8001C586.801 38.6667 587.227 38.6001 587.894 38.6001L589.614 38.6401C589.081 39.0934 588.681 39.6401 588.414 40.2801L587.094 43.3601H590.134L589.654 44.2401H586.734C586.547 44.6667 586.361 45.0934 586.174 45.5201C586.014 45.9467 585.827 46.3867 585.614 46.8401C585.054 48.0667 584.574 49.2267 584.174 50.3201C583.694 51.5734 583.307 52.6534 583.014 53.5601C582.747 54.4667 582.587 55.1867 582.534 55.7201C582.427 57.0267 582.774 57.6801 583.574 57.6801C584.321 57.6801 585.227 56.8801 586.294 55.2801L586.774 55.8401C585.494 57.6534 584.227 58.5601 582.974 58.5601ZM592.404 58.7201C589.737 58.7201 588.404 57.3867 588.404 54.7201C588.404 52.4801 589.177 50.2667 590.724 48.0801C592.404 45.6801 594.337 44.4801 596.524 44.4801C598.551 44.4801 599.457 45.4001 599.244 47.2401C599.217 47.7201 598.964 48.2401 598.484 48.8001C598.031 49.3334 597.591 49.6001 597.164 49.6001C596.924 49.6001 596.724 49.5201 596.564 49.3601C597.231 48.6934 597.644 48.0134 597.804 47.3201C597.857 47.1334 597.897 46.9734 597.924 46.8401C597.951 46.6801 597.964 46.5334 597.964 46.4001C597.964 45.7067 597.644 45.3601 597.004 45.3601C596.071 45.3601 594.764 46.4934 593.084 48.7601C591.484 50.9201 590.684 53.0267 590.684 55.0801C590.684 57.0267 591.431 58.0001 592.924 58.0001C594.364 58.0001 595.764 57.0934 597.124 55.2801L597.364 54.9601L597.924 55.2801L597.644 55.6801C596.231 57.7067 594.484 58.7201 592.404 58.7201ZM608.625 58.6401C608.039 58.6401 607.559 58.4667 607.185 58.1201C606.652 57.6667 606.385 56.9067 606.385 55.8401C606.385 55.1467 606.505 54.3601 606.745 53.4801C605.839 55.0001 604.892 56.2401 603.905 57.2001C602.892 58.1334 601.985 58.6001 601.185 58.6001C600.492 58.6001 599.945 58.2934 599.545 57.6801C599.119 57.0934 598.905 56.2801 598.905 55.2401C598.905 52.7067 600.039 50.0934 602.305 47.4001C602.679 46.9467 603.105 46.5334 603.585 46.1601C604.065 45.7867 604.585 45.4534 605.145 45.1601C606.292 44.5734 607.399 44.2801 608.465 44.2801C609.772 44.2801 610.812 44.7067 611.585 45.5601C611.772 45.7467 611.865 45.9601 611.865 46.2001C611.865 46.6534 611.625 46.8267 611.145 46.7201C610.879 45.7601 610.252 45.2801 609.265 45.2801C608.145 45.2801 606.825 46.0667 605.305 47.6401C604.772 48.2267 604.265 48.8401 603.785 49.4801C603.305 50.0934 602.852 50.7467 602.425 51.4401C601.279 53.3601 600.705 54.9201 600.705 56.1201C600.705 57.0267 601.052 57.4801 601.745 57.4801C602.519 57.4801 603.412 56.8934 604.425 55.7201C604.985 55.0801 605.559 54.2934 606.145 53.3601C606.732 52.4267 607.345 51.3467 607.985 50.1201C608.252 49.6134 608.492 49.2001 608.705 48.8801C608.919 48.5601 609.092 48.3201 609.225 48.1601C609.652 47.7334 610.159 47.5334 610.745 47.5601L611.545 47.6801C611.892 47.7601 612.185 47.7734 612.425 47.7201C612.185 47.9601 611.892 48.3467 611.545 48.8801C611.225 49.3867 610.852 50.0534 610.425 50.8801C609.972 51.7601 609.599 52.5601 609.305 53.2801C609.012 54.0001 608.812 54.6401 608.705 55.2001C608.652 55.4667 608.612 55.7201 608.585 55.9601C608.559 56.1734 608.545 56.3734 608.545 56.5601C608.545 57.2534 608.732 57.6001 609.105 57.6001C609.639 57.6001 610.372 57.0134 611.305 55.8401L611.465 55.6401L612.025 56.0001L611.865 56.2401C610.772 57.8401 609.692 58.6401 608.625 58.6401ZM612.441 58.8401C612.948 57.5601 613.615 55.9601 614.441 54.0401C615.295 52.1201 616.255 49.9334 617.321 47.4801C617.535 46.9467 617.735 46.5201 617.921 46.2001C618.135 45.8801 618.321 45.6267 618.481 45.4401C618.828 45.0401 619.295 44.8801 619.881 44.9601L620.721 45.0801C620.908 45.1067 621.068 45.1334 621.201 45.1601C621.361 45.1601 621.495 45.1467 621.601 45.1201C621.068 45.3867 620.441 46.1467 619.721 47.4001C619.028 48.6267 618.255 50.3067 617.401 52.4401C617.695 52.0667 618.068 51.5734 618.521 50.9601C618.975 50.3201 619.548 49.5867 620.241 48.7601C621.015 47.8534 621.815 47.0134 622.641 46.2401C623.468 45.4667 624.268 45.0801 625.041 45.0801C625.655 45.0801 626.095 45.2801 626.361 45.6801C626.628 46.0801 626.761 46.5334 626.761 47.0401C626.761 47.6534 626.521 48.2001 626.041 48.6801C625.561 49.1601 625.095 49.4001 624.641 49.4001C624.455 49.4001 624.255 49.3601 624.041 49.2801C623.855 49.2001 623.761 49.0801 623.761 48.9201C623.761 48.7867 623.788 48.6667 623.841 48.5601C623.895 48.4267 623.921 48.2801 623.921 48.1201C623.921 47.7201 623.735 47.5201 623.361 47.5201C623.228 47.5201 623.041 47.5601 622.801 47.6401C622.588 47.6934 622.295 47.9067 621.921 48.2801C621.175 48.9734 620.361 49.8134 619.481 50.8001C618.628 51.7601 617.815 52.8401 617.041 54.0401C616.295 55.2401 615.681 56.5601 615.201 58.0001C615.068 58.4001 614.668 58.6134 614.001 58.6401C613.095 58.6934 612.575 58.7601 612.441 58.8401ZM628.838 58.7201C627.798 58.7201 626.905 58.3867 626.158 57.7201C625.758 57.3467 625.465 56.9201 625.278 56.4401C625.118 55.9334 625.038 55.3601 625.038 54.7201C625.038 52.2667 626.051 49.8267 628.078 47.4001C629.785 45.3467 631.558 44.3201 633.398 44.3201C634.011 44.3201 634.531 44.4801 634.958 44.8001C635.411 45.1734 635.638 45.6534 635.638 46.2401C635.638 47.7067 634.665 49.1734 632.718 50.6401C632.105 51.0934 631.291 51.4934 630.278 51.8401C629.158 52.2134 628.345 52.4001 627.838 52.4001C627.465 53.3067 627.278 54.2667 627.278 55.2801C627.278 57.0134 627.918 57.8801 629.198 57.8801C630.878 57.8801 632.451 56.7867 633.918 54.6001L634.078 54.3601L634.758 54.6401L634.638 54.8801C633.971 56.2134 633.131 57.1867 632.118 57.8001C631.105 58.4134 630.011 58.7201 628.838 58.7201ZM628.078 51.7201C628.531 51.7201 629.158 51.5734 629.958 51.2801C630.411 51.0934 630.838 50.8934 631.238 50.6801C631.665 50.4667 632.038 50.2267 632.358 49.9601C633.825 48.7334 634.558 47.4401 634.558 46.0801C634.558 45.4934 634.345 45.2001 633.918 45.2001C633.171 45.2001 632.038 46.1201 630.518 47.9601C629.745 48.8934 628.931 50.1467 628.078 51.7201ZM642.754 58.8401C643.66 56.7601 644.954 53.7867 646.634 49.9201C648.34 46.0267 650.447 41.2534 652.954 35.6001C652.98 35.5201 652.994 35.4401 652.994 35.3601C653.02 35.2801 653.034 35.2001 653.034 35.1201C653.034 34.7467 652.874 34.3467 652.554 33.9201H654.714C655.46 33.9201 655.834 34.0934 655.834 34.4401C655.834 34.6267 655.754 34.9067 655.594 35.2801C654.767 37.0667 653.7 39.4134 652.394 42.3201C651.087 45.2267 649.527 48.6934 647.714 52.7201C648.114 52.1601 648.594 51.5867 649.154 51.0001C649.714 50.4134 650.34 49.8134 651.034 49.2001C651.514 48.7467 652.047 48.3201 652.634 47.9201C653.22 47.4934 653.86 47.0934 654.554 46.7201C656.127 45.8401 657.287 45.4001 658.034 45.4001C658.22 45.4001 658.354 45.4134 658.434 45.4401C658.007 46.1867 657.607 46.9067 657.234 47.6001C656.887 48.2934 656.554 48.9467 656.234 49.5601C654.687 52.5467 653.82 54.6134 653.634 55.7601C653.554 56.1601 653.514 56.5067 653.514 56.8001C653.514 57.5201 653.78 57.8801 654.314 57.8801C655.034 57.8801 656.007 56.9867 657.234 55.2001L657.834 55.5601C656.447 57.6667 655.074 58.7201 653.714 58.7201C652.034 58.7201 651.194 57.8534 651.194 56.1201C651.194 54.7067 652.06 52.6134 653.794 49.8401C654.06 49.4134 654.194 49.0534 654.194 48.7601C654.194 48.4401 654.047 48.2801 653.754 48.2801C653.46 48.2801 653.074 48.4401 652.594 48.7601C652.14 49.0534 651.594 49.4934 650.954 50.0801C649.94 51.0134 648.98 52.1467 648.074 53.4801C647.194 54.7867 646.367 56.2934 645.594 58.0001C645.407 58.4001 644.98 58.6134 644.314 58.6401C643.434 58.6934 642.914 58.7601 642.754 58.8401ZM662.027 58.5601C660.081 58.5601 659.107 57.3734 659.107 55.0001C659.107 53.8267 659.387 52.5867 659.947 51.2801C660.747 49.3867 661.881 47.7867 663.347 46.4801C664.787 45.2001 666.147 44.5601 667.427 44.5601C669.401 44.5601 670.387 45.7201 670.387 48.0401C670.387 49.2401 670.094 50.5067 669.507 51.8401C668.814 53.4401 667.814 54.8934 666.507 56.2001C664.881 57.7734 663.387 58.5601 662.027 58.5601ZM662.667 57.6801C663.281 57.6801 663.934 57.4267 664.627 56.9201C665.507 56.2801 666.507 54.9467 667.627 52.9201C668.854 50.7334 669.467 48.9734 669.467 47.6401C669.467 46.4401 668.961 45.8401 667.947 45.8401C667.147 45.8401 666.241 46.3467 665.227 47.3601C664.241 48.3467 663.401 49.6001 662.707 51.1201C661.774 53.1201 661.307 54.7201 661.307 55.9201C661.307 57.0934 661.761 57.6801 662.667 57.6801ZM673.99 58.5601C672.256 58.5601 671.39 57.6134 671.39 55.7201C671.39 55.3467 671.416 54.9601 671.47 54.5601C671.55 54.1601 671.67 53.7601 671.83 53.3601C673.243 49.6267 674.443 46.5867 675.43 44.2401H672.83L673.31 43.3601H675.79L676.75 40.5601C677.096 39.5734 677.39 38.9867 677.63 38.8001C677.816 38.6667 678.243 38.6001 678.91 38.6001L680.63 38.6401C680.096 39.0934 679.696 39.6401 679.43 40.2801L678.11 43.3601H681.15L680.67 44.2401H677.75C677.563 44.6667 677.376 45.0934 677.19 45.5201C677.03 45.9467 676.843 46.3867 676.63 46.8401C676.07 48.0667 675.59 49.2267 675.19 50.3201C674.71 51.5734 674.323 52.6534 674.03 53.5601C673.763 54.4667 673.603 55.1867 673.55 55.7201C673.443 57.0267 673.79 57.6801 674.59 57.6801C675.336 57.6801 676.243 56.8801 677.31 55.2801L677.79 55.8401C676.51 57.6534 675.243 58.5601 673.99 58.5601ZM682.94 58.7201C681.9 58.7201 681.006 58.3867 680.26 57.7201C679.86 57.3467 679.566 56.9201 679.38 56.4401C679.22 55.9334 679.14 55.3601 679.14 54.7201C679.14 52.2667 680.153 49.8267 682.18 47.4001C683.886 45.3467 685.66 44.3201 687.5 44.3201C688.113 44.3201 688.633 44.4801 689.06 44.8001C689.513 45.1734 689.74 45.6534 689.74 46.2401C689.74 47.7067 688.766 49.1734 686.82 50.6401C686.206 51.0934 685.393 51.4934 684.38 51.8401C683.26 52.2134 682.446 52.4001 681.94 52.4001C681.566 53.3067 681.38 54.2667 681.38 55.2801C681.38 57.0134 682.02 57.8801 683.3 57.8801C684.98 57.8801 686.553 56.7867 688.02 54.6001L688.18 54.3601L688.86 54.6401L688.74 54.8801C688.073 56.2134 687.233 57.1867 686.22 57.8001C685.206 58.4134 684.113 58.7201 682.94 58.7201ZM682.18 51.7201C682.633 51.7201 683.26 51.5734 684.06 51.2801C684.513 51.0934 684.94 50.8934 685.34 50.6801C685.766 50.4667 686.14 50.2267 686.46 49.9601C687.926 48.7334 688.66 47.4401 688.66 46.0801C688.66 45.4934 688.446 45.2001 688.02 45.2001C687.273 45.2001 686.14 46.1201 684.62 47.9601C683.846 48.8934 683.033 50.1467 682.18 51.7201ZM690.966 58.5601C690.192 58.5601 689.806 58.1734 689.806 57.4001C689.806 56.9201 689.966 56.2667 690.286 55.4401L698.046 35.6001C698.099 35.5201 698.126 35.4401 698.126 35.3601C698.126 35.2801 698.126 35.2134 698.126 35.1601C698.126 34.7601 697.966 34.3467 697.646 33.9201H699.806C700.552 33.9201 700.926 34.0934 700.926 34.4401C700.926 34.6001 700.846 34.8801 700.686 35.2801L692.926 55.0401C692.579 55.8934 692.406 56.6534 692.406 57.3201C692.406 57.9334 692.592 58.3467 692.966 58.5601H690.966ZM700.078 58.7201C698.744 58.7201 697.718 58.3201 696.998 57.5201C696.411 56.8534 696.118 56.0534 696.118 55.1201C696.118 53.7601 696.544 53.0801 697.398 53.0801C697.718 53.0801 698.011 53.2001 698.278 53.4401C698.544 53.7067 698.678 54.0134 698.678 54.3601C698.678 54.5734 698.624 54.7467 698.518 54.8801C698.171 55.3067 697.998 55.7734 697.998 56.2801C697.998 56.7867 698.158 57.2001 698.478 57.5201C698.824 57.8667 699.264 58.0401 699.798 58.0401C700.358 58.0401 700.864 57.8534 701.318 57.4801C701.931 56.9201 702.238 56.1467 702.238 55.1601C702.238 54.3067 702.011 53.3467 701.558 52.2801C701.371 52.0134 701.144 51.6667 700.878 51.2401C700.638 50.8134 700.358 50.3067 700.038 49.7201C699.851 49.4001 699.718 49.0801 699.638 48.7601C699.584 48.4134 699.558 48.0801 699.558 47.7601C699.558 46.6401 699.971 45.7467 700.798 45.0801C701.651 44.3867 702.744 44.0401 704.078 44.0401C704.451 44.0401 704.811 44.0801 705.158 44.1601C705.531 44.2401 705.864 44.3867 706.158 44.6001C706.771 45.0534 707.078 45.6134 707.078 46.2801C707.078 46.5734 707.024 46.8401 706.918 47.0801C706.678 47.7734 706.158 48.1201 705.358 48.1201C704.478 48.1201 704.038 47.6667 704.038 46.7601C704.038 46.4934 704.078 46.2667 704.158 46.0801C704.238 45.8134 704.531 45.5467 705.038 45.2801C704.851 44.9334 704.504 44.7601 703.998 44.7601C703.544 44.7601 703.211 44.8667 702.998 45.0801C702.358 45.6401 702.038 46.3467 702.038 47.2001C702.038 47.7867 702.198 48.4267 702.518 49.1201C702.571 49.2267 703.091 50.0667 704.078 51.6401C704.744 52.7067 705.078 53.6001 705.078 54.3201C705.078 55.4667 704.544 56.4801 703.478 57.3601C702.411 58.2667 701.278 58.7201 700.078 58.7201ZM723.848 60.3601C720.648 60.3601 718.142 59.6001 716.328 58.0801C714.675 56.6667 713.848 54.9201 713.848 52.8401C713.848 50.4667 714.835 48.3334 716.808 46.4401C719.022 44.3334 721.902 43.1067 725.448 42.7601C724.702 41.7734 724.328 40.6401 724.328 39.3601C724.328 36.6401 725.755 34.4001 728.608 32.6401C730.955 31.1734 733.502 30.4401 736.248 30.4401C736.968 30.4401 737.622 30.4934 738.208 30.6001C738.795 30.7067 739.302 30.9067 739.728 31.2001C740.768 31.7867 741.288 32.7067 741.288 33.9601C741.288 34.7067 741.048 35.3867 740.568 36.0001C740.088 36.6134 739.515 36.9201 738.848 36.9201C738.342 36.9201 737.902 36.7334 737.528 36.3601C737.155 35.9867 736.968 35.5334 736.968 35.0001C736.995 33.8001 737.635 33.2001 738.888 33.2001C739.608 33.2001 740.048 33.4401 740.208 33.9201C740.235 33.8401 740.248 33.7601 740.248 33.6801C740.248 33.6001 740.248 33.5201 740.248 33.4401C740.248 32.1601 739.288 31.5201 737.368 31.5201C734.782 31.5201 732.235 32.6134 729.728 34.8001C729.302 35.1467 728.902 35.5601 728.528 36.0401C728.182 36.5201 727.848 37.0267 727.528 37.5601C726.808 38.7867 726.448 39.9467 726.448 41.0401C726.448 41.6267 726.568 42.1601 726.808 42.6401C727.502 42.6134 728.088 42.6001 728.568 42.6001C729.048 42.5734 729.422 42.5601 729.688 42.5601C731.235 42.5601 732.008 43.0134 732.008 43.9201C732.008 44.6934 731.342 45.0801 730.008 45.0801C728.542 45.0801 727.195 44.4934 725.968 43.3201C723.462 43.6934 721.435 44.9334 719.888 47.0401C718.475 48.9334 717.768 51.0401 717.768 53.3601C717.768 55.1734 718.262 56.6801 719.248 57.8801C720.395 59.1867 721.928 59.8401 723.848 59.8401C726.462 59.8401 728.755 58.9334 730.728 57.1201C731.555 56.3734 732.235 55.5601 732.768 54.6801C733.302 53.7734 733.568 52.9201 733.568 52.1201C733.568 51.6134 733.435 51.1467 733.168 50.7201C732.928 50.2667 732.528 49.8934 731.968 49.6001C730.982 49.0401 729.755 48.7601 728.288 48.7601C727.248 48.7601 726.248 48.9201 725.288 49.2401C724.328 49.5334 723.542 49.9734 722.928 50.5601C722.315 51.1201 722.008 51.8267 722.008 52.6801C722.008 53.9067 722.902 54.9867 724.688 55.9201C724.928 56.0267 725.048 56.2401 725.048 56.5601C725.048 56.7201 724.982 56.8001 724.848 56.8001C724.768 56.8001 724.715 56.7867 724.688 56.7601C721.862 55.2401 720.448 53.5201 720.448 51.6001C720.448 50.0267 721.208 48.8401 722.728 48.0401C724.248 47.2401 726.182 46.8401 728.528 46.8401C729.142 46.8401 729.888 46.8667 730.768 46.9201C731.675 46.9734 732.622 47.0001 733.608 47.0001C734.622 47.0001 735.635 46.9467 736.648 46.8401C737.662 46.7334 738.582 46.5067 739.408 46.1601C741.515 45.2801 742.568 44.2934 742.568 43.2001C742.568 42.8001 742.448 42.4267 742.208 42.0801C741.968 41.7334 742.008 41.5601 742.328 41.5601C742.462 41.5601 742.568 41.6267 742.648 41.7601C743.048 42.3467 743.248 42.9334 743.248 43.5201C743.248 44.8801 742.302 46.0667 740.408 47.0801C738.515 48.0934 736.422 48.5734 734.128 48.5201C735.115 49.3467 735.608 50.3867 735.608 51.6401C735.608 53.6934 734.502 55.6267 732.288 57.4401C729.915 59.3867 727.102 60.3601 723.848 60.3601ZM730.008 44.4001C730.888 44.4001 731.328 44.2401 731.328 43.9201C731.328 43.4934 730.915 43.2667 730.088 43.2401C729.795 43.2134 729.502 43.2001 729.208 43.2001C728.915 43.1734 728.622 43.1601 728.328 43.1601C728.142 43.1601 727.942 43.1734 727.728 43.2001C727.542 43.2001 727.342 43.2001 727.128 43.2001C727.822 44.0001 728.782 44.4001 730.008 44.4001ZM749.956 58.8401C748.169 58.8401 747.276 57.7334 747.276 55.5201C747.276 54.2667 747.556 52.9467 748.116 51.5601C748.543 50.5201 748.969 49.5067 749.396 48.5201C749.849 47.5334 750.289 46.5867 750.716 45.6801C751.009 45.1201 751.529 44.8401 752.276 44.8401H754.716C754.236 45.1867 753.783 45.6401 753.356 46.2001C752.929 46.7601 752.529 47.4267 752.156 48.2001C750.423 51.7201 749.556 54.2401 749.556 55.7601C749.556 56.9334 750.023 57.5201 750.956 57.5201C752.556 57.5201 754.236 55.3201 755.996 50.9201C755.649 50.2001 755.476 49.3467 755.476 48.3601C755.476 47.8801 755.543 47.4001 755.676 46.9201C755.969 45.9334 756.409 45.1867 756.996 44.6801C757.529 44.2001 758.023 43.9601 758.476 43.9601C758.956 43.9601 759.196 44.1734 759.196 44.6001L758.996 45.3201C758.409 47.1334 757.849 48.7334 757.316 50.1201C756.809 51.4801 756.316 52.6267 755.836 53.5601C753.996 57.0801 752.036 58.8401 749.956 58.8401ZM764.838 43.0801C763.931 43.0801 763.478 42.6401 763.478 41.7601C763.478 40.8801 763.904 40.4401 764.758 40.4401C765.664 40.4401 766.118 40.8801 766.118 41.7601C766.118 42.6401 765.691 43.0801 764.838 43.0801ZM759.398 58.5601C758.624 58.5601 758.238 58.1734 758.238 57.4001C758.238 56.9201 758.398 56.2667 758.718 55.4401C759.411 53.7334 760.064 52.1601 760.678 50.7201C761.291 49.2801 761.864 47.9734 762.398 46.8001C762.478 46.6667 762.518 46.5201 762.518 46.3601C762.518 45.9867 762.344 45.5867 761.998 45.1601L764.198 45.1201C764.944 45.1201 765.318 45.3067 765.318 45.6801C765.318 45.7867 765.291 45.9067 765.238 46.0401C765.184 46.1467 765.118 46.3067 765.038 46.5201L761.358 55.0401C760.984 55.9201 760.798 56.6667 760.798 57.2801C760.798 57.9201 760.998 58.3467 761.398 58.5601H759.398ZM768.633 58.7201C767.299 58.7201 766.273 58.3201 765.553 57.5201C764.966 56.8534 764.673 56.0534 764.673 55.1201C764.673 53.7601 765.099 53.0801 765.953 53.0801C766.273 53.0801 766.566 53.2001 766.833 53.4401C767.099 53.7067 767.233 54.0134 767.233 54.3601C767.233 54.5734 767.179 54.7467 767.073 54.8801C766.726 55.3067 766.553 55.7734 766.553 56.2801C766.553 56.7867 766.713 57.2001 767.033 57.5201C767.379 57.8667 767.819 58.0401 768.353 58.0401C768.913 58.0401 769.419 57.8534 769.873 57.4801C770.486 56.9201 770.793 56.1467 770.793 55.1601C770.793 54.3067 770.566 53.3467 770.113 52.2801C769.926 52.0134 769.699 51.6667 769.433 51.2401C769.193 50.8134 768.913 50.3067 768.593 49.7201C768.406 49.4001 768.273 49.0801 768.193 48.7601C768.139 48.4134 768.113 48.0801 768.113 47.7601C768.113 46.6401 768.526 45.7467 769.353 45.0801C770.206 44.3867 771.299 44.0401 772.633 44.0401C773.006 44.0401 773.366 44.0801 773.713 44.1601C774.086 44.2401 774.419 44.3867 774.713 44.6001C775.326 45.0534 775.633 45.6134 775.633 46.2801C775.633 46.5734 775.579 46.8401 775.473 47.0801C775.233 47.7734 774.713 48.1201 773.913 48.1201C773.033 48.1201 772.593 47.6667 772.593 46.7601C772.593 46.4934 772.633 46.2667 772.713 46.0801C772.793 45.8134 773.086 45.5467 773.593 45.2801C773.406 44.9334 773.059 44.7601 772.553 44.7601C772.099 44.7601 771.766 44.8667 771.553 45.0801C770.913 45.6401 770.593 46.3467 770.593 47.2001C770.593 47.7867 770.753 48.4267 771.073 49.1201C771.126 49.2267 771.646 50.0667 772.633 51.6401C773.299 52.7067 773.633 53.6001 773.633 54.3201C773.633 55.4667 773.099 56.4801 772.033 57.3601C770.966 58.2667 769.833 58.7201 768.633 58.7201ZM781.673 43.0801C780.767 43.0801 780.313 42.6401 780.313 41.7601C780.313 40.8801 780.74 40.4401 781.593 40.4401C782.5 40.4401 782.953 40.8801 782.953 41.7601C782.953 42.6401 782.527 43.0801 781.673 43.0801ZM776.233 58.5601C775.46 58.5601 775.073 58.1734 775.073 57.4001C775.073 56.9201 775.233 56.2667 775.553 55.4401C776.247 53.7334 776.9 52.1601 777.513 50.7201C778.127 49.2801 778.7 47.9734 779.233 46.8001C779.313 46.6667 779.353 46.5201 779.353 46.3601C779.353 45.9867 779.18 45.5867 778.833 45.1601L781.033 45.1201C781.78 45.1201 782.153 45.3067 782.153 45.6801C782.153 45.7867 782.127 45.9067 782.073 46.0401C782.02 46.1467 781.953 46.3067 781.873 46.5201L778.193 55.0401C777.82 55.9201 777.633 56.6667 777.633 57.2801C777.633 57.9201 777.833 58.3467 778.233 58.5601H776.233ZM785.708 58.5601C783.975 58.5601 783.108 57.6134 783.108 55.7201C783.108 55.3467 783.135 54.9601 783.188 54.5601C783.268 54.1601 783.388 53.7601 783.548 53.3601C784.962 49.6267 786.162 46.5867 787.148 44.2401H784.548L785.028 43.3601H787.508L788.468 40.5601C788.815 39.5734 789.108 38.9867 789.348 38.8001C789.535 38.6667 789.962 38.6001 790.628 38.6001L792.348 38.6401C791.815 39.0934 791.415 39.6401 791.148 40.2801L789.828 43.3601H792.868L792.388 44.2401H789.468C789.282 44.6667 789.095 45.0934 788.908 45.5201C788.748 45.9467 788.562 46.3867 788.348 46.8401C787.788 48.0667 787.308 49.2267 786.908 50.3201C786.428 51.5734 786.042 52.6534 785.748 53.5601C785.482 54.4667 785.322 55.1867 785.268 55.7201C785.162 57.0267 785.508 57.6801 786.308 57.6801C787.055 57.6801 787.962 56.8801 789.028 55.2801L789.508 55.8401C788.228 57.6534 786.962 58.5601 785.708 58.5601ZM802.148 58.7201C800.815 58.7201 799.788 58.3201 799.068 57.5201C798.481 56.8534 798.188 56.0534 798.188 55.1201C798.188 53.7601 798.615 53.0801 799.468 53.0801C799.788 53.0801 800.081 53.2001 800.348 53.4401C800.615 53.7067 800.748 54.0134 800.748 54.3601C800.748 54.5734 800.695 54.7467 800.588 54.8801C800.241 55.3067 800.068 55.7734 800.068 56.2801C800.068 56.7867 800.228 57.2001 800.548 57.5201C800.895 57.8667 801.335 58.0401 801.868 58.0401C802.428 58.0401 802.935 57.8534 803.388 57.4801C804.001 56.9201 804.308 56.1467 804.308 55.1601C804.308 54.3067 804.081 53.3467 803.628 52.2801C803.441 52.0134 803.215 51.6667 802.948 51.2401C802.708 50.8134 802.428 50.3067 802.108 49.7201C801.921 49.4001 801.788 49.0801 801.708 48.7601C801.655 48.4134 801.628 48.0801 801.628 47.7601C801.628 46.6401 802.041 45.7467 802.868 45.0801C803.721 44.3867 804.815 44.0401 806.148 44.0401C806.521 44.0401 806.881 44.0801 807.228 44.1601C807.601 44.2401 807.935 44.3867 808.228 44.6001C808.841 45.0534 809.148 45.6134 809.148 46.2801C809.148 46.5734 809.095 46.8401 808.988 47.0801C808.748 47.7734 808.228 48.1201 807.428 48.1201C806.548 48.1201 806.108 47.6667 806.108 46.7601C806.108 46.4934 806.148 46.2667 806.228 46.0801C806.308 45.8134 806.601 45.5467 807.108 45.2801C806.921 44.9334 806.575 44.7601 806.068 44.7601C805.615 44.7601 805.281 44.8667 805.068 45.0801C804.428 45.6401 804.108 46.3467 804.108 47.2001C804.108 47.7867 804.268 48.4267 804.588 49.1201C804.641 49.2267 805.161 50.0667 806.148 51.6401C806.815 52.7067 807.148 53.6001 807.148 54.3201C807.148 55.4667 806.615 56.4801 805.548 57.3601C804.481 58.2667 803.348 58.7201 802.148 58.7201ZM812.549 58.7201C811.509 58.7201 810.616 58.3867 809.869 57.7201C809.469 57.3467 809.176 56.9201 808.989 56.4401C808.829 55.9334 808.749 55.3601 808.749 54.7201C808.749 52.2667 809.762 49.8267 811.789 47.4001C813.496 45.3467 815.269 44.3201 817.109 44.3201C817.722 44.3201 818.242 44.4801 818.669 44.8001C819.122 45.1734 819.349 45.6534 819.349 46.2401C819.349 47.7067 818.376 49.1734 816.429 50.6401C815.816 51.0934 815.002 51.4934 813.989 51.8401C812.869 52.2134 812.056 52.4001 811.549 52.4001C811.176 53.3067 810.989 54.2667 810.989 55.2801C810.989 57.0134 811.629 57.8801 812.909 57.8801C814.589 57.8801 816.162 56.7867 817.629 54.6001L817.789 54.3601L818.469 54.6401L818.349 54.8801C817.682 56.2134 816.842 57.1867 815.829 57.8001C814.816 58.4134 813.722 58.7201 812.549 58.7201ZM811.789 51.7201C812.242 51.7201 812.869 51.5734 813.669 51.2801C814.122 51.0934 814.549 50.8934 814.949 50.6801C815.376 50.4667 815.749 50.2267 816.069 49.9601C817.536 48.7334 818.269 47.4401 818.269 46.0801C818.269 45.4934 818.056 45.2001 817.629 45.2001C816.882 45.2001 815.749 46.1201 814.229 47.9601C813.456 48.8934 812.642 50.1467 811.789 51.7201ZM818.535 58.8401C819.042 57.5601 819.708 55.9601 820.535 54.0401C821.388 52.1201 822.348 49.9334 823.415 47.4801C823.628 46.9467 823.828 46.5201 824.015 46.2001C824.228 45.8801 824.415 45.6267 824.575 45.4401C824.922 45.0401 825.388 44.8801 825.975 44.9601L826.815 45.0801C827.002 45.1067 827.162 45.1334 827.295 45.1601C827.455 45.1601 827.588 45.1467 827.695 45.1201C827.162 45.3867 826.535 46.1467 825.815 47.4001C825.122 48.6267 824.348 50.3067 823.495 52.4401C823.788 52.0667 824.162 51.5734 824.615 50.9601C825.068 50.3201 825.642 49.5867 826.335 48.7601C827.108 47.8534 827.908 47.0134 828.735 46.2401C829.562 45.4667 830.362 45.0801 831.135 45.0801C831.748 45.0801 832.188 45.2801 832.455 45.6801C832.722 46.0801 832.855 46.5334 832.855 47.0401C832.855 47.6534 832.615 48.2001 832.135 48.6801C831.655 49.1601 831.188 49.4001 830.735 49.4001C830.548 49.4001 830.348 49.3601 830.135 49.2801C829.948 49.2001 829.855 49.0801 829.855 48.9201C829.855 48.7867 829.882 48.6667 829.935 48.5601C829.988 48.4267 830.015 48.2801 830.015 48.1201C830.015 47.7201 829.828 47.5201 829.455 47.5201C829.322 47.5201 829.135 47.5601 828.895 47.6401C828.682 47.6934 828.388 47.9067 828.015 48.2801C827.268 48.9734 826.455 49.8134 825.575 50.8001C824.722 51.7601 823.908 52.8401 823.135 54.0401C822.388 55.2401 821.775 56.5601 821.295 58.0001C821.162 58.4001 820.762 58.6134 820.095 58.6401C819.188 58.6934 818.668 58.7601 818.535 58.8401ZM834.292 58.8401C832.505 58.8401 831.612 57.7334 831.612 55.5201C831.612 54.2667 831.892 52.9467 832.452 51.5601C832.879 50.5201 833.305 49.5067 833.732 48.5201C834.185 47.5334 834.625 46.5867 835.052 45.6801C835.345 45.1201 835.865 44.8401 836.612 44.8401H839.052C838.572 45.1867 838.119 45.6401 837.692 46.2001C837.265 46.7601 836.865 47.4267 836.492 48.2001C834.759 51.7201 833.892 54.2401 833.892 55.7601C833.892 56.9334 834.359 57.5201 835.292 57.5201C836.892 57.5201 838.572 55.3201 840.332 50.9201C839.985 50.2001 839.812 49.3467 839.812 48.3601C839.812 47.8801 839.879 47.4001 840.012 46.9201C840.305 45.9334 840.745 45.1867 841.332 44.6801C841.865 44.2001 842.359 43.9601 842.812 43.9601C843.292 43.9601 843.532 44.1734 843.532 44.6001L843.332 45.3201C842.745 47.1334 842.185 48.7334 841.652 50.1201C841.145 51.4801 840.652 52.6267 840.172 53.5601C838.332 57.0801 836.372 58.8401 834.292 58.8401ZM849.173 43.0801C848.267 43.0801 847.813 42.6401 847.813 41.7601C847.813 40.8801 848.24 40.4401 849.093 40.4401C850 40.4401 850.453 40.8801 850.453 41.7601C850.453 42.6401 850.027 43.0801 849.173 43.0801ZM843.733 58.5601C842.96 58.5601 842.573 58.1734 842.573 57.4001C842.573 56.9201 842.733 56.2667 843.053 55.4401C843.747 53.7334 844.4 52.1601 845.013 50.7201C845.627 49.2801 846.2 47.9734 846.733 46.8001C846.813 46.6667 846.853 46.5201 846.853 46.3601C846.853 45.9867 846.68 45.5867 846.333 45.1601L848.533 45.1201C849.28 45.1201 849.653 45.3067 849.653 45.6801C849.653 45.7867 849.627 45.9067 849.573 46.0401C849.52 46.1467 849.453 46.3067 849.373 46.5201L845.693 55.0401C845.32 55.9201 845.133 56.6667 845.133 57.2801C845.133 57.9201 845.333 58.3467 845.733 58.5601H843.733ZM853.888 58.7201C851.222 58.7201 849.888 57.3867 849.888 54.7201C849.888 52.4801 850.662 50.2667 852.208 48.0801C853.888 45.6801 855.822 44.4801 858.008 44.4801C860.035 44.4801 860.942 45.4001 860.728 47.2401C860.702 47.7201 860.448 48.2401 859.968 48.8001C859.515 49.3334 859.075 49.6001 858.648 49.6001C858.408 49.6001 858.208 49.5201 858.048 49.3601C858.715 48.6934 859.128 48.0134 859.288 47.3201C859.342 47.1334 859.382 46.9734 859.408 46.8401C859.435 46.6801 859.448 46.5334 859.448 46.4001C859.448 45.7067 859.128 45.3601 858.488 45.3601C857.555 45.3601 856.248 46.4934 854.568 48.7601C852.968 50.9201 852.168 53.0267 852.168 55.0801C852.168 57.0267 852.915 58.0001 854.408 58.0001C855.848 58.0001 857.248 57.0934 858.608 55.2801L858.848 54.9601L859.408 55.2801L859.128 55.6801C857.715 57.7067 855.968 58.7201 853.888 58.7201ZM864.19 58.7201C863.15 58.7201 862.256 58.3867 861.51 57.7201C861.11 57.3467 860.816 56.9201 860.63 56.4401C860.47 55.9334 860.39 55.3601 860.39 54.7201C860.39 52.2667 861.403 49.8267 863.43 47.4001C865.136 45.3467 866.91 44.3201 868.75 44.3201C869.363 44.3201 869.883 44.4801 870.31 44.8001C870.763 45.1734 870.99 45.6534 870.99 46.2401C870.99 47.7067 870.016 49.1734 868.07 50.6401C867.456 51.0934 866.643 51.4934 865.63 51.8401C864.51 52.2134 863.696 52.4001 863.19 52.4001C862.816 53.3067 862.63 54.2667 862.63 55.2801C862.63 57.0134 863.27 57.8801 864.55 57.8801C866.23 57.8801 867.803 56.7867 869.27 54.6001L869.43 54.3601L870.11 54.6401L869.99 54.8801C869.323 56.2134 868.483 57.1867 867.47 57.8001C866.456 58.4134 865.363 58.7201 864.19 58.7201ZM863.43 51.7201C863.883 51.7201 864.51 51.5734 865.31 51.2801C865.763 51.0934 866.19 50.8934 866.59 50.6801C867.016 50.4667 867.39 50.2267 867.71 49.9601C869.176 48.7334 869.91 47.4401 869.91 46.0801C869.91 45.4934 869.696 45.2001 869.27 45.2001C868.523 45.2001 867.39 46.1201 865.87 47.9601C865.096 48.8934 864.283 50.1467 863.43 51.7201Z" fill="currentColor"/>
</svg>
