<svg width="871" height="72" viewBox="0 0 871 72" fill="none" xmlns="http://www.w3.org/2000/svg">
<path d="M6.08001 71.5996C4.53334 71.5996 3.22668 71.2796 2.16001 70.6396C0.720008 69.8396 8.10623e-06 68.5862 8.10623e-06 66.8796C8.10623e-06 65.3862 0.480008 64.0529 1.44001 62.8796C2.50668 61.6529 3.73334 61.0396 5.12001 61.0396C6.13334 61.0396 7.01334 61.4129 7.76001 62.1596C8.40001 62.9062 8.72001 63.6529 8.72001 64.3996C8.72001 65.7329 8.21334 66.8262 7.20001 67.6796C6.34668 68.4796 5.38668 68.8796 4.32001 68.8796C3.30667 68.8796 2.42667 68.5062 1.68001 67.7596C2.00001 68.9329 3.09334 69.5196 4.96001 69.5196C7.78668 69.5196 11.1467 67.6262 15.04 63.8396C16.48 62.4529 18.0267 60.7729 19.68 58.7996C21.28 56.8796 22.96 54.6396 24.72 52.0796C25.8933 50.3729 27.04 48.6929 28.16 47.0396C29.28 45.3329 30.4267 43.6262 31.6 41.9196C27.7067 35.9462 25.76 30.3196 25.76 25.0396C25.76 21.9996 26.4533 19.5462 27.84 17.6796C29.28 15.8129 31.12 14.8796 33.36 14.8796C37.52 14.8796 41.8667 17.7596 46.4 23.5196C51.52 18.2396 56.7467 13.7596 62.08 10.0796C69.2267 5.11957 75.12 2.63957 79.76 2.63957C81.6267 2.63957 82.56 3.03957 82.56 3.83957C82.56 4.0529 82.48 4.31957 82.32 4.63957C70.32 26.1329 63.6 40.7196 62.16 48.3996C62.0533 49.1462 61.9467 49.8396 61.84 50.4796C61.7867 51.1196 61.76 51.7062 61.76 52.2396C61.76 55.5996 63.12 57.2796 65.84 57.2796C68.6133 57.2796 72.5067 52.0529 77.52 41.5996C77.7333 41.0662 78.0267 40.7462 78.4 40.6396H78.48C78.6933 40.6396 78.8 40.8262 78.8 41.1996C78.8 41.5196 78.6667 41.9462 78.4 42.4796C76.9067 45.4662 75.7067 47.8396 74.8 49.5996C73.9467 51.3596 73.36 52.4796 73.04 52.9596C71.5467 55.3062 70.0533 57.0396 68.56 58.1596C67.0667 59.2796 65.6 59.8396 64.16 59.8396C62.3467 59.8396 60.6133 59.1462 58.96 57.7596C56.88 55.9462 55.7333 53.4129 55.52 50.1596C54.08 41.4129 50.9067 33.9462 46 27.7596C44.2933 29.5729 42.48 31.6796 40.56 34.0796C38.6933 36.4796 36.6933 39.1729 34.56 42.1596C37.0133 46.0529 39.8133 49.6529 42.96 52.9596C46.16 56.2662 49.7067 59.2529 53.6 61.9196C53.9733 62.1329 54.16 62.3996 54.16 62.7196C54.16 63.1462 54 63.3596 53.68 63.3596C53.52 63.3596 53.28 63.2796 52.96 63.1196C51.4667 62.2129 49.92 61.1196 48.32 59.8396C46.72 58.6129 45.04 57.1729 43.28 55.5196C41.3067 53.7062 39.4667 51.8662 37.76 49.9996C36.1067 48.0796 34.56 46.1329 33.12 44.1596C29.4933 49.2796 26.6133 53.3062 24.48 56.2396C22.4 59.1729 21.0667 61.0129 20.48 61.7596C16.1067 67.1996 12.3467 70.3196 9.20001 71.1196C8.18668 71.4396 7.14668 71.5996 6.08001 71.5996ZM56.08 44.4796C56.4 43.0929 56.8533 41.6529 57.44 40.1596C58.08 38.6129 58.8533 37.0396 59.76 35.4396C64.3467 27.2796 68.96 19.8129 73.6 13.0396C74.1333 12.2929 74.4 11.6262 74.4 11.0396C74.4 10.3462 73.8933 9.99957 72.88 9.99957C69.7867 9.99957 65.3867 11.9729 59.68 15.9196C57.3867 17.5196 55.28 19.1462 53.36 20.7996C51.44 22.3996 49.6533 24.0262 48 25.6796C51.6267 31.1196 54.32 37.3862 56.08 44.4796ZM33.12 39.7596C35.2 36.9329 37.1467 34.3462 38.96 31.9996C40.8267 29.6529 42.5867 27.5729 44.24 25.7596C40.88 22.1862 37.8933 20.3996 35.28 20.3996C33.68 20.3996 32.4267 21.1196 31.52 22.5596C30.56 24.0529 30.08 25.9729 30.08 28.3196C30.08 31.9996 31.0933 35.8129 33.12 39.7596ZM73.0756 59.1196C74.1423 56.5062 75.4756 53.2796 77.0756 49.4396C78.6756 45.5996 80.6223 41.1729 82.9156 36.1596C83.3956 35.0929 83.849 34.2129 84.2756 33.5196C84.7023 32.8262 85.1023 32.2929 85.4756 31.9196C86.2223 31.1729 87.1823 30.7996 88.3556 30.7996C88.4623 30.7996 88.649 30.7996 88.9156 30.7996C89.1823 30.7996 89.5556 30.8529 90.0356 30.9596C90.7823 31.0129 91.3423 31.0129 91.7156 30.9596C89.7423 32.1329 86.7823 37.3062 82.8356 46.4796C83.4756 45.5729 84.329 44.5862 85.3956 43.5196C86.5156 42.3996 87.8223 41.1729 89.3156 39.8396C90.2756 38.9329 91.3423 38.0796 92.5156 37.2796C93.689 36.4262 94.969 35.6262 96.3556 34.8796C99.5023 33.1196 101.822 32.2396 103.316 32.2396C103.689 32.2396 103.956 32.2662 104.116 32.3196C103.262 33.8129 102.462 35.2529 101.716 36.6396C101.022 38.0262 100.356 39.3329 99.7156 40.5596C96.6223 46.5329 94.889 50.6662 94.5156 52.9596C94.4623 53.3329 94.409 53.6796 94.3556 53.9996C94.3556 54.3196 94.3556 54.6129 94.3556 54.8796C94.3556 56.2662 94.8623 56.9596 95.8756 56.9596C97.529 56.9596 99.5023 55.2796 101.796 51.9196L102.916 52.7196C100.196 56.8262 97.449 58.8796 94.6756 58.8796C91.3156 58.8796 89.6356 57.1462 89.6356 53.6796C89.6356 50.8529 91.369 46.6662 94.8356 41.1196C95.369 40.2662 95.6356 39.5462 95.6356 38.9596C95.6356 38.3196 95.3423 37.9996 94.7556 37.9996C94.169 37.9996 93.3956 38.3196 92.4356 38.9596C91.529 39.5462 90.4356 40.4262 89.1556 41.5996C87.129 43.4662 85.2356 45.7062 83.4756 48.3196C81.7156 50.8796 80.1156 53.8129 78.6756 57.1196C78.3556 57.9196 77.529 58.3996 76.1956 58.5596C74.489 58.7196 73.449 58.9062 73.0756 59.1196ZM117.79 27.5996C115.977 27.5996 115.07 26.7196 115.07 24.9596C115.07 23.1996 115.923 22.3196 117.63 22.3196C119.443 22.3196 120.35 23.1996 120.35 24.9596C120.35 26.7196 119.497 27.5996 117.79 27.5996ZM106.91 58.5596C105.363 58.5596 104.59 57.7862 104.59 56.2396C104.59 55.2796 104.91 53.9729 105.55 52.3196C106.937 48.9062 108.243 45.7596 109.47 42.8796C110.697 39.9996 111.843 37.3862 112.91 35.0396C113.07 34.7729 113.15 34.4796 113.15 34.1596C113.15 33.4129 112.803 32.6129 112.11 31.7596L116.51 31.6796C118.003 31.6796 118.75 32.0529 118.75 32.7996C118.75 33.0129 118.697 33.2529 118.59 33.5196C118.483 33.7329 118.35 34.0529 118.19 34.4796L110.83 51.5196C110.083 53.2796 109.71 54.7729 109.71 55.9996C109.71 57.2796 110.11 58.1329 110.91 58.5596H106.91ZM117.06 59.1196C118.127 56.5062 119.46 53.2796 121.06 49.4396C122.66 45.5996 124.607 41.1729 126.9 36.1596C127.38 35.0929 127.833 34.2129 128.26 33.5196C128.687 32.8262 129.087 32.2929 129.46 31.9196C130.207 31.1729 131.167 30.7996 132.34 30.7996C132.447 30.7996 132.633 30.7996 132.9 30.7996C133.167 30.7996 133.54 30.8529 134.02 30.9596C134.767 31.0129 135.327 31.0129 135.7 30.9596C133.727 32.1329 130.767 37.3062 126.82 46.4796C127.407 45.7329 128.153 44.7996 129.06 43.6796C129.967 42.5062 131.14 41.2262 132.58 39.8396C134.073 38.3996 135.3 37.2796 136.26 36.4796C137.22 35.6796 137.887 35.1462 138.26 34.8796C140.607 33.1196 142.34 32.2396 143.46 32.2396C145.007 32.2396 145.78 32.9862 145.78 34.4796C145.78 34.9596 145.673 35.4129 145.46 35.8396C144.82 37.0662 143.993 38.6129 142.98 40.4796C142.02 42.3462 140.9 44.5329 139.62 47.0396C142.18 43.8396 144.393 41.4129 146.26 39.7596C147.22 38.9062 148.287 38.0796 149.46 37.2796C150.687 36.4796 151.993 35.6796 153.38 34.8796C156.42 33.1196 158.713 32.2396 160.26 32.2396C160.633 32.2396 160.9 32.2662 161.06 32.3196C160.207 33.8129 159.407 35.2529 158.66 36.6396C157.967 38.0262 157.3 39.3329 156.66 40.5596C155.167 43.4929 153.993 45.9996 153.14 48.0796C152.287 50.1596 151.727 51.7862 151.46 52.9596C151.407 53.3329 151.353 53.6796 151.3 53.9996C151.3 54.3196 151.3 54.6129 151.3 54.8796C151.3 56.2662 151.807 56.9596 152.82 56.9596C154.473 56.9596 156.447 55.2796 158.74 51.9196L159.86 52.7196C157.14 56.8262 154.42 58.8796 151.7 58.8796C148.34 58.8796 146.66 57.1462 146.66 53.6796C146.66 50.7996 148.367 46.6129 151.78 41.1196C152.313 40.2662 152.58 39.5462 152.58 38.9596C152.58 38.3196 152.313 37.9996 151.78 37.9996C151.193 37.9996 150.42 38.3196 149.46 38.9596C148.5 39.5462 147.407 40.3996 146.18 41.5196C145.167 42.4796 144.1 43.6262 142.98 44.9596C141.913 46.2929 140.767 47.8129 139.54 49.5196C136.873 53.4129 135.3 56.4262 134.82 58.5596C133.913 58.5596 133.22 58.1329 132.74 57.2796C132.367 56.5329 132.18 55.7862 132.18 55.0396C132.18 53.9729 132.553 52.5596 133.3 50.7996C134.047 49.0396 135.087 46.9062 136.42 44.3996C137.967 41.6262 138.74 39.6262 138.74 38.3996C138.74 37.8662 138.527 37.5996 138.1 37.5996C137.247 37.5996 135.353 38.9329 132.42 41.5996C131.673 42.2929 130.873 43.1729 130.02 44.2396C129.22 45.2529 128.367 46.4529 127.46 47.8396C125.38 50.9329 123.78 54.0262 122.66 57.1196C122.34 57.9196 121.513 58.3996 120.18 58.5596C118.473 58.7196 117.433 58.9062 117.06 59.1196ZM168.263 58.5596C164.37 58.5596 162.423 56.1862 162.423 51.4396C162.423 49.0929 162.983 46.6129 164.103 43.9996C165.703 40.2129 167.97 37.0129 170.903 34.3996C173.783 31.8396 176.503 30.5596 179.063 30.5596C183.01 30.5596 184.983 32.8796 184.983 37.5196C184.983 39.9196 184.396 42.4529 183.223 45.1196C181.836 48.3196 179.836 51.2262 177.223 53.8396C173.97 56.9862 170.983 58.5596 168.263 58.5596ZM169.543 56.7996C170.77 56.7996 172.076 56.2929 173.463 55.2796C175.223 53.9996 177.223 51.3329 179.463 47.2796C181.916 42.9062 183.143 39.3862 183.143 36.7196C183.143 34.3196 182.13 33.1196 180.103 33.1196C178.503 33.1196 176.69 34.1329 174.663 36.1596C172.69 38.1329 171.01 40.6396 169.623 43.6796C167.756 47.6796 166.823 50.8796 166.823 53.2796C166.823 55.6262 167.73 56.7996 169.543 56.7996ZM183.388 59.1196C184.401 56.5596 185.735 53.3596 187.388 49.5196C189.095 45.6796 191.015 41.3062 193.148 36.3996C193.575 35.3329 193.975 34.4796 194.348 33.8396C194.775 33.1996 195.148 32.6929 195.468 32.3196C196.161 31.5196 197.095 31.1996 198.268 31.3596L199.948 31.5996C200.321 31.6529 200.641 31.7062 200.908 31.7596C201.228 31.7596 201.495 31.7329 201.708 31.6796C200.641 32.2129 199.388 33.7329 197.948 36.2396C196.561 38.6929 195.015 42.0529 193.308 46.3196C193.895 45.5729 194.641 44.5862 195.548 43.3596C196.455 42.0796 197.601 40.6129 198.988 38.9596C200.535 37.1462 202.135 35.4662 203.788 33.9196C205.441 32.3729 207.041 31.5996 208.588 31.5996C209.815 31.5996 210.695 31.9996 211.228 32.7996C211.761 33.5996 212.028 34.5062 212.028 35.5196C212.028 36.7462 211.548 37.8396 210.588 38.7996C209.628 39.7596 208.695 40.2396 207.788 40.2396C207.415 40.2396 207.015 40.1596 206.588 39.9996C206.215 39.8396 206.028 39.5996 206.028 39.2796C206.028 39.0129 206.081 38.7729 206.188 38.5596C206.295 38.2929 206.348 37.9996 206.348 37.6796C206.348 36.8796 205.975 36.4796 205.228 36.4796C204.961 36.4796 204.588 36.5596 204.108 36.7196C203.681 36.8262 203.095 37.2529 202.348 37.9996C200.855 39.3862 199.228 41.0662 197.468 43.0396C195.761 44.9596 194.135 47.1196 192.588 49.5196C191.095 51.9196 189.868 54.5596 188.908 57.4396C188.641 58.2396 187.841 58.6662 186.508 58.7196C184.695 58.8262 183.655 58.9596 183.388 59.1196ZM228.022 58.7196C226.849 58.7196 225.889 58.3729 225.142 57.6796C224.075 56.7729 223.542 55.2529 223.542 53.1196C223.542 51.7329 223.782 50.1596 224.262 48.3996C222.449 51.4396 220.555 53.9196 218.582 55.8396C216.555 57.7062 214.742 58.6396 213.142 58.6396C211.755 58.6396 210.662 58.0262 209.862 56.7996C209.009 55.6262 208.582 53.9996 208.582 51.9196C208.582 46.8529 210.849 41.6262 215.382 36.2396C216.129 35.3329 216.982 34.5062 217.942 33.7596C218.902 33.0129 219.942 32.3462 221.062 31.7596C223.355 30.5862 225.569 29.9996 227.702 29.9996C230.315 29.9996 232.395 30.8529 233.942 32.5596C234.315 32.9329 234.502 33.3596 234.502 33.8396C234.502 34.7462 234.022 35.0929 233.062 34.8796C232.529 32.9596 231.275 31.9996 229.302 31.9996C227.062 31.9996 224.422 33.5729 221.382 36.7196C220.315 37.8929 219.302 39.1196 218.342 40.3996C217.382 41.6262 216.475 42.9329 215.622 44.3196C213.329 48.1596 212.182 51.2796 212.182 53.6796C212.182 55.4929 212.875 56.3996 214.262 56.3996C215.809 56.3996 217.595 55.2262 219.622 52.8796C220.742 51.5996 221.889 50.0262 223.062 48.1596C224.235 46.2929 225.462 44.1329 226.742 41.6796C227.275 40.6662 227.755 39.8396 228.182 39.1996C228.609 38.5596 228.955 38.0796 229.222 37.7596C230.075 36.9062 231.089 36.5062 232.262 36.5596L233.862 36.7996C234.555 36.9596 235.142 36.9862 235.622 36.8796C235.142 37.3596 234.555 38.1329 233.862 39.1996C233.222 40.2129 232.475 41.5462 231.622 43.1996C230.715 44.9596 229.969 46.5596 229.382 47.9996C228.795 49.4396 228.395 50.7196 228.182 51.8396C228.075 52.3729 227.995 52.8796 227.942 53.3596C227.889 53.7862 227.862 54.1862 227.862 54.5596C227.862 55.9462 228.235 56.6396 228.982 56.6396C230.049 56.6396 231.515 55.4662 233.382 53.1196L233.702 52.7196L234.822 53.4396L234.502 53.9196C232.315 57.1196 230.155 58.7196 228.022 58.7196ZM257.593 63.1996C253.166 63.1996 250.9 61.4396 250.793 57.9196C250.793 56.4262 251.273 55.0929 252.233 53.9196C253.193 52.6929 254.366 52.0796 255.753 52.0796C256.766 52.0796 257.62 52.5062 258.313 53.3596C258.9 53.9996 259.193 54.7996 259.193 55.7596C259.193 58.3729 257.966 59.6796 255.513 59.6796C254.233 59.6796 253.326 59.1729 252.793 58.1596C253.06 60.0796 254.606 61.0396 257.433 61.0396C258.073 61.0396 258.66 60.9596 259.193 60.7996C265.433 59.1996 271.06 54.2929 276.073 46.0796L277.673 43.4396C274.74 39.2262 273.273 35.5196 273.273 32.3196C273.273 30.2396 273.886 28.6396 275.113 27.5196C276.286 26.3462 277.913 25.7596 279.993 25.7596C281.86 25.7596 283.993 26.2929 286.393 27.3596L290.473 19.4396C292.66 15.1196 294.766 11.7862 296.793 9.43957C299.246 6.50623 302.046 4.47957 305.193 3.35957C303.86 3.14624 302.446 3.0129 300.953 2.95957C299.513 2.8529 297.966 2.79957 296.313 2.79957C286.553 2.79957 279.62 3.99957 275.513 6.39957C274.18 7.19957 272.98 8.0529 271.913 8.95957C270.846 9.8129 269.94 10.6929 269.193 11.5996C267.7 13.4662 266.953 15.1996 266.953 16.7996C266.953 18.6662 268.046 19.8129 270.233 20.2396C270.98 20.3996 271.726 20.4796 272.473 20.4796C277.646 20.4796 282.446 18.3462 286.873 14.0796C287.086 13.8662 287.326 13.8129 287.593 13.9196C287.806 13.9729 287.913 14.1329 287.913 14.3996C287.913 14.5596 287.886 14.6662 287.833 14.7196C286.98 15.7862 285.94 16.7729 284.713 17.6796C283.486 18.5862 282.073 19.4129 280.473 20.1596C277.273 21.6529 274.18 22.3996 271.193 22.3996C268.846 22.3996 266.82 21.8662 265.113 20.7996C263.086 19.5729 262.073 17.8662 262.073 15.6796C262.073 13.7062 262.9 11.7862 264.553 9.91957C269.406 4.26623 279.14 1.43957 293.753 1.43957C296.1 1.43957 298.366 1.51957 300.553 1.67957C302.793 1.83957 304.98 2.10624 307.113 2.47957C308.98 1.99957 310.606 1.75957 311.993 1.75957C314.713 1.75957 316.073 2.42623 316.073 3.75957C316.073 4.39957 315.7 4.9329 314.953 5.35957C314.206 5.78624 313.326 5.99957 312.313 5.99957C311.726 5.99957 311.006 5.83957 310.153 5.51957C309.353 5.19957 308.393 4.6929 307.273 3.99957C304.713 4.95957 302.606 6.6129 300.953 8.95957C300.366 9.8129 299.726 11.0129 299.033 12.5596C298.34 14.1062 297.593 15.9729 296.793 18.1596C295.78 20.8796 294.846 23.3329 293.993 25.5196C293.193 27.6529 292.446 29.4929 291.753 31.0396C293.78 32.6929 295.62 34.6929 297.273 37.0396C298.606 38.8529 299.833 40.6929 300.953 42.5596C302.073 44.4262 303.14 46.3462 304.153 48.3196C304.26 42.9329 305.806 36.5862 308.793 29.2796C310.126 26.0796 311.566 23.0396 313.113 20.1596C314.713 17.2796 316.42 14.5596 318.233 11.9996C323.46 4.63957 328.553 0.639567 333.513 -0.000433922H333.913C334.286 -0.000433922 334.473 0.132899 334.473 0.399566C334.473 0.772901 334.313 0.959568 333.993 0.959568C330.366 1.38624 326.58 4.79957 322.633 11.1996C320.873 14.0262 319.22 17.1729 317.673 20.6396C316.126 24.1062 314.713 27.8662 313.433 31.9196C310.873 39.8129 309.593 46.2662 309.593 51.2796C309.593 55.8129 310.686 58.0796 312.873 58.0796C314.313 58.0796 316.073 56.7462 318.153 54.0796C320.18 51.5196 322.58 47.3596 325.353 41.5996C325.566 41.0662 325.833 40.7462 326.153 40.6396H326.233C326.446 40.6396 326.553 40.8262 326.553 41.1996C326.553 41.5196 326.42 41.9462 326.153 42.4796C323.22 48.4529 321.433 51.9462 320.793 52.9596C318.18 57.1729 315.54 59.4396 312.873 59.7596C312.66 59.8129 312.473 59.8396 312.313 59.8396C312.153 59.8396 311.966 59.8396 311.753 59.8396C308.393 59.8396 306.073 57.8396 304.793 53.8396C304.58 53.1462 304.206 52.2929 303.673 51.2796C303.14 50.2129 302.42 48.9329 301.513 47.4396C300.5 45.7329 299.46 44.1596 298.393 42.7196C297.38 41.2262 296.34 39.8929 295.273 38.7196C294.473 37.8129 293.673 36.9862 292.873 36.2396C292.073 35.4396 291.246 34.6929 290.393 33.9996C289.22 36.4529 287.993 38.7729 286.713 40.9596C285.486 43.0929 284.18 45.0929 282.793 46.9596C285.566 50.0529 288.713 52.5596 292.233 54.4796C292.5 54.5862 292.553 54.7729 292.393 55.0396C292.233 55.1996 292.02 55.2529 291.753 55.1996C288.126 53.5996 284.766 51.3062 281.673 48.3196C279.593 50.9329 277.246 53.4396 274.633 55.8396C272.02 58.2396 269.3 60.0529 266.473 61.2796C263.646 62.5596 260.686 63.1996 257.593 63.1996ZM278.793 41.4396C279.7 39.8929 280.633 38.2129 281.593 36.3996C282.606 34.5862 283.646 32.6662 284.713 30.6396C283.433 30.1062 282.18 29.8396 280.953 29.8396C277.966 29.8396 276.473 31.3596 276.473 34.3996C276.473 36.3196 277.246 38.6662 278.793 41.4396ZM327.794 58.5596C323.901 58.5596 321.954 56.1862 321.954 51.4396C321.954 49.0929 322.514 46.6129 323.634 43.9996C325.234 40.2129 327.501 37.0129 330.434 34.3996C333.314 31.8396 336.034 30.5596 338.594 30.5596C342.541 30.5596 344.514 32.8796 344.514 37.5196C344.514 39.9196 343.928 42.4529 342.754 45.1196C341.368 48.3196 339.368 51.2262 336.754 53.8396C333.501 56.9862 330.514 58.5596 327.794 58.5596ZM329.074 56.7996C330.301 56.7996 331.608 56.2929 332.994 55.2796C334.754 53.9996 336.754 51.3329 338.994 47.2796C341.448 42.9062 342.674 39.3862 342.674 36.7196C342.674 34.3196 341.661 33.1196 339.634 33.1196C338.034 33.1196 336.221 34.1329 334.194 36.1596C332.221 38.1329 330.541 40.6396 329.154 43.6796C327.288 47.6796 326.354 50.8796 326.354 53.2796C326.354 55.6262 327.261 56.7996 329.074 56.7996ZM351.719 58.5596C348.253 58.5596 346.519 56.6662 346.519 52.8796C346.519 52.1329 346.573 51.3596 346.679 50.5596C346.839 49.7596 347.079 48.9596 347.399 48.1596C350.226 40.6929 352.626 34.6129 354.599 29.9196H349.399L350.359 28.1596H355.319L357.239 22.5596C357.933 20.5862 358.519 19.4129 358.999 19.0396C359.373 18.7729 360.226 18.6396 361.559 18.6396L364.999 18.7196C363.933 19.6262 363.133 20.7196 362.599 21.9996L359.959 28.1596H366.039L365.079 29.9196H359.239C358.866 30.7729 358.493 31.6262 358.119 32.4796C357.799 33.3329 357.426 34.2129 356.999 35.1196C355.879 37.5729 354.919 39.8929 354.119 42.0796C353.159 44.5862 352.386 46.7462 351.799 48.5596C351.266 50.3729 350.946 51.8129 350.839 52.8796C350.626 55.4929 351.319 56.7996 352.919 56.7996C354.413 56.7996 356.226 55.1996 358.359 51.9996L359.319 53.1196C356.759 56.7462 354.226 58.5596 351.719 58.5596ZM364.499 58.5596C362.953 58.5596 362.179 57.7862 362.179 56.2396C362.179 55.2796 362.499 53.9729 363.139 52.3196L378.659 12.6396C378.766 12.4796 378.819 12.3196 378.819 12.1596C378.819 11.9996 378.819 11.8662 378.819 11.7596C378.819 10.9596 378.499 10.1329 377.859 9.27957H382.179C383.673 9.27957 384.419 9.62623 384.419 10.3196C384.419 10.6396 384.259 11.1996 383.939 11.9996L368.419 51.5196C367.726 53.2262 367.379 54.7462 367.379 56.0796C367.379 57.3062 367.753 58.1329 368.499 58.5596H364.499ZM383.604 58.8796C381.524 58.8796 379.737 58.2129 378.244 56.8796C377.444 56.1329 376.857 55.2796 376.484 54.3196C376.164 53.3062 376.004 52.1596 376.004 50.8796C376.004 45.9729 378.03 41.0929 382.084 36.2396C385.497 32.1329 389.044 30.0796 392.724 30.0796C393.95 30.0796 394.99 30.3996 395.844 31.0396C396.75 31.7862 397.204 32.7462 397.204 33.9196C397.204 36.8529 395.257 39.7862 391.364 42.7196C390.137 43.6262 388.51 44.4262 386.484 45.1196C384.244 45.8662 382.617 46.2396 381.604 46.2396C380.857 48.0529 380.484 49.9729 380.484 51.9996C380.484 55.4662 381.764 57.1996 384.324 57.1996C387.684 57.1996 390.83 55.0129 393.764 50.6396L394.084 50.1596L395.444 50.7196L395.204 51.1996C393.87 53.8662 392.19 55.8129 390.164 57.0396C388.137 58.2662 385.95 58.8796 383.604 58.8796ZM382.084 44.8796C382.99 44.8796 384.244 44.5862 385.844 43.9996C386.75 43.6262 387.604 43.2262 388.404 42.7996C389.257 42.3729 390.004 41.8929 390.644 41.3596C393.577 38.9062 395.044 36.3196 395.044 33.5996C395.044 32.4262 394.617 31.8396 393.764 31.8396C392.27 31.8396 390.004 33.6796 386.964 37.3596C385.417 39.2262 383.79 41.7329 382.084 44.8796ZM403.896 58.8796C401.229 58.8796 399.176 58.0796 397.736 56.4796C396.562 55.1462 395.976 53.5462 395.976 51.6796C395.976 48.9596 396.829 47.5996 398.536 47.5996C399.176 47.5996 399.762 47.8396 400.296 48.3196C400.829 48.8529 401.096 49.4662 401.096 50.1596C401.096 50.5862 400.989 50.9329 400.776 51.1996C400.082 52.0529 399.736 52.9862 399.736 53.9996C399.736 55.0129 400.056 55.8396 400.696 56.4796C401.389 57.1729 402.269 57.5196 403.336 57.5196C404.456 57.5196 405.469 57.1462 406.376 56.3996C407.602 55.2796 408.216 53.7329 408.216 51.7596C408.216 50.0529 407.762 48.1329 406.856 45.9996C406.482 45.4662 406.029 44.7729 405.496 43.9196C405.016 43.0662 404.456 42.0529 403.816 40.8796C403.442 40.2396 403.176 39.5996 403.016 38.9596C402.909 38.2662 402.856 37.5996 402.856 36.9596C402.856 34.7196 403.682 32.9329 405.336 31.5996C407.042 30.2129 409.229 29.5196 411.896 29.5196C412.642 29.5196 413.362 29.5996 414.056 29.7596C414.802 29.9196 415.469 30.2129 416.056 30.6396C417.282 31.5462 417.896 32.6662 417.896 33.9996C417.896 34.5862 417.789 35.1196 417.576 35.5996C417.096 36.9862 416.056 37.6796 414.456 37.6796C412.696 37.6796 411.816 36.7729 411.816 34.9596C411.816 34.4262 411.896 33.9729 412.056 33.5996C412.216 33.0662 412.802 32.5329 413.816 31.9996C413.442 31.3062 412.749 30.9596 411.736 30.9596C410.829 30.9596 410.162 31.1729 409.736 31.5996C408.456 32.7196 407.816 34.1329 407.816 35.8396C407.816 37.0129 408.136 38.2929 408.776 39.6796C408.882 39.8929 409.922 41.5729 411.896 44.7196C413.229 46.8529 413.896 48.6396 413.896 50.0796C413.896 52.3729 412.829 54.3996 410.696 56.1596C408.562 57.9729 406.296 58.8796 403.896 58.8796ZM432.757 60.8796C430.57 60.8796 429.397 59.9996 429.237 58.2396C429.21 57.4929 429.41 56.8262 429.837 56.2396C430.29 55.6262 430.864 55.3196 431.557 55.3196C432.064 55.3196 432.504 55.5329 432.877 55.9596C433.224 56.3596 433.397 56.7862 433.397 57.2396C433.397 58.4929 432.81 59.1196 431.637 59.1196C431.344 59.1196 431.064 59.0529 430.797 58.9196C430.557 58.8129 430.37 58.6262 430.237 58.3596C430.397 59.3196 431.197 59.7996 432.637 59.7996C432.957 59.7996 433.25 59.7596 433.517 59.6796C435.81 59.0662 437.744 57.7462 439.317 55.7196C440.01 54.8396 440.784 53.5862 441.637 51.9596C442.49 50.3329 443.437 48.3596 444.477 46.0396L449.757 34.3196C450.024 33.7329 450.317 33.2129 450.637 32.7596C450.984 32.2796 451.344 31.8262 451.717 31.3996C448.464 31.2929 445.144 31.7996 441.757 32.9196C438.184 34.1196 435.57 35.7462 433.917 37.7996C433.144 38.7862 432.757 39.6929 432.757 40.5196C432.757 42.1996 433.97 43.0396 436.397 43.0396C439.384 43.0396 441.81 41.8662 443.677 39.5196C444.13 38.9596 444.557 38.2929 444.957 37.5196C445.384 36.7196 445.77 35.7862 446.117 34.7196C446.197 34.5329 446.304 34.4396 446.437 34.4396C446.65 34.4396 446.717 34.5862 446.637 34.8796C446.53 35.2262 446.424 35.5729 446.317 35.9196C446.237 36.2662 446.13 36.5996 445.997 36.9196C445.784 37.5596 445.53 38.1596 445.237 38.7196C444.944 39.2529 444.624 39.7462 444.277 40.1996C442.49 42.7062 439.957 43.9596 436.677 43.9596C435.157 43.9596 433.97 43.5596 433.117 42.7596C432.237 41.9596 431.797 40.9596 431.797 39.7596C431.797 38.6929 432.17 37.5996 432.917 36.4796C434.17 34.5862 436.624 33.0796 440.277 31.9596C441.877 31.4796 443.53 31.1196 445.237 30.8796C446.97 30.6129 448.757 30.4796 450.597 30.4796C450.944 30.4796 451.277 30.4796 451.597 30.4796C451.944 30.4796 452.277 30.4929 452.597 30.5196C454.224 29.1062 455.917 28.3996 457.677 28.3996C458.37 28.3996 459.077 28.5462 459.797 28.8396C459.93 28.8929 459.997 28.9996 459.997 29.1596C459.997 29.4796 459.904 29.5996 459.717 29.5196C459.237 29.2796 458.704 29.1596 458.117 29.1596C456.81 29.1596 455.57 29.6796 454.397 30.7196C456.584 30.7462 458.29 31.2129 459.517 32.1196C461.25 33.3996 462.037 34.9062 461.877 36.6396C461.637 39.3596 459.944 41.5729 456.797 43.2796C454.397 44.6129 451.917 45.2796 449.357 45.2796C449.17 45.2796 448.97 45.2796 448.757 45.2796C448.57 45.2796 448.37 45.2662 448.157 45.2396C447.97 45.8262 447.704 46.5329 447.357 47.3596C447.01 48.1596 446.597 49.0662 446.117 50.0796C445.024 52.3996 443.384 54.6262 441.197 56.7596C438.37 59.5062 435.557 60.8796 432.757 60.8796ZM449.317 44.3996C451.13 44.3996 452.85 43.8396 454.477 42.7196C455.997 41.6796 457.237 40.2662 458.197 38.4796C458.624 37.6796 458.837 36.9062 458.837 36.1596C458.837 34.8262 458.304 33.7196 457.237 32.8396C456.17 31.9862 454.904 31.6129 453.437 31.7196C452.984 32.3062 452.49 33.1862 451.957 34.3596C451.424 35.5062 450.864 36.9462 450.277 38.6796C449.957 39.6129 449.65 40.5596 449.357 41.5196C449.064 42.4796 448.77 43.4262 448.477 44.3596C448.61 44.3862 448.744 44.3996 448.877 44.3996C449.037 44.3996 449.184 44.3996 449.317 44.3996ZM458.496 58.8396C459.003 57.5596 459.669 55.9596 460.496 54.0396C461.349 52.1196 462.309 49.9329 463.376 47.4796C463.589 46.9462 463.789 46.5196 463.976 46.1996C464.189 45.8796 464.376 45.6262 464.536 45.4396C464.883 45.0396 465.349 44.8796 465.936 44.9596L466.776 45.0796C466.963 45.1062 467.123 45.1329 467.256 45.1596C467.416 45.1596 467.549 45.1462 467.656 45.1196C467.123 45.3862 466.496 46.1462 465.776 47.3996C465.083 48.6262 464.309 50.3062 463.456 52.4396C463.749 52.0662 464.123 51.5729 464.576 50.9596C465.029 50.3196 465.603 49.5862 466.296 48.7596C467.069 47.8529 467.869 47.0129 468.696 46.2396C469.523 45.4662 470.323 45.0796 471.096 45.0796C471.709 45.0796 472.149 45.2796 472.416 45.6796C472.683 46.0796 472.816 46.5329 472.816 47.0396C472.816 47.6529 472.576 48.1996 472.096 48.6796C471.616 49.1596 471.149 49.3996 470.696 49.3996C470.509 49.3996 470.309 49.3596 470.096 49.2796C469.909 49.1996 469.816 49.0796 469.816 48.9196C469.816 48.7862 469.843 48.6662 469.896 48.5596C469.949 48.4262 469.976 48.2796 469.976 48.1196C469.976 47.7196 469.789 47.5196 469.416 47.5196C469.283 47.5196 469.096 47.5596 468.856 47.6396C468.643 47.6929 468.349 47.9062 467.976 48.2796C467.229 48.9729 466.416 49.8129 465.536 50.7996C464.683 51.7596 463.869 52.8396 463.096 54.0396C462.349 55.2396 461.736 56.5596 461.256 57.9996C461.123 58.3996 460.723 58.6129 460.056 58.6396C459.149 58.6929 458.629 58.7596 458.496 58.8396ZM474.893 58.7196C473.853 58.7196 472.959 58.3862 472.213 57.7196C471.813 57.3462 471.519 56.9196 471.333 56.4396C471.173 55.9329 471.093 55.3596 471.093 54.7196C471.093 52.2662 472.106 49.8262 474.133 47.3996C475.839 45.3462 477.613 44.3196 479.453 44.3196C480.066 44.3196 480.586 44.4796 481.013 44.7996C481.466 45.1729 481.693 45.6529 481.693 46.2396C481.693 47.7062 480.719 49.1729 478.773 50.6396C478.159 51.0929 477.346 51.4929 476.333 51.8396C475.213 52.2129 474.399 52.3996 473.893 52.3996C473.519 53.3062 473.333 54.2662 473.333 55.2796C473.333 57.0129 473.973 57.8796 475.253 57.8796C476.933 57.8796 478.506 56.7862 479.973 54.5996L480.133 54.3596L480.813 54.6396L480.693 54.8796C480.026 56.2129 479.186 57.1862 478.173 57.7996C477.159 58.4129 476.066 58.7196 474.893 58.7196ZM474.133 51.7196C474.586 51.7196 475.213 51.5729 476.013 51.2796C476.466 51.0929 476.893 50.8929 477.293 50.6796C477.719 50.4662 478.093 50.2262 478.413 49.9596C479.879 48.7329 480.613 47.4396 480.613 46.0796C480.613 45.4929 480.399 45.1996 479.973 45.1996C479.226 45.1996 478.093 46.1196 476.573 47.9596C475.799 48.8929 474.986 50.1462 474.133 51.7196ZM480.879 58.8396C481.412 57.5329 482.079 55.9196 482.879 53.9996C483.679 52.0796 484.652 49.8662 485.799 47.3596C486.039 46.8262 486.265 46.3862 486.479 46.0396C486.692 45.6929 486.892 45.4262 487.079 45.2396C487.452 44.8662 487.932 44.6796 488.519 44.6796C488.572 44.6796 488.665 44.6796 488.799 44.6796C488.932 44.6796 489.119 44.7062 489.359 44.7596C489.732 44.7862 490.012 44.7862 490.199 44.7596C489.212 45.3462 487.732 47.9329 485.759 52.5196C486.052 52.1462 486.425 51.6796 486.879 51.1196C487.332 50.5329 487.919 49.8929 488.639 49.1996C489.385 48.4796 489.999 47.9196 490.479 47.5196C490.959 47.1196 491.292 46.8529 491.479 46.7196C492.652 45.8396 493.519 45.3996 494.079 45.3996C494.852 45.3996 495.239 45.7729 495.239 46.5196C495.239 46.7596 495.185 46.9862 495.079 47.1996C494.759 47.8129 494.345 48.5862 493.839 49.5196C493.359 50.4529 492.799 51.5462 492.159 52.7996C493.439 51.1996 494.545 49.9862 495.479 49.1596C495.959 48.7329 496.492 48.3196 497.079 47.9196C497.692 47.5196 498.345 47.1196 499.039 46.7196C500.559 45.8396 501.705 45.3996 502.479 45.3996C502.665 45.3996 502.799 45.4129 502.879 45.4396C502.452 46.1862 502.052 46.9062 501.679 47.5996C501.332 48.2929 500.999 48.9462 500.679 49.5596C499.932 51.0262 499.345 52.2796 498.919 53.3196C498.492 54.3596 498.212 55.1729 498.079 55.7596C498.052 55.9462 498.025 56.1196 497.999 56.2796C497.999 56.4396 497.999 56.5862 497.999 56.7196C497.999 57.4129 498.252 57.7596 498.759 57.7596C499.585 57.7596 500.572 56.9196 501.719 55.2396L502.279 55.6396C500.919 57.6929 499.559 58.7196 498.199 58.7196C496.519 58.7196 495.679 57.8529 495.679 56.1196C495.679 54.6796 496.532 52.5862 498.239 49.8396C498.505 49.4129 498.639 49.0529 498.639 48.7596C498.639 48.4396 498.505 48.2796 498.239 48.2796C497.945 48.2796 497.559 48.4396 497.079 48.7596C496.599 49.0529 496.052 49.4796 495.439 50.0396C494.932 50.5196 494.399 51.0929 493.839 51.7596C493.305 52.4262 492.732 53.1862 492.119 54.0396C490.785 55.9862 489.999 57.4929 489.759 58.5596C489.305 58.5596 488.959 58.3462 488.719 57.9196C488.532 57.5462 488.439 57.1729 488.439 56.7996C488.439 56.2662 488.625 55.5596 488.999 54.6796C489.372 53.7996 489.892 52.7329 490.559 51.4796C491.332 50.0929 491.719 49.0929 491.719 48.4796C491.719 48.2129 491.612 48.0796 491.399 48.0796C490.972 48.0796 490.025 48.7462 488.559 50.0796C488.185 50.4262 487.785 50.8662 487.359 51.3996C486.959 51.9062 486.532 52.5062 486.079 53.1996C485.039 54.7462 484.239 56.2929 483.679 57.8396C483.519 58.2396 483.105 58.4796 482.439 58.5596C481.585 58.6396 481.065 58.7329 480.879 58.8396ZM509.72 43.0796C508.814 43.0796 508.36 42.6396 508.36 41.7596C508.36 40.8796 508.787 40.4396 509.64 40.4396C510.547 40.4396 511 40.8796 511 41.7596C511 42.6396 510.574 43.0796 509.72 43.0796ZM504.28 58.5596C503.507 58.5596 503.12 58.1729 503.12 57.3996C503.12 56.9196 503.28 56.2662 503.6 55.4396C504.294 53.7329 504.947 52.1596 505.56 50.7196C506.174 49.2796 506.747 47.9729 507.28 46.7996C507.36 46.6662 507.4 46.5196 507.4 46.3596C507.4 45.9862 507.227 45.5862 506.88 45.1596L509.08 45.1196C509.827 45.1196 510.2 45.3062 510.2 45.6796C510.2 45.7862 510.174 45.9062 510.12 46.0396C510.067 46.1462 510 46.3062 509.92 46.5196L506.24 55.0396C505.867 55.9196 505.68 56.6662 505.68 57.2796C505.68 57.9196 505.88 58.3462 506.28 58.5596H504.28ZM512.875 58.5196C511.169 58.5196 510.315 57.7196 510.315 56.1196C510.315 55.5596 510.475 54.8129 510.795 53.8796C511.115 52.9196 511.569 51.7862 512.155 50.4796L514.355 45.6396C514.595 45.0796 515.115 44.7996 515.915 44.7996H518.315C517.382 45.4929 516.529 46.6129 515.755 48.1596C515.462 48.7462 515.102 49.4796 514.675 50.3596C514.275 51.2129 513.809 52.1996 513.275 53.3196C512.769 54.3596 512.515 55.2929 512.515 56.1196C512.515 56.9729 512.809 57.3996 513.395 57.3996C514.035 57.3996 514.795 56.8929 515.675 55.8796C517.142 54.1729 519.115 50.7596 521.595 45.6396C521.889 45.0796 522.395 44.7996 523.115 44.7996H525.275C524.395 45.5196 523.475 46.8396 522.515 48.7596C521.182 51.4529 520.382 53.5062 520.115 54.9196C520.089 55.0796 520.062 55.2262 520.035 55.3596C520.035 55.4929 520.035 55.6262 520.035 55.7596C520.035 56.7996 520.395 57.3196 521.115 57.3196C521.889 57.3196 522.795 56.5596 523.835 55.0396L524.435 55.3196C522.995 57.4529 521.569 58.5196 520.155 58.5196C518.662 58.5196 517.915 57.5729 517.915 55.6796C517.915 54.9596 518.049 54.1996 518.315 53.3996C516.342 56.8129 514.529 58.5196 512.875 58.5196ZM524.316 58.8396C524.85 57.5329 525.516 55.9196 526.316 53.9996C527.116 52.0796 528.09 49.8662 529.236 47.3596C529.476 46.8262 529.703 46.3862 529.916 46.0396C530.13 45.6929 530.33 45.4262 530.516 45.2396C530.89 44.8662 531.37 44.6796 531.956 44.6796C532.01 44.6796 532.103 44.6796 532.236 44.6796C532.37 44.6796 532.556 44.7062 532.796 44.7596C533.17 44.7862 533.45 44.7862 533.636 44.7596C532.65 45.3462 531.17 47.9329 529.196 52.5196C529.49 52.1462 529.863 51.6796 530.316 51.1196C530.77 50.5329 531.356 49.8929 532.076 49.1996C532.823 48.4796 533.436 47.9196 533.916 47.5196C534.396 47.1196 534.73 46.8529 534.916 46.7196C536.09 45.8396 536.956 45.3996 537.516 45.3996C538.29 45.3996 538.676 45.7729 538.676 46.5196C538.676 46.7596 538.623 46.9862 538.516 47.1996C538.196 47.8129 537.783 48.5862 537.276 49.5196C536.796 50.4529 536.236 51.5462 535.596 52.7996C536.876 51.1996 537.983 49.9862 538.916 49.1596C539.396 48.7329 539.93 48.3196 540.516 47.9196C541.13 47.5196 541.783 47.1196 542.476 46.7196C543.996 45.8396 545.143 45.3996 545.916 45.3996C546.103 45.3996 546.236 45.4129 546.316 45.4396C545.89 46.1862 545.49 46.9062 545.116 47.5996C544.77 48.2929 544.436 48.9462 544.116 49.5596C543.37 51.0262 542.783 52.2796 542.356 53.3196C541.93 54.3596 541.65 55.1729 541.516 55.7596C541.49 55.9462 541.463 56.1196 541.436 56.2796C541.436 56.4396 541.436 56.5862 541.436 56.7196C541.436 57.4129 541.69 57.7596 542.196 57.7596C543.023 57.7596 544.01 56.9196 545.156 55.2396L545.716 55.6396C544.356 57.6929 542.996 58.7196 541.636 58.7196C539.956 58.7196 539.116 57.8529 539.116 56.1196C539.116 54.6796 539.97 52.5862 541.676 49.8396C541.943 49.4129 542.076 49.0529 542.076 48.7596C542.076 48.4396 541.943 48.2796 541.676 48.2796C541.383 48.2796 540.996 48.4396 540.516 48.7596C540.036 49.0529 539.49 49.4796 538.876 50.0396C538.37 50.5196 537.836 51.0929 537.276 51.7596C536.743 52.4262 536.17 53.1862 535.556 54.0396C534.223 55.9862 533.436 57.4929 533.196 58.5596C532.743 58.5596 532.396 58.3462 532.156 57.9196C531.97 57.5462 531.876 57.1729 531.876 56.7996C531.876 56.2662 532.063 55.5596 532.436 54.6796C532.81 53.7996 533.33 52.7329 533.996 51.4796C534.77 50.0929 535.156 49.0929 535.156 48.4796C535.156 48.2129 535.05 48.0796 534.836 48.0796C534.41 48.0796 533.463 48.7462 531.996 50.0796C531.623 50.4262 531.223 50.8662 530.796 51.3996C530.396 51.9062 529.97 52.5062 529.516 53.1996C528.476 54.7462 527.676 56.2929 527.116 57.8396C526.956 58.2396 526.543 58.4796 525.876 58.5596C525.023 58.6396 524.503 58.7329 524.316 58.8396ZM553.248 71.5196C553.061 71.3862 552.861 71.2129 552.648 70.9996C552.434 70.8129 552.181 70.5862 551.888 70.3196C551.328 69.7596 551.048 69.0929 551.048 68.3196C551.048 67.7596 551.208 66.9862 551.528 65.9996C551.794 65.2262 552.234 64.0662 552.848 62.5196C553.434 60.9729 554.221 59.0396 555.208 56.7196C555.501 56.0262 555.834 55.2129 556.208 54.2796C556.581 53.3196 556.981 52.2262 557.408 50.9996C557.514 50.7062 557.621 50.3729 557.728 49.9996C557.834 49.5996 557.941 49.1462 558.048 48.6396C558.101 48.3462 558.141 48.0796 558.168 47.8396C558.221 47.5729 558.248 47.3462 558.248 47.1596C558.248 46.2262 557.954 45.5596 557.368 45.1596L559.328 44.8396C559.541 44.8129 559.714 44.7996 559.848 44.7996C559.981 44.7996 560.061 44.7996 560.088 44.7996C560.541 44.7996 560.768 45.2662 560.768 46.1996C560.768 47.5062 560.394 49.1996 559.648 51.2796C562.421 46.7462 564.634 44.4796 566.288 44.4796C567.088 44.4796 567.728 44.8129 568.208 45.4796C568.608 46.0396 568.808 46.7462 568.808 47.5996C568.808 48.7729 568.488 50.1062 567.848 51.5996C567.154 53.1196 566.354 54.4262 565.448 55.5196C563.714 57.5729 561.768 58.5996 559.608 58.5996C558.621 58.5996 557.714 58.3462 556.888 57.8396C556.381 59.1196 555.914 60.4129 555.488 61.7196C555.088 63.0529 554.701 64.4129 554.328 65.7996C553.554 68.5729 553.194 70.4796 553.248 71.5196ZM558.488 57.7196C560.141 57.7196 561.981 56.3062 564.008 53.4796C565.981 50.7329 566.968 48.5329 566.968 46.8796C566.968 46.0262 566.608 45.5996 565.888 45.5996C564.874 45.5996 563.754 46.4529 562.528 48.1596C561.861 49.1196 561.074 50.3596 560.168 51.8796C559.288 53.3996 558.301 55.1862 557.208 57.2396C557.528 57.5596 557.954 57.7196 558.488 57.7196ZM572.588 58.7196C571.548 58.7196 570.655 58.3862 569.908 57.7196C569.508 57.3462 569.215 56.9196 569.028 56.4396C568.868 55.9329 568.788 55.3596 568.788 54.7196C568.788 52.2662 569.801 49.8262 571.828 47.3996C573.535 45.3462 575.308 44.3196 577.148 44.3196C577.761 44.3196 578.281 44.4796 578.708 44.7996C579.161 45.1729 579.388 45.6529 579.388 46.2396C579.388 47.7062 578.415 49.1729 576.468 50.6396C575.855 51.0929 575.041 51.4929 574.028 51.8396C572.908 52.2129 572.095 52.3996 571.588 52.3996C571.215 53.3062 571.028 54.2662 571.028 55.2796C571.028 57.0129 571.668 57.8796 572.948 57.8796C574.628 57.8796 576.201 56.7862 577.668 54.5996L577.828 54.3596L578.508 54.6396L578.388 54.8796C577.721 56.2129 576.881 57.1862 575.868 57.7996C574.855 58.4129 573.761 58.7196 572.588 58.7196ZM571.828 51.7196C572.281 51.7196 572.908 51.5729 573.708 51.2796C574.161 51.0929 574.588 50.8929 574.988 50.6796C575.415 50.4662 575.788 50.2262 576.108 49.9596C577.575 48.7329 578.308 47.4396 578.308 46.0796C578.308 45.4929 578.095 45.1996 577.668 45.1996C576.921 45.1996 575.788 46.1196 574.268 47.9596C573.495 48.8929 572.681 50.1462 571.828 51.7196ZM582.974 58.5596C581.241 58.5596 580.374 57.6129 580.374 55.7196C580.374 55.3462 580.401 54.9596 580.454 54.5596C580.534 54.1596 580.654 53.7596 580.814 53.3596C582.227 49.6262 583.427 46.5862 584.414 44.2396H581.814L582.294 43.3596H584.774L585.734 40.5596C586.081 39.5729 586.374 38.9862 586.614 38.7996C586.801 38.6662 587.227 38.5996 587.894 38.5996L589.614 38.6396C589.081 39.0929 588.681 39.6396 588.414 40.2796L587.094 43.3596H590.134L589.654 44.2396H586.734C586.547 44.6662 586.361 45.0929 586.174 45.5196C586.014 45.9462 585.827 46.3862 585.614 46.8396C585.054 48.0662 584.574 49.2262 584.174 50.3196C583.694 51.5729 583.307 52.6529 583.014 53.5596C582.747 54.4662 582.587 55.1862 582.534 55.7196C582.427 57.0262 582.774 57.6796 583.574 57.6796C584.321 57.6796 585.227 56.8796 586.294 55.2796L586.774 55.8396C585.494 57.6529 584.227 58.5596 582.974 58.5596ZM592.404 58.7196C589.737 58.7196 588.404 57.3862 588.404 54.7196C588.404 52.4796 589.177 50.2662 590.724 48.0796C592.404 45.6796 594.337 44.4796 596.524 44.4796C598.551 44.4796 599.457 45.3996 599.244 47.2396C599.217 47.7196 598.964 48.2396 598.484 48.7996C598.031 49.3329 597.591 49.5996 597.164 49.5996C596.924 49.5996 596.724 49.5196 596.564 49.3596C597.231 48.6929 597.644 48.0129 597.804 47.3196C597.857 47.1329 597.897 46.9729 597.924 46.8396C597.951 46.6796 597.964 46.5329 597.964 46.3996C597.964 45.7062 597.644 45.3596 597.004 45.3596C596.071 45.3596 594.764 46.4929 593.084 48.7596C591.484 50.9196 590.684 53.0262 590.684 55.0796C590.684 57.0262 591.431 57.9996 592.924 57.9996C594.364 57.9996 595.764 57.0929 597.124 55.2796L597.364 54.9596L597.924 55.2796L597.644 55.6796C596.231 57.7062 594.484 58.7196 592.404 58.7196ZM608.625 58.6396C608.039 58.6396 607.559 58.4662 607.185 58.1196C606.652 57.6662 606.385 56.9062 606.385 55.8396C606.385 55.1462 606.505 54.3596 606.745 53.4796C605.839 54.9996 604.892 56.2396 603.905 57.1996C602.892 58.1329 601.985 58.5996 601.185 58.5996C600.492 58.5996 599.945 58.2929 599.545 57.6796C599.119 57.0929 598.905 56.2796 598.905 55.2396C598.905 52.7062 600.039 50.0929 602.305 47.3996C602.679 46.9462 603.105 46.5329 603.585 46.1596C604.065 45.7862 604.585 45.4529 605.145 45.1596C606.292 44.5729 607.399 44.2796 608.465 44.2796C609.772 44.2796 610.812 44.7062 611.585 45.5596C611.772 45.7462 611.865 45.9596 611.865 46.1996C611.865 46.6529 611.625 46.8262 611.145 46.7196C610.879 45.7596 610.252 45.2796 609.265 45.2796C608.145 45.2796 606.825 46.0662 605.305 47.6396C604.772 48.2262 604.265 48.8396 603.785 49.4796C603.305 50.0929 602.852 50.7462 602.425 51.4396C601.279 53.3596 600.705 54.9196 600.705 56.1196C600.705 57.0262 601.052 57.4796 601.745 57.4796C602.519 57.4796 603.412 56.8929 604.425 55.7196C604.985 55.0796 605.559 54.2929 606.145 53.3596C606.732 52.4262 607.345 51.3462 607.985 50.1196C608.252 49.6129 608.492 49.1996 608.705 48.8796C608.919 48.5596 609.092 48.3196 609.225 48.1596C609.652 47.7329 610.159 47.5329 610.745 47.5596L611.545 47.6796C611.892 47.7596 612.185 47.7729 612.425 47.7196C612.185 47.9596 611.892 48.3462 611.545 48.8796C611.225 49.3862 610.852 50.0529 610.425 50.8796C609.972 51.7596 609.599 52.5596 609.305 53.2796C609.012 53.9996 608.812 54.6396 608.705 55.1996C608.652 55.4662 608.612 55.7196 608.585 55.9596C608.559 56.1729 608.545 56.3729 608.545 56.5596C608.545 57.2529 608.732 57.5996 609.105 57.5996C609.639 57.5996 610.372 57.0129 611.305 55.8396L611.465 55.6396L612.025 55.9996L611.865 56.2396C610.772 57.8396 609.692 58.6396 608.625 58.6396ZM612.441 58.8396C612.948 57.5596 613.615 55.9596 614.441 54.0396C615.295 52.1196 616.255 49.9329 617.321 47.4796C617.535 46.9462 617.735 46.5196 617.921 46.1996C618.135 45.8796 618.321 45.6262 618.481 45.4396C618.828 45.0396 619.295 44.8796 619.881 44.9596L620.721 45.0796C620.908 45.1062 621.068 45.1329 621.201 45.1596C621.361 45.1596 621.495 45.1462 621.601 45.1196C621.068 45.3862 620.441 46.1462 619.721 47.3996C619.028 48.6262 618.255 50.3062 617.401 52.4396C617.695 52.0662 618.068 51.5729 618.521 50.9596C618.975 50.3196 619.548 49.5862 620.241 48.7596C621.015 47.8529 621.815 47.0129 622.641 46.2396C623.468 45.4662 624.268 45.0796 625.041 45.0796C625.655 45.0796 626.095 45.2796 626.361 45.6796C626.628 46.0796 626.761 46.5329 626.761 47.0396C626.761 47.6529 626.521 48.1996 626.041 48.6796C625.561 49.1596 625.095 49.3996 624.641 49.3996C624.455 49.3996 624.255 49.3596 624.041 49.2796C623.855 49.1996 623.761 49.0796 623.761 48.9196C623.761 48.7862 623.788 48.6662 623.841 48.5596C623.895 48.4262 623.921 48.2796 623.921 48.1196C623.921 47.7196 623.735 47.5196 623.361 47.5196C623.228 47.5196 623.041 47.5596 622.801 47.6396C622.588 47.6929 622.295 47.9062 621.921 48.2796C621.175 48.9729 620.361 49.8129 619.481 50.7996C618.628 51.7596 617.815 52.8396 617.041 54.0396C616.295 55.2396 615.681 56.5596 615.201 57.9996C615.068 58.3996 614.668 58.6129 614.001 58.6396C613.095 58.6929 612.575 58.7596 612.441 58.8396ZM628.838 58.7196C627.798 58.7196 626.905 58.3862 626.158 57.7196C625.758 57.3462 625.465 56.9196 625.278 56.4396C625.118 55.9329 625.038 55.3596 625.038 54.7196C625.038 52.2662 626.051 49.8262 628.078 47.3996C629.785 45.3462 631.558 44.3196 633.398 44.3196C634.011 44.3196 634.531 44.4796 634.958 44.7996C635.411 45.1729 635.638 45.6529 635.638 46.2396C635.638 47.7062 634.665 49.1729 632.718 50.6396C632.105 51.0929 631.291 51.4929 630.278 51.8396C629.158 52.2129 628.345 52.3996 627.838 52.3996C627.465 53.3062 627.278 54.2662 627.278 55.2796C627.278 57.0129 627.918 57.8796 629.198 57.8796C630.878 57.8796 632.451 56.7862 633.918 54.5996L634.078 54.3596L634.758 54.6396L634.638 54.8796C633.971 56.2129 633.131 57.1862 632.118 57.7996C631.105 58.4129 630.011 58.7196 628.838 58.7196ZM628.078 51.7196C628.531 51.7196 629.158 51.5729 629.958 51.2796C630.411 51.0929 630.838 50.8929 631.238 50.6796C631.665 50.4662 632.038 50.2262 632.358 49.9596C633.825 48.7329 634.558 47.4396 634.558 46.0796C634.558 45.4929 634.345 45.1996 633.918 45.1996C633.171 45.1996 632.038 46.1196 630.518 47.9596C629.745 48.8929 628.931 50.1462 628.078 51.7196ZM642.754 58.8396C643.66 56.7596 644.954 53.7862 646.634 49.9196C648.34 46.0262 650.447 41.2529 652.954 35.5996C652.98 35.5196 652.994 35.4396 652.994 35.3596C653.02 35.2796 653.034 35.1996 653.034 35.1196C653.034 34.7462 652.874 34.3462 652.554 33.9196H654.714C655.46 33.9196 655.834 34.0929 655.834 34.4396C655.834 34.6262 655.754 34.9062 655.594 35.2796C654.767 37.0662 653.7 39.4129 652.394 42.3196C651.087 45.2262 649.527 48.6929 647.714 52.7196C648.114 52.1596 648.594 51.5862 649.154 50.9996C649.714 50.4129 650.34 49.8129 651.034 49.1996C651.514 48.7462 652.047 48.3196 652.634 47.9196C653.22 47.4929 653.86 47.0929 654.554 46.7196C656.127 45.8396 657.287 45.3996 658.034 45.3996C658.22 45.3996 658.354 45.4129 658.434 45.4396C658.007 46.1862 657.607 46.9062 657.234 47.5996C656.887 48.2929 656.554 48.9462 656.234 49.5596C654.687 52.5462 653.82 54.6129 653.634 55.7596C653.554 56.1596 653.514 56.5062 653.514 56.7996C653.514 57.5196 653.78 57.8796 654.314 57.8796C655.034 57.8796 656.007 56.9862 657.234 55.1996L657.834 55.5596C656.447 57.6662 655.074 58.7196 653.714 58.7196C652.034 58.7196 651.194 57.8529 651.194 56.1196C651.194 54.7062 652.06 52.6129 653.794 49.8396C654.06 49.4129 654.194 49.0529 654.194 48.7596C654.194 48.4396 654.047 48.2796 653.754 48.2796C653.46 48.2796 653.074 48.4396 652.594 48.7596C652.14 49.0529 651.594 49.4929 650.954 50.0796C649.94 51.0129 648.98 52.1462 648.074 53.4796C647.194 54.7862 646.367 56.2929 645.594 57.9996C645.407 58.3996 644.98 58.6129 644.314 58.6396C643.434 58.6929 642.914 58.7596 642.754 58.8396ZM662.027 58.5596C660.081 58.5596 659.107 57.3729 659.107 54.9996C659.107 53.8262 659.387 52.5862 659.947 51.2796C660.747 49.3862 661.881 47.7862 663.347 46.4796C664.787 45.1996 666.147 44.5596 667.427 44.5596C669.401 44.5596 670.387 45.7196 670.387 48.0396C670.387 49.2396 670.094 50.5062 669.507 51.8396C668.814 53.4396 667.814 54.8929 666.507 56.1996C664.881 57.7729 663.387 58.5596 662.027 58.5596ZM662.667 57.6796C663.281 57.6796 663.934 57.4262 664.627 56.9196C665.507 56.2796 666.507 54.9462 667.627 52.9196C668.854 50.7329 669.467 48.9729 669.467 47.6396C669.467 46.4396 668.961 45.8396 667.947 45.8396C667.147 45.8396 666.241 46.3462 665.227 47.3596C664.241 48.3462 663.401 49.5996 662.707 51.1196C661.774 53.1196 661.307 54.7196 661.307 55.9196C661.307 57.0929 661.761 57.6796 662.667 57.6796ZM673.99 58.5596C672.256 58.5596 671.39 57.6129 671.39 55.7196C671.39 55.3462 671.416 54.9596 671.47 54.5596C671.55 54.1596 671.67 53.7596 671.83 53.3596C673.243 49.6262 674.443 46.5862 675.43 44.2396H672.83L673.31 43.3596H675.79L676.75 40.5596C677.096 39.5729 677.39 38.9862 677.63 38.7996C677.816 38.6662 678.243 38.5996 678.91 38.5996L680.63 38.6396C680.096 39.0929 679.696 39.6396 679.43 40.2796L678.11 43.3596H681.15L680.67 44.2396H677.75C677.563 44.6662 677.376 45.0929 677.19 45.5196C677.03 45.9462 676.843 46.3862 676.63 46.8396C676.07 48.0662 675.59 49.2262 675.19 50.3196C674.71 51.5729 674.323 52.6529 674.03 53.5596C673.763 54.4662 673.603 55.1862 673.55 55.7196C673.443 57.0262 673.79 57.6796 674.59 57.6796C675.336 57.6796 676.243 56.8796 677.31 55.2796L677.79 55.8396C676.51 57.6529 675.243 58.5596 673.99 58.5596ZM682.94 58.7196C681.9 58.7196 681.006 58.3862 680.26 57.7196C679.86 57.3462 679.566 56.9196 679.38 56.4396C679.22 55.9329 679.14 55.3596 679.14 54.7196C679.14 52.2662 680.153 49.8262 682.18 47.3996C683.886 45.3462 685.66 44.3196 687.5 44.3196C688.113 44.3196 688.633 44.4796 689.06 44.7996C689.513 45.1729 689.74 45.6529 689.74 46.2396C689.74 47.7062 688.766 49.1729 686.82 50.6396C686.206 51.0929 685.393 51.4929 684.38 51.8396C683.26 52.2129 682.446 52.3996 681.94 52.3996C681.566 53.3062 681.38 54.2662 681.38 55.2796C681.38 57.0129 682.02 57.8796 683.3 57.8796C684.98 57.8796 686.553 56.7862 688.02 54.5996L688.18 54.3596L688.86 54.6396L688.74 54.8796C688.073 56.2129 687.233 57.1862 686.22 57.7996C685.206 58.4129 684.113 58.7196 682.94 58.7196ZM682.18 51.7196C682.633 51.7196 683.26 51.5729 684.06 51.2796C684.513 51.0929 684.94 50.8929 685.34 50.6796C685.766 50.4662 686.14 50.2262 686.46 49.9596C687.926 48.7329 688.66 47.4396 688.66 46.0796C688.66 45.4929 688.446 45.1996 688.02 45.1996C687.273 45.1996 686.14 46.1196 684.62 47.9596C683.846 48.8929 683.033 50.1462 682.18 51.7196ZM690.966 58.5596C690.192 58.5596 689.806 58.1729 689.806 57.3996C689.806 56.9196 689.966 56.2662 690.286 55.4396L698.046 35.5996C698.099 35.5196 698.126 35.4396 698.126 35.3596C698.126 35.2796 698.126 35.2129 698.126 35.1596C698.126 34.7596 697.966 34.3462 697.646 33.9196H699.806C700.552 33.9196 700.926 34.0929 700.926 34.4396C700.926 34.5996 700.846 34.8796 700.686 35.2796L692.926 55.0396C692.579 55.8929 692.406 56.6529 692.406 57.3196C692.406 57.9329 692.592 58.3462 692.966 58.5596H690.966ZM700.078 58.7196C698.744 58.7196 697.718 58.3196 696.998 57.5196C696.411 56.8529 696.118 56.0529 696.118 55.1196C696.118 53.7596 696.544 53.0796 697.398 53.0796C697.718 53.0796 698.011 53.1996 698.278 53.4396C698.544 53.7062 698.678 54.0129 698.678 54.3596C698.678 54.5729 698.624 54.7462 698.518 54.8796C698.171 55.3062 697.998 55.7729 697.998 56.2796C697.998 56.7862 698.158 57.1996 698.478 57.5196C698.824 57.8662 699.264 58.0396 699.798 58.0396C700.358 58.0396 700.864 57.8529 701.318 57.4796C701.931 56.9196 702.238 56.1462 702.238 55.1596C702.238 54.3062 702.011 53.3462 701.558 52.2796C701.371 52.0129 701.144 51.6662 700.878 51.2396C700.638 50.8129 700.358 50.3062 700.038 49.7196C699.851 49.3996 699.718 49.0796 699.638 48.7596C699.584 48.4129 699.558 48.0796 699.558 47.7596C699.558 46.6396 699.971 45.7462 700.798 45.0796C701.651 44.3862 702.744 44.0396 704.078 44.0396C704.451 44.0396 704.811 44.0796 705.158 44.1596C705.531 44.2396 705.864 44.3862 706.158 44.5996C706.771 45.0529 707.078 45.6129 707.078 46.2796C707.078 46.5729 707.024 46.8396 706.918 47.0796C706.678 47.7729 706.158 48.1196 705.358 48.1196C704.478 48.1196 704.038 47.6662 704.038 46.7596C704.038 46.4929 704.078 46.2662 704.158 46.0796C704.238 45.8129 704.531 45.5462 705.038 45.2796C704.851 44.9329 704.504 44.7596 703.998 44.7596C703.544 44.7596 703.211 44.8662 702.998 45.0796C702.358 45.6396 702.038 46.3462 702.038 47.1996C702.038 47.7862 702.198 48.4262 702.518 49.1196C702.571 49.2262 703.091 50.0662 704.078 51.6396C704.744 52.7062 705.078 53.5996 705.078 54.3196C705.078 55.4662 704.544 56.4796 703.478 57.3596C702.411 58.2662 701.278 58.7196 700.078 58.7196ZM723.848 60.3596C720.648 60.3596 718.142 59.5996 716.328 58.0796C714.675 56.6662 713.848 54.9196 713.848 52.8396C713.848 50.4662 714.835 48.3329 716.808 46.4396C719.022 44.3329 721.902 43.1062 725.448 42.7596C724.702 41.7729 724.328 40.6396 724.328 39.3596C724.328 36.6396 725.755 34.3996 728.608 32.6396C730.955 31.1729 733.502 30.4396 736.248 30.4396C736.968 30.4396 737.622 30.4929 738.208 30.5996C738.795 30.7062 739.302 30.9062 739.728 31.1996C740.768 31.7862 741.288 32.7062 741.288 33.9596C741.288 34.7062 741.048 35.3862 740.568 35.9996C740.088 36.6129 739.515 36.9196 738.848 36.9196C738.342 36.9196 737.902 36.7329 737.528 36.3596C737.155 35.9862 736.968 35.5329 736.968 34.9996C736.995 33.7996 737.635 33.1996 738.888 33.1996C739.608 33.1996 740.048 33.4396 740.208 33.9196C740.235 33.8396 740.248 33.7596 740.248 33.6796C740.248 33.5996 740.248 33.5196 740.248 33.4396C740.248 32.1596 739.288 31.5196 737.368 31.5196C734.782 31.5196 732.235 32.6129 729.728 34.7996C729.302 35.1462 728.902 35.5596 728.528 36.0396C728.182 36.5196 727.848 37.0262 727.528 37.5596C726.808 38.7862 726.448 39.9462 726.448 41.0396C726.448 41.6262 726.568 42.1596 726.808 42.6396C727.502 42.6129 728.088 42.5996 728.568 42.5996C729.048 42.5729 729.422 42.5596 729.688 42.5596C731.235 42.5596 732.008 43.0129 732.008 43.9196C732.008 44.6929 731.342 45.0796 730.008 45.0796C728.542 45.0796 727.195 44.4929 725.968 43.3196C723.462 43.6929 721.435 44.9329 719.888 47.0396C718.475 48.9329 717.768 51.0396 717.768 53.3596C717.768 55.1729 718.262 56.6796 719.248 57.8796C720.395 59.1862 721.928 59.8396 723.848 59.8396C726.462 59.8396 728.755 58.9329 730.728 57.1196C731.555 56.3729 732.235 55.5596 732.768 54.6796C733.302 53.7729 733.568 52.9196 733.568 52.1196C733.568 51.6129 733.435 51.1462 733.168 50.7196C732.928 50.2662 732.528 49.8929 731.968 49.5996C730.982 49.0396 729.755 48.7596 728.288 48.7596C727.248 48.7596 726.248 48.9196 725.288 49.2396C724.328 49.5329 723.542 49.9729 722.928 50.5596C722.315 51.1196 722.008 51.8262 722.008 52.6796C722.008 53.9062 722.902 54.9862 724.688 55.9196C724.928 56.0262 725.048 56.2396 725.048 56.5596C725.048 56.7196 724.982 56.7996 724.848 56.7996C724.768 56.7996 724.715 56.7862 724.688 56.7596C721.862 55.2396 720.448 53.5196 720.448 51.5996C720.448 50.0262 721.208 48.8396 722.728 48.0396C724.248 47.2396 726.182 46.8396 728.528 46.8396C729.142 46.8396 729.888 46.8662 730.768 46.9196C731.675 46.9729 732.622 46.9996 733.608 46.9996C734.622 46.9996 735.635 46.9462 736.648 46.8396C737.662 46.7329 738.582 46.5062 739.408 46.1596C741.515 45.2796 742.568 44.2929 742.568 43.1996C742.568 42.7996 742.448 42.4262 742.208 42.0796C741.968 41.7329 742.008 41.5596 742.328 41.5596C742.462 41.5596 742.568 41.6262 742.648 41.7596C743.048 42.3462 743.248 42.9329 743.248 43.5196C743.248 44.8796 742.302 46.0662 740.408 47.0796C738.515 48.0929 736.422 48.5729 734.128 48.5196C735.115 49.3462 735.608 50.3862 735.608 51.6396C735.608 53.6929 734.502 55.6262 732.288 57.4396C729.915 59.3862 727.102 60.3596 723.848 60.3596ZM730.008 44.3996C730.888 44.3996 731.328 44.2396 731.328 43.9196C731.328 43.4929 730.915 43.2662 730.088 43.2396C729.795 43.2129 729.502 43.1996 729.208 43.1996C728.915 43.1729 728.622 43.1596 728.328 43.1596C728.142 43.1596 727.942 43.1729 727.728 43.1996C727.542 43.1996 727.342 43.1996 727.128 43.1996C727.822 43.9996 728.782 44.3996 730.008 44.3996ZM749.956 58.8396C748.169 58.8396 747.276 57.7329 747.276 55.5196C747.276 54.2662 747.556 52.9462 748.116 51.5596C748.543 50.5196 748.969 49.5062 749.396 48.5196C749.849 47.5329 750.289 46.5862 750.716 45.6796C751.009 45.1196 751.529 44.8396 752.276 44.8396H754.716C754.236 45.1862 753.783 45.6396 753.356 46.1996C752.929 46.7596 752.529 47.4262 752.156 48.1996C750.423 51.7196 749.556 54.2396 749.556 55.7596C749.556 56.9329 750.023 57.5196 750.956 57.5196C752.556 57.5196 754.236 55.3196 755.996 50.9196C755.649 50.1996 755.476 49.3462 755.476 48.3596C755.476 47.8796 755.543 47.3996 755.676 46.9196C755.969 45.9329 756.409 45.1862 756.996 44.6796C757.529 44.1996 758.023 43.9596 758.476 43.9596C758.956 43.9596 759.196 44.1729 759.196 44.5996L758.996 45.3196C758.409 47.1329 757.849 48.7329 757.316 50.1196C756.809 51.4796 756.316 52.6262 755.836 53.5596C753.996 57.0796 752.036 58.8396 749.956 58.8396ZM764.838 43.0796C763.931 43.0796 763.478 42.6396 763.478 41.7596C763.478 40.8796 763.904 40.4396 764.758 40.4396C765.664 40.4396 766.118 40.8796 766.118 41.7596C766.118 42.6396 765.691 43.0796 764.838 43.0796ZM759.398 58.5596C758.624 58.5596 758.238 58.1729 758.238 57.3996C758.238 56.9196 758.398 56.2662 758.718 55.4396C759.411 53.7329 760.064 52.1596 760.678 50.7196C761.291 49.2796 761.864 47.9729 762.398 46.7996C762.478 46.6662 762.518 46.5196 762.518 46.3596C762.518 45.9862 762.344 45.5862 761.998 45.1596L764.198 45.1196C764.944 45.1196 765.318 45.3062 765.318 45.6796C765.318 45.7862 765.291 45.9062 765.238 46.0396C765.184 46.1462 765.118 46.3062 765.038 46.5196L761.358 55.0396C760.984 55.9196 760.798 56.6662 760.798 57.2796C760.798 57.9196 760.998 58.3462 761.398 58.5596H759.398ZM768.633 58.7196C767.299 58.7196 766.273 58.3196 765.553 57.5196C764.966 56.8529 764.673 56.0529 764.673 55.1196C764.673 53.7596 765.099 53.0796 765.953 53.0796C766.273 53.0796 766.566 53.1996 766.833 53.4396C767.099 53.7062 767.233 54.0129 767.233 54.3596C767.233 54.5729 767.179 54.7462 767.073 54.8796C766.726 55.3062 766.553 55.7729 766.553 56.2796C766.553 56.7862 766.713 57.1996 767.033 57.5196C767.379 57.8662 767.819 58.0396 768.353 58.0396C768.913 58.0396 769.419 57.8529 769.873 57.4796C770.486 56.9196 770.793 56.1462 770.793 55.1596C770.793 54.3062 770.566 53.3462 770.113 52.2796C769.926 52.0129 769.699 51.6662 769.433 51.2396C769.193 50.8129 768.913 50.3062 768.593 49.7196C768.406 49.3996 768.273 49.0796 768.193 48.7596C768.139 48.4129 768.113 48.0796 768.113 47.7596C768.113 46.6396 768.526 45.7462 769.353 45.0796C770.206 44.3862 771.299 44.0396 772.633 44.0396C773.006 44.0396 773.366 44.0796 773.713 44.1596C774.086 44.2396 774.419 44.3862 774.713 44.5996C775.326 45.0529 775.633 45.6129 775.633 46.2796C775.633 46.5729 775.579 46.8396 775.473 47.0796C775.233 47.7729 774.713 48.1196 773.913 48.1196C773.033 48.1196 772.593 47.6662 772.593 46.7596C772.593 46.4929 772.633 46.2662 772.713 46.0796C772.793 45.8129 773.086 45.5462 773.593 45.2796C773.406 44.9329 773.059 44.7596 772.553 44.7596C772.099 44.7596 771.766 44.8662 771.553 45.0796C770.913 45.6396 770.593 46.3462 770.593 47.1996C770.593 47.7862 770.753 48.4262 771.073 49.1196C771.126 49.2262 771.646 50.0662 772.633 51.6396C773.299 52.7062 773.633 53.5996 773.633 54.3196C773.633 55.4662 773.099 56.4796 772.033 57.3596C770.966 58.2662 769.833 58.7196 768.633 58.7196ZM781.673 43.0796C780.767 43.0796 780.313 42.6396 780.313 41.7596C780.313 40.8796 780.74 40.4396 781.593 40.4396C782.5 40.4396 782.953 40.8796 782.953 41.7596C782.953 42.6396 782.527 43.0796 781.673 43.0796ZM776.233 58.5596C775.46 58.5596 775.073 58.1729 775.073 57.3996C775.073 56.9196 775.233 56.2662 775.553 55.4396C776.247 53.7329 776.9 52.1596 777.513 50.7196C778.127 49.2796 778.7 47.9729 779.233 46.7996C779.313 46.6662 779.353 46.5196 779.353 46.3596C779.353 45.9862 779.18 45.5862 778.833 45.1596L781.033 45.1196C781.78 45.1196 782.153 45.3062 782.153 45.6796C782.153 45.7862 782.127 45.9062 782.073 46.0396C782.02 46.1462 781.953 46.3062 781.873 46.5196L778.193 55.0396C777.82 55.9196 777.633 56.6662 777.633 57.2796C777.633 57.9196 777.833 58.3462 778.233 58.5596H776.233ZM785.708 58.5596C783.975 58.5596 783.108 57.6129 783.108 55.7196C783.108 55.3462 783.135 54.9596 783.188 54.5596C783.268 54.1596 783.388 53.7596 783.548 53.3596C784.962 49.6262 786.162 46.5862 787.148 44.2396H784.548L785.028 43.3596H787.508L788.468 40.5596C788.815 39.5729 789.108 38.9862 789.348 38.7996C789.535 38.6662 789.962 38.5996 790.628 38.5996L792.348 38.6396C791.815 39.0929 791.415 39.6396 791.148 40.2796L789.828 43.3596H792.868L792.388 44.2396H789.468C789.282 44.6662 789.095 45.0929 788.908 45.5196C788.748 45.9462 788.562 46.3862 788.348 46.8396C787.788 48.0662 787.308 49.2262 786.908 50.3196C786.428 51.5729 786.042 52.6529 785.748 53.5596C785.482 54.4662 785.322 55.1862 785.268 55.7196C785.162 57.0262 785.508 57.6796 786.308 57.6796C787.055 57.6796 787.962 56.8796 789.028 55.2796L789.508 55.8396C788.228 57.6529 786.962 58.5596 785.708 58.5596ZM802.148 58.7196C800.815 58.7196 799.788 58.3196 799.068 57.5196C798.481 56.8529 798.188 56.0529 798.188 55.1196C798.188 53.7596 798.615 53.0796 799.468 53.0796C799.788 53.0796 800.081 53.1996 800.348 53.4396C800.615 53.7062 800.748 54.0129 800.748 54.3596C800.748 54.5729 800.695 54.7462 800.588 54.8796C800.241 55.3062 800.068 55.7729 800.068 56.2796C800.068 56.7862 800.228 57.1996 800.548 57.5196C800.895 57.8662 801.335 58.0396 801.868 58.0396C802.428 58.0396 802.935 57.8529 803.388 57.4796C804.001 56.9196 804.308 56.1462 804.308 55.1596C804.308 54.3062 804.081 53.3462 803.628 52.2796C803.441 52.0129 803.215 51.6662 802.948 51.2396C802.708 50.8129 802.428 50.3062 802.108 49.7196C801.921 49.3996 801.788 49.0796 801.708 48.7596C801.655 48.4129 801.628 48.0796 801.628 47.7596C801.628 46.6396 802.041 45.7462 802.868 45.0796C803.721 44.3862 804.815 44.0396 806.148 44.0396C806.521 44.0396 806.881 44.0796 807.228 44.1596C807.601 44.2396 807.935 44.3862 808.228 44.5996C808.841 45.0529 809.148 45.6129 809.148 46.2796C809.148 46.5729 809.095 46.8396 808.988 47.0796C808.748 47.7729 808.228 48.1196 807.428 48.1196C806.548 48.1196 806.108 47.6662 806.108 46.7596C806.108 46.4929 806.148 46.2662 806.228 46.0796C806.308 45.8129 806.601 45.5462 807.108 45.2796C806.921 44.9329 806.575 44.7596 806.068 44.7596C805.615 44.7596 805.281 44.8662 805.068 45.0796C804.428 45.6396 804.108 46.3462 804.108 47.1996C804.108 47.7862 804.268 48.4262 804.588 49.1196C804.641 49.2262 805.161 50.0662 806.148 51.6396C806.815 52.7062 807.148 53.5996 807.148 54.3196C807.148 55.4662 806.615 56.4796 805.548 57.3596C804.481 58.2662 803.348 58.7196 802.148 58.7196ZM812.549 58.7196C811.509 58.7196 810.616 58.3862 809.869 57.7196C809.469 57.3462 809.176 56.9196 808.989 56.4396C808.829 55.9329 808.749 55.3596 808.749 54.7196C808.749 52.2662 809.762 49.8262 811.789 47.3996C813.496 45.3462 815.269 44.3196 817.109 44.3196C817.722 44.3196 818.242 44.4796 818.669 44.7996C819.122 45.1729 819.349 45.6529 819.349 46.2396C819.349 47.7062 818.376 49.1729 816.429 50.6396C815.816 51.0929 815.002 51.4929 813.989 51.8396C812.869 52.2129 812.056 52.3996 811.549 52.3996C811.176 53.3062 810.989 54.2662 810.989 55.2796C810.989 57.0129 811.629 57.8796 812.909 57.8796C814.589 57.8796 816.162 56.7862 817.629 54.5996L817.789 54.3596L818.469 54.6396L818.349 54.8796C817.682 56.2129 816.842 57.1862 815.829 57.7996C814.816 58.4129 813.722 58.7196 812.549 58.7196ZM811.789 51.7196C812.242 51.7196 812.869 51.5729 813.669 51.2796C814.122 51.0929 814.549 50.8929 814.949 50.6796C815.376 50.4662 815.749 50.2262 816.069 49.9596C817.536 48.7329 818.269 47.4396 818.269 46.0796C818.269 45.4929 818.056 45.1996 817.629 45.1996C816.882 45.1996 815.749 46.1196 814.229 47.9596C813.456 48.8929 812.642 50.1462 811.789 51.7196ZM818.535 58.8396C819.042 57.5596 819.708 55.9596 820.535 54.0396C821.388 52.1196 822.348 49.9329 823.415 47.4796C823.628 46.9462 823.828 46.5196 824.015 46.1996C824.228 45.8796 824.415 45.6262 824.575 45.4396C824.922 45.0396 825.388 44.8796 825.975 44.9596L826.815 45.0796C827.002 45.1062 827.162 45.1329 827.295 45.1596C827.455 45.1596 827.588 45.1462 827.695 45.1196C827.162 45.3862 826.535 46.1462 825.815 47.3996C825.122 48.6262 824.348 50.3062 823.495 52.4396C823.788 52.0662 824.162 51.5729 824.615 50.9596C825.068 50.3196 825.642 49.5862 826.335 48.7596C827.108 47.8529 827.908 47.0129 828.735 46.2396C829.562 45.4662 830.362 45.0796 831.135 45.0796C831.748 45.0796 832.188 45.2796 832.455 45.6796C832.722 46.0796 832.855 46.5329 832.855 47.0396C832.855 47.6529 832.615 48.1996 832.135 48.6796C831.655 49.1596 831.188 49.3996 830.735 49.3996C830.548 49.3996 830.348 49.3596 830.135 49.2796C829.948 49.1996 829.855 49.0796 829.855 48.9196C829.855 48.7862 829.882 48.6662 829.935 48.5596C829.988 48.4262 830.015 48.2796 830.015 48.1196C830.015 47.7196 829.828 47.5196 829.455 47.5196C829.322 47.5196 829.135 47.5596 828.895 47.6396C828.682 47.6929 828.388 47.9062 828.015 48.2796C827.268 48.9729 826.455 49.8129 825.575 50.7996C824.722 51.7596 823.908 52.8396 823.135 54.0396C822.388 55.2396 821.775 56.5596 821.295 57.9996C821.162 58.3996 820.762 58.6129 820.095 58.6396C819.188 58.6929 818.668 58.7596 818.535 58.8396ZM834.292 58.8396C832.505 58.8396 831.612 57.7329 831.612 55.5196C831.612 54.2662 831.892 52.9462 832.452 51.5596C832.879 50.5196 833.305 49.5062 833.732 48.5196C834.185 47.5329 834.625 46.5862 835.052 45.6796C835.345 45.1196 835.865 44.8396 836.612 44.8396H839.052C838.572 45.1862 838.119 45.6396 837.692 46.1996C837.265 46.7596 836.865 47.4262 836.492 48.1996C834.759 51.7196 833.892 54.2396 833.892 55.7596C833.892 56.9329 834.359 57.5196 835.292 57.5196C836.892 57.5196 838.572 55.3196 840.332 50.9196C839.985 50.1996 839.812 49.3462 839.812 48.3596C839.812 47.8796 839.879 47.3996 840.012 46.9196C840.305 45.9329 840.745 45.1862 841.332 44.6796C841.865 44.1996 842.359 43.9596 842.812 43.9596C843.292 43.9596 843.532 44.1729 843.532 44.5996L843.332 45.3196C842.745 47.1329 842.185 48.7329 841.652 50.1196C841.145 51.4796 840.652 52.6262 840.172 53.5596C838.332 57.0796 836.372 58.8396 834.292 58.8396ZM849.173 43.0796C848.267 43.0796 847.813 42.6396 847.813 41.7596C847.813 40.8796 848.24 40.4396 849.093 40.4396C850 40.4396 850.453 40.8796 850.453 41.7596C850.453 42.6396 850.027 43.0796 849.173 43.0796ZM843.733 58.5596C842.96 58.5596 842.573 58.1729 842.573 57.3996C842.573 56.9196 842.733 56.2662 843.053 55.4396C843.747 53.7329 844.4 52.1596 845.013 50.7196C845.627 49.2796 846.2 47.9729 846.733 46.7996C846.813 46.6662 846.853 46.5196 846.853 46.3596C846.853 45.9862 846.68 45.5862 846.333 45.1596L848.533 45.1196C849.28 45.1196 849.653 45.3062 849.653 45.6796C849.653 45.7862 849.627 45.9062 849.573 46.0396C849.52 46.1462 849.453 46.3062 849.373 46.5196L845.693 55.0396C845.32 55.9196 845.133 56.6662 845.133 57.2796C845.133 57.9196 845.333 58.3462 845.733 58.5596H843.733ZM853.888 58.7196C851.222 58.7196 849.888 57.3862 849.888 54.7196C849.888 52.4796 850.662 50.2662 852.208 48.0796C853.888 45.6796 855.822 44.4796 858.008 44.4796C860.035 44.4796 860.942 45.3996 860.728 47.2396C860.702 47.7196 860.448 48.2396 859.968 48.7996C859.515 49.3329 859.075 49.5996 858.648 49.5996C858.408 49.5996 858.208 49.5196 858.048 49.3596C858.715 48.6929 859.128 48.0129 859.288 47.3196C859.342 47.1329 859.382 46.9729 859.408 46.8396C859.435 46.6796 859.448 46.5329 859.448 46.3996C859.448 45.7062 859.128 45.3596 858.488 45.3596C857.555 45.3596 856.248 46.4929 854.568 48.7596C852.968 50.9196 852.168 53.0262 852.168 55.0796C852.168 57.0262 852.915 57.9996 854.408 57.9996C855.848 57.9996 857.248 57.0929 858.608 55.2796L858.848 54.9596L859.408 55.2796L859.128 55.6796C857.715 57.7062 855.968 58.7196 853.888 58.7196ZM864.19 58.7196C863.15 58.7196 862.256 58.3862 861.51 57.7196C861.11 57.3462 860.816 56.9196 860.63 56.4396C860.47 55.9329 860.39 55.3596 860.39 54.7196C860.39 52.2662 861.403 49.8262 863.43 47.3996C865.136 45.3462 866.91 44.3196 868.75 44.3196C869.363 44.3196 869.883 44.4796 870.31 44.7996C870.763 45.1729 870.99 45.6529 870.99 46.2396C870.99 47.7062 870.016 49.1729 868.07 50.6396C867.456 51.0929 866.643 51.4929 865.63 51.8396C864.51 52.2129 863.696 52.3996 863.19 52.3996C862.816 53.3062 862.63 54.2662 862.63 55.2796C862.63 57.0129 863.27 57.8796 864.55 57.8796C866.23 57.8796 867.803 56.7862 869.27 54.5996L869.43 54.3596L870.11 54.6396L869.99 54.8796C869.323 56.2129 868.483 57.1862 867.47 57.7996C866.456 58.4129 865.363 58.7196 864.19 58.7196ZM863.43 51.7196C863.883 51.7196 864.51 51.5729 865.31 51.2796C865.763 51.0929 866.19 50.8929 866.59 50.6796C867.016 50.4662 867.39 50.2262 867.71 49.9596C869.176 48.7329 869.91 47.4396 869.91 46.0796C869.91 45.4929 869.696 45.1996 869.27 45.1996C868.523 45.1996 867.39 46.1196 865.87 47.9596C865.096 48.8929 864.283 50.1462 863.43 51.7196Z" fill="currentColor"/>
</svg>
