<svg width="48" height="48" viewBox="0 0 48 48" fill="none" xmlns="http://www.w3.org/2000/svg">
<path d="M11.5354 19.7861C11.056 19.7861 10.6298 19.975 10.3102 20.3259C9.964 20.6767 9.8042 21.1085 9.8042 21.6212C9.8042 22.134 9.964 22.5388 10.3102 22.9166C10.6565 23.2674 11.056 23.4563 11.5354 23.4563C12.0148 23.4563 12.4409 23.2674 12.7872 22.9166C13.1334 22.5657 13.3199 22.134 13.3199 21.6212C13.3199 21.1085 13.1334 20.6767 12.7872 20.3259C12.4409 19.9481 12.0414 19.7861 11.5354 19.7861Z" fill="#3C4A3E"/>
<path d="M26.4768 19.7588C25.9974 19.7588 25.5713 19.9477 25.2516 20.2985C24.9054 20.6493 24.7456 21.0811 24.7456 21.5939C24.7456 22.1066 24.9054 22.5114 25.2516 22.8892C25.5979 23.24 25.9974 23.429 26.4768 23.429C26.9562 23.429 27.3823 23.24 27.7286 22.8892C28.0748 22.5384 28.2613 22.1066 28.2613 21.5939C28.2613 21.0811 28.0748 20.6763 27.7286 20.2985C27.409 19.9207 26.9828 19.7588 26.4768 19.7588Z" fill="#3C4A3E"/>
<path d="M36.4646 19.7861C35.9852 19.7861 35.5591 19.975 35.2394 20.3259C34.8932 20.6767 34.7334 21.1085 34.7334 21.6212C34.7334 22.134 34.8932 22.5388 35.2394 22.9166C35.5857 23.2674 35.9852 23.4563 36.4646 23.4563C36.944 23.4563 37.3702 23.2674 37.7164 22.9166C38.0626 22.5657 38.2491 22.134 38.2491 21.6212C38.2491 21.1085 38.0626 20.6767 37.7164 20.3259C37.3702 19.9481 36.944 19.7861 36.4646 19.7861Z" fill="#3C4A3E"/>
<path d="M40.8857 6.45508H7.11408C4.53061 6.45508 2.3999 8.614 2.3999 11.2317V30.581C2.3999 33.1987 4.53061 35.3576 7.11408 35.3576H20.3777C20.3777 35.3576 22.9346 42.4551 23.8667 42.4551C24.7989 42.4551 27.5688 35.3576 27.5688 35.3576H40.8857C43.4692 35.3576 45.5999 33.1987 45.5999 30.581V11.2317C45.5999 8.614 43.4692 6.45508 40.8857 6.45508ZM14.9444 24.3201C14.2786 25.0758 13.2399 25.3996 12.1212 25.3996C11.1092 25.3996 10.3634 25.1028 9.83073 24.671H9.80409V25.2107H7.27389V14.0113H9.80409V18.3022H9.85736C10.5498 17.7085 11.4554 17.5195 12.5207 17.4656C13.4263 17.4386 14.3851 18.0053 14.971 18.68C15.5304 19.3546 15.9565 20.4071 15.9565 21.5675C15.9565 22.8359 15.6369 23.5645 14.9444 24.3201ZM20.4043 25.3186H17.8209C17.8209 25.3186 17.8209 19.4356 17.8209 18.3831C17.8209 16.7909 16.5691 16.575 16.5691 16.575V13.7954C16.5691 13.7954 20.1913 14.0113 20.4043 18.4641C20.4043 19.7324 20.4043 25.3186 20.4043 25.3186ZM30.5518 23.1867C30.3387 23.6995 30.0191 24.1312 29.593 24.536C29.1935 24.9138 28.7141 25.2107 28.1814 25.4266C27.6487 25.6425 27.0894 25.7504 26.5035 25.7504C25.9175 25.7504 25.3582 25.6425 24.8522 25.4266C24.3195 25.2107 23.8401 24.9138 23.4406 24.536C23.0145 24.1312 22.6948 23.6725 22.4818 23.1867C22.2687 22.701 22.1622 22.1612 22.1622 21.5945C22.1622 21.0278 22.2687 20.515 22.4818 20.0023C22.6948 19.5165 23.0145 19.0578 23.4406 18.653C23.8667 18.2752 24.3195 17.9783 24.8522 17.7624C25.3849 17.5465 25.9442 17.4386 26.5035 17.4386C27.0894 17.4386 27.6487 17.5465 28.1814 17.7624C28.7141 17.9783 29.1935 18.2752 29.593 18.653C30.0191 19.0578 30.3121 19.4896 30.5518 20.0023C30.7649 20.515 30.8714 21.0278 30.8714 21.5945C30.8714 22.1612 30.7649 22.674 30.5518 23.1867ZM40.7259 24.2932C40.7259 26.2632 40.353 27.4506 39.5008 28.2872C38.4621 29.2857 36.9972 29.3396 35.772 29.1777V27.1537C36.8108 27.2617 38.2223 26.56 38.2223 25.2107V24.698H38.1957C37.6098 25.5076 36.7841 25.8044 35.6389 25.8044C34.6002 25.8044 33.6946 25.4266 33.082 24.698C32.4694 23.9693 32.1765 22.9978 32.1765 21.7834C32.1765 20.4071 32.5227 19.3276 33.1886 18.518C33.881 17.7085 34.8399 17.3306 35.9585 17.3306C36.9439 17.3306 37.5831 17.5735 38.1957 18.1402H38.2223V17.5195H40.7526V24.2932H40.7259Z" fill="white"/>
</svg>
