<svg width="200" height="auto" viewBox="0 0 295 87" stroke="currentColor" fill="none" xmlns="http://www.w3.org/2000/svg">
<path d="M7.60001 86.2C5.66668 86.2 4.03335 85.8 2.70001 85C0.90001 84 1.01328e-05 82.4334 1.01328e-05 80.3C1.01328e-05 78.4334 0.60001 76.7667 1.80001 75.3C3.13334 73.7667 4.66668 73 6.40001 73C7.66668 73 8.76668 73.4667 9.70001 74.4C10.5 75.3334 10.9 76.2667 10.9 77.2C10.9 78.8667 10.2667 80.2334 9.00001 81.3C7.93334 82.3 6.73334 82.8 5.40001 82.8C4.13334 82.8 3.03334 82.3334 2.10001 81.4C2.50001 82.8667 3.86668 83.6 6.20001 83.6C9.73334 83.6 13.9333 81.2334 18.8 76.5C20.6 74.7667 22.5333 72.6667 24.6 70.2C26.6 67.8 28.7 65 30.9 61.8C32.3667 59.6667 33.8 57.5667 35.2 55.5C36.6 53.3667 38.0333 51.2334 39.5 49.1C34.6333 41.6334 32.2 34.6 32.2 28C32.2 24.2 33.0667 21.1334 34.8 18.8C36.6 16.4667 38.9 15.3 41.7 15.3C46.9 15.3 52.3333 18.9 58 26.1C64.4 19.5 70.9333 13.9 77.6 9.30002C86.5333 3.10002 93.9 1.83582e-05 99.7 1.83582e-05C102.033 1.83582e-05 103.2 0.50002 103.2 1.50002C103.2 1.76669 103.1 2.10002 102.9 2.50002C87.9 29.3667 79.5 47.6 77.7 57.2C77.5667 58.1334 77.4333 59 77.3 59.8C77.2333 60.6 77.2 61.3334 77.2 62C77.2 66.2 78.9 68.3 82.3 68.3C85.7667 68.3 90.6333 61.7667 96.9 48.7C97.1667 48.0334 97.5334 47.6334 98 47.5H98.1C98.3667 47.5 98.5 47.7334 98.5 48.2C98.5 48.6 98.3333 49.1334 98 49.8C96.1333 53.5334 94.6333 56.5 93.5 58.7C92.4333 60.9 91.7 62.3 91.3 62.9C89.4333 65.8334 87.5667 68 85.7 69.4C83.8333 70.8 82 71.5 80.2 71.5C77.9333 71.5 75.7667 70.6334 73.7 68.9C71.1 66.6334 69.6667 63.4667 69.4 59.4C67.6 48.4667 63.6333 39.1334 57.5 31.4C55.3667 33.6667 53.1 36.3 50.7 39.3C48.3667 42.3 45.8667 45.6667 43.2 49.4C46.2667 54.2667 49.7667 58.7667 53.7 62.9C57.7 67.0334 62.1333 70.7667 67 74.1C67.4667 74.3667 67.7 74.7 67.7 75.1C67.7 75.6334 67.5 75.9 67.1 75.9C66.9 75.9 66.6 75.8 66.2 75.6C64.3333 74.4667 62.4 73.1 60.4 71.5C58.4 69.9667 56.3 68.1667 54.1 66.1C51.6333 63.8334 49.3333 61.5334 47.2 59.2C45.1333 56.8 43.2 54.3667 41.4 51.9C36.8667 58.3 33.2667 63.3334 30.6 67C28 70.6667 26.3333 72.9667 25.6 73.9C20.1333 80.7 15.4333 84.6 11.5 85.6C10.2333 86 8.93334 86.2 7.60001 86.2ZM70.1 52.3C70.5 50.5667 71.0667 48.7667 71.8 46.9C72.6 44.9667 73.5667 43 74.7 41C80.4333 30.8 86.2 21.4667 92 13C92.6667 12.0667 93 11.2334 93 10.5C93 9.63335 92.3667 9.20002 91.1 9.20002C87.2333 9.20002 81.7334 11.6667 74.6 16.6C71.7333 18.6 69.1 20.6334 66.7 22.7C64.3 24.7 62.0667 26.7334 60 28.8C64.5333 35.6 67.9 43.4334 70.1 52.3ZM41.4 46.4C44 42.8667 46.4333 39.6334 48.7 36.7C51.0333 33.7667 53.2333 31.1667 55.3 28.9C51.1 24.4334 47.3667 22.2 44.1 22.2C42.1 22.2 40.5333 23.1 39.4 24.9C38.2 26.7667 37.6 29.1667 37.6 32.1C37.6 36.7 38.8667 41.4667 41.4 46.4ZM91.3445 70.6C92.6779 67.3334 94.3445 63.3 96.3445 58.5C98.3445 53.7 100.778 48.1667 103.645 41.9C104.245 40.5667 104.811 39.4667 105.345 38.6C105.878 37.7334 106.378 37.0667 106.845 36.6C107.778 35.6667 108.978 35.2 110.445 35.2C110.578 35.2 110.811 35.2 111.145 35.2C111.478 35.2 111.945 35.2667 112.545 35.4C113.478 35.4667 114.178 35.4667 114.645 35.4C112.178 36.8667 108.478 43.3334 103.545 54.8C104.345 53.6667 105.411 52.4334 106.745 51.1C108.145 49.7 109.778 48.1667 111.645 46.5C112.845 45.3667 114.178 44.3 115.645 43.3C117.111 42.2334 118.711 41.2334 120.445 40.3C124.378 38.1 127.278 37 129.145 37C129.611 37 129.945 37.0334 130.145 37.1C129.078 38.9667 128.078 40.7667 127.145 42.5C126.278 44.2334 125.445 45.8667 124.645 47.4C120.778 54.8667 118.611 60.0334 118.145 62.9C118.078 63.3667 118.011 63.8 117.945 64.2C117.945 64.6 117.945 64.9667 117.945 65.3C117.945 67.0334 118.578 67.9 119.845 67.9C121.911 67.9 124.378 65.8 127.245 61.6L128.645 62.6C125.245 67.7334 121.811 70.3 118.345 70.3C114.145 70.3 112.045 68.1334 112.045 63.8C112.045 60.2667 114.211 55.0334 118.545 48.1C119.211 47.0334 119.545 46.1334 119.545 45.4C119.545 44.6 119.178 44.2 118.445 44.2C117.711 44.2 116.745 44.6 115.545 45.4C114.411 46.1334 113.045 47.2334 111.445 48.7C108.911 51.0334 106.545 53.8334 104.345 57.1C102.145 60.3 100.145 63.9667 98.3445 68.1C97.9445 69.1 96.9112 69.7 95.2445 69.9C93.1112 70.1 91.8112 70.3334 91.3445 70.6ZM147.238 31.2C144.971 31.2 143.838 30.1 143.838 27.9C143.838 25.7 144.904 24.6 147.038 24.6C149.304 24.6 150.438 25.7 150.438 27.9C150.438 30.1 149.371 31.2 147.238 31.2ZM133.638 69.9C131.704 69.9 130.738 68.9334 130.738 67C130.738 65.8 131.138 64.1667 131.938 62.1C133.671 57.8334 135.304 53.9 136.838 50.3C138.371 46.7 139.804 43.4334 141.138 40.5C141.338 40.1667 141.438 39.8 141.438 39.4C141.438 38.4667 141.004 37.4667 140.138 36.4L145.638 36.3C147.504 36.3 148.438 36.7667 148.438 37.7C148.438 37.9667 148.371 38.2667 148.238 38.6C148.104 38.8667 147.938 39.2667 147.738 39.8L138.538 61.1C137.604 63.3 137.138 65.1667 137.138 66.7C137.138 68.3 137.638 69.3667 138.638 69.9H133.638ZM146.325 70.6C147.658 67.3334 149.325 63.3 151.325 58.5C153.325 53.7 155.758 48.1667 158.625 41.9C159.225 40.5667 159.792 39.4667 160.325 38.6C160.858 37.7334 161.358 37.0667 161.825 36.6C162.758 35.6667 163.958 35.2 165.425 35.2C165.558 35.2 165.792 35.2 166.125 35.2C166.458 35.2 166.925 35.2667 167.525 35.4C168.458 35.4667 169.158 35.4667 169.625 35.4C167.158 36.8667 163.458 43.3334 158.525 54.8C159.258 53.8667 160.192 52.7 161.325 51.3C162.458 49.8334 163.925 48.2334 165.725 46.5C167.592 44.7 169.125 43.3 170.325 42.3C171.525 41.3 172.358 40.6334 172.825 40.3C175.758 38.1 177.925 37 179.325 37C181.258 37 182.225 37.9334 182.225 39.8C182.225 40.4 182.092 40.9667 181.825 41.5C181.025 43.0334 179.992 44.9667 178.725 47.3C177.525 49.6334 176.125 52.3667 174.525 55.5C177.725 51.5 180.492 48.4667 182.825 46.4C184.025 45.3334 185.358 44.3 186.825 43.3C188.358 42.3 189.992 41.3 191.725 40.3C195.525 38.1 198.392 37 200.325 37C200.792 37 201.125 37.0334 201.325 37.1C200.258 38.9667 199.258 40.7667 198.325 42.5C197.458 44.2334 196.625 45.8667 195.825 47.4C193.958 51.0667 192.492 54.2 191.425 56.8C190.358 59.4 189.658 61.4334 189.325 62.9C189.258 63.3667 189.192 63.8 189.125 64.2C189.125 64.6 189.125 64.9667 189.125 65.3C189.125 67.0334 189.758 67.9 191.025 67.9C193.092 67.9 195.558 65.8 198.425 61.6L199.825 62.6C196.425 67.7334 193.025 70.3 189.625 70.3C185.425 70.3 183.325 68.1334 183.325 63.8C183.325 60.2 185.458 54.9667 189.725 48.1C190.392 47.0334 190.725 46.1334 190.725 45.4C190.725 44.6 190.392 44.2 189.725 44.2C188.992 44.2 188.025 44.6 186.825 45.4C185.625 46.1334 184.258 47.2 182.725 48.6C181.458 49.8 180.125 51.2334 178.725 52.9C177.392 54.5667 175.958 56.4667 174.425 58.6C171.092 63.4667 169.125 67.2334 168.525 69.9C167.392 69.9 166.525 69.3667 165.925 68.3C165.458 67.3667 165.225 66.4334 165.225 65.5C165.225 64.1667 165.692 62.4 166.625 60.2C167.558 58 168.858 55.3334 170.525 52.2C172.458 48.7334 173.425 46.2334 173.425 44.7C173.425 44.0334 173.158 43.7 172.625 43.7C171.558 43.7 169.192 45.3667 165.525 48.7C164.592 49.5667 163.592 50.6667 162.525 52C161.525 53.2667 160.458 54.7667 159.325 56.5C156.725 60.3667 154.725 64.2334 153.325 68.1C152.925 69.1 151.892 69.7 150.225 69.9C148.092 70.1 146.792 70.3334 146.325 70.6ZM210.329 69.9C205.462 69.9 203.029 66.9334 203.029 61C203.029 58.0667 203.729 54.9667 205.129 51.7C207.129 46.9667 209.962 42.9667 213.629 39.7C217.229 36.5 220.629 34.9 223.829 34.9C228.762 34.9 231.229 37.8 231.229 43.6C231.229 46.6 230.496 49.7667 229.029 53.1C227.296 57.1 224.796 60.7334 221.529 64C217.462 67.9334 213.729 69.9 210.329 69.9ZM211.929 67.7C213.462 67.7 215.096 67.0667 216.829 65.8C219.029 64.2 221.529 60.8667 224.329 55.8C227.396 50.3334 228.929 45.9334 228.929 42.6C228.929 39.6 227.662 38.1 225.129 38.1C223.129 38.1 220.862 39.3667 218.329 41.9C215.862 44.3667 213.762 47.5 212.029 51.3C209.696 56.3 208.529 60.3 208.529 63.3C208.529 66.2334 209.662 67.7 211.929 67.7ZM229.235 70.6C230.502 67.4 232.169 63.4 234.235 58.6C236.369 53.8 238.769 48.3334 241.435 42.2C241.969 40.8667 242.469 39.8 242.935 39C243.469 38.2 243.935 37.5667 244.335 37.1C245.202 36.1 246.369 35.7 247.835 35.9L249.935 36.2C250.402 36.2667 250.802 36.3334 251.135 36.4C251.535 36.4 251.869 36.3667 252.135 36.3C250.802 36.9667 249.235 38.8667 247.435 42C245.702 45.0667 243.769 49.2667 241.635 54.6C242.369 53.6667 243.302 52.4334 244.435 50.9C245.569 49.3 247.002 47.4667 248.735 45.4C250.669 43.1334 252.669 41.0334 254.735 39.1C256.802 37.1667 258.802 36.2 260.735 36.2C262.269 36.2 263.369 36.7 264.035 37.7C264.702 38.7 265.035 39.8334 265.035 41.1C265.035 42.6334 264.435 44 263.235 45.2C262.035 46.4 260.869 47 259.735 47C259.269 47 258.769 46.9 258.235 46.7C257.769 46.5 257.535 46.2 257.535 45.8C257.535 45.4667 257.602 45.1667 257.735 44.9C257.869 44.5667 257.935 44.2 257.935 43.8C257.935 42.8 257.469 42.3 256.535 42.3C256.202 42.3 255.735 42.4 255.135 42.6C254.602 42.7334 253.869 43.2667 252.935 44.2C251.069 45.9334 249.035 48.0334 246.835 50.5C244.702 52.9 242.669 55.6 240.735 58.6C238.869 61.6 237.335 64.9 236.135 68.5C235.802 69.5 234.802 70.0334 233.135 70.1C230.869 70.2334 229.569 70.4 229.235 70.6ZM285.027 70.1C283.561 70.1 282.361 69.6667 281.427 68.8C280.094 67.6667 279.427 65.7667 279.427 63.1C279.427 61.3667 279.727 59.4 280.327 57.2C278.061 61 275.694 64.1 273.227 66.5C270.694 68.8334 268.427 70 266.427 70C264.694 70 263.327 69.2334 262.327 67.7C261.261 66.2334 260.727 64.2 260.727 61.6C260.727 55.2667 263.561 48.7334 269.227 42C270.161 40.8667 271.227 39.8334 272.427 38.9C273.627 37.9667 274.927 37.1334 276.327 36.4C279.194 34.9334 281.961 34.2 284.627 34.2C287.894 34.2 290.494 35.2667 292.427 37.4C292.894 37.8667 293.127 38.4 293.127 39C293.127 40.1334 292.527 40.5667 291.327 40.3C290.661 37.9 289.094 36.7 286.627 36.7C283.827 36.7 280.527 38.6667 276.727 42.6C275.394 44.0667 274.127 45.6 272.927 47.2C271.727 48.7334 270.594 50.3667 269.527 52.1C266.661 56.9 265.227 60.8 265.227 63.8C265.227 66.0667 266.094 67.2 267.827 67.2C269.761 67.2 271.994 65.7334 274.527 62.8C275.927 61.2 277.361 59.2334 278.827 56.9C280.294 54.5667 281.827 51.8667 283.427 48.8C284.094 47.5334 284.694 46.5 285.227 45.7C285.761 44.9 286.194 44.3 286.527 43.9C287.594 42.8334 288.861 42.3334 290.327 42.4L292.327 42.7C293.194 42.9 293.927 42.9334 294.527 42.8C293.927 43.4 293.194 44.3667 292.327 45.7C291.527 46.9667 290.594 48.6334 289.527 50.7C288.394 52.9 287.461 54.9 286.727 56.7C285.994 58.5 285.494 60.1 285.227 61.5C285.094 62.1667 284.994 62.8 284.927 63.4C284.861 63.9334 284.827 64.4334 284.827 64.9C284.827 66.6334 285.294 67.5 286.227 67.5C287.561 67.5 289.394 66.0334 291.727 63.1L292.127 62.6L293.527 63.5L293.127 64.1C290.394 68.1 287.694 70.1 285.027 70.1Z" fill="currentColor"/>
</svg>
