<svg width="22" height="22" viewBox="0 0 22 22" fill="none" xmlns="http://www.w3.org/2000/svg" stroke="currentColor">
    <path d="M20.751 10.7505C20.751 12.0638 20.4923 13.3642 19.9898 14.5775C19.4872 15.7908 18.7506 16.8933 17.8219 17.8219C16.8933 18.7506 15.7908 19.4872 14.5775 19.9898C13.3642 20.4923 12.0638 20.751 10.7505 20.751C9.43722 20.751 8.13679 20.4923 6.92347 19.9898C5.71016 19.4872 4.60771 18.7506 3.67908 17.8219C2.75045 16.8933 2.01381 15.7908 1.51124 14.5775C1.00867 13.3642 0.75 12.0638 0.75 10.7505C0.75 8.0982 1.80362 5.55454 3.67908 3.67908C5.55454 1.80362 8.0982 0.75 10.7505 0.75C13.4028 0.75 15.9465 1.80362 17.8219 3.67908C19.6974 5.55454 20.751 8.0982 20.751 10.7505Z" stroke-width="1.5"/>
    <path d="M14.751 10.7505C14.751 12.0635 14.647 13.3645 14.446 14.5775C14.246 15.7905 13.951 16.8925 13.579 17.8215C13.208 18.7505 12.767 19.4865 12.282 19.9895C11.796 20.4915 11.276 20.7505 10.751 20.7505C10.226 20.7505 9.706 20.4915 9.221 19.9895C8.735 19.4865 8.294 18.7495 7.923 17.8215C7.551 16.8925 7.256 15.7915 7.055 14.5775C6.84991 13.3122 6.74824 12.0323 6.751 10.7505C6.751 9.4375 6.854 8.1365 7.055 6.9235C7.256 5.7105 7.551 4.6085 7.923 3.6795C8.294 2.7505 8.735 2.0145 9.22 1.5115C9.706 1.0105 10.226 0.7505 10.751 0.7505C11.276 0.7505 11.796 1.0095 12.281 1.5115C12.767 2.0145 13.208 2.7515 13.579 3.6795C13.951 4.6085 14.246 5.7095 14.446 6.9235C14.648 8.1365 14.751 9.4375 14.751 10.7505Z" stroke-width="1.5"/>
    <path d="M0.751007 10.7505H20.751" stroke-width="1.5" stroke-linecap="round"/>
</svg>
